<svg width="477" height="430" viewBox="0 0 477 430" fill="none" xmlns="http://www.w3.org/2000/svg">
<path d="M225.89 410.201C287.761 410.201 337.917 360.071 337.917 298.232C337.917 236.394 287.761 186.264 225.89 186.264C164.019 186.264 113.862 236.394 113.862 298.232C113.862 360.071 164.019 410.201 225.89 410.201Z" fill="#F2F2F2"/>
<path d="M210.064 430C268.776 430 316.373 423.501 316.373 415.485C316.373 407.468 268.776 400.97 210.064 400.97C151.351 400.97 103.755 407.468 103.755 415.485C103.755 423.501 151.351 430 210.064 430Z" fill="#3F3D56"/>
<path d="M214.271 121.374C218.21 120.05 220.883 117.428 220.24 115.517C219.597 113.606 215.883 113.129 211.943 114.453C208.004 115.776 205.331 118.399 205.974 120.31C206.617 122.221 210.332 122.697 214.271 121.374Z" fill="#3F3D56"/>
<path d="M197.852 134.554L237.328 116.577C237.328 116.577 304.205 91.3122 361.415 152.985C361.415 152.985 335.775 136.534 316.341 158.265C316.341 158.265 279.771 148.376 249.081 184.709C249.081 184.709 201.081 191.974 181.089 217.434C181.089 217.434 158.802 214.008 149.931 242.247C149.888 242.386 149.809 242.51 149.704 242.609C149.598 242.709 149.469 242.779 149.328 242.814C149.187 242.849 149.04 242.847 148.9 242.809C148.76 242.771 148.633 242.698 148.529 242.596C148.406 242.476 148.323 242.321 148.291 242.152C147.458 237.788 137.656 179.57 197.852 134.554Z" fill="#E7ECFF"/>
<path opacity="0.2" d="M197.852 134.554L237.328 116.577C237.328 116.577 304.205 91.3122 361.415 152.985C361.415 152.985 335.775 136.534 316.341 158.265C316.341 158.265 279.771 148.376 249.081 184.709C249.081 184.709 201.081 191.974 181.089 217.434C181.089 217.434 158.802 214.008 149.931 242.247C149.888 242.386 149.809 242.51 149.704 242.609C149.598 242.709 149.469 242.779 149.328 242.814C149.187 242.849 149.04 242.847 148.9 242.809C148.76 242.771 148.633 242.698 148.529 242.596C148.406 242.476 148.323 242.321 148.291 242.152C147.458 237.788 137.656 179.57 197.852 134.554Z" fill="black"/>
<path d="M209.874 209.04L226.312 211.778L231.791 185.765L218.55 180.289L209.874 209.04Z" fill="#2F2E41"/>
<path d="M232.476 203.792C240.293 203.792 246.631 197.458 246.631 189.644C246.631 181.831 240.293 175.497 232.476 175.497C224.659 175.497 218.321 181.831 218.321 189.644C218.321 197.458 224.659 203.792 232.476 203.792Z" fill="#A0616A"/>
<path d="M226.312 197.631C226.312 197.631 227.682 214.973 217.18 216.342C206.678 217.711 226.312 248.743 231.335 248.287C236.357 247.831 245.489 214.516 245.489 214.516C245.489 214.516 233.618 206.302 237.727 199L226.312 197.631Z" fill="#A0616A"/>
<path d="M208.733 260.837C208.733 260.837 210.559 274.071 216.038 274.071C221.518 274.071 212.386 259.011 212.386 259.011L208.733 260.837Z" fill="#A0616A"/>
<path d="M288.638 274.071C288.638 274.071 302.336 285.48 300.51 289.131C298.683 292.782 286.812 285.024 285.899 275.897L288.638 274.071Z" fill="#A0616A"/>
<path d="M205.993 317.882L197.318 350.284L187.729 389.531H196.861C196.861 389.531 200.057 377.209 205.993 370.82C205.993 370.82 211.929 360.78 211.929 353.934L226.084 320.62L205.993 317.882Z" fill="#A0616A"/>
<path d="M243.434 319.707L246.174 350.284C246.174 350.284 245.717 372.189 246.174 377.209C246.631 382.229 246.174 389.531 246.174 389.531H254.393C254.393 389.531 262.155 362.605 259.872 348.002L263.068 313.775L243.434 319.707Z" fill="#A0616A"/>
<path d="M232.476 235.737C232.476 235.737 220.174 225.993 223.357 212.382C223.357 212.382 211.016 212.919 205.993 217.939C200.971 222.959 207.363 239.844 207.363 239.844C207.363 239.844 218.321 258.099 216.495 266.313C214.669 274.528 195.035 317.882 201.427 320.62C207.82 323.358 246.631 332.942 266.265 316.969C266.265 316.969 271.287 271.789 251.197 257.186V245.777C251.197 245.777 254.85 242.582 253.023 234.368C253.023 234.368 260.785 220.221 256.219 217.482C251.653 214.744 241.165 210.732 241.165 210.732C241.165 210.732 242.065 231.173 232.476 235.737Z" fill="#2F2E41"/>
<path d="M208.733 217.939C208.733 217.939 202.797 217.026 196.861 225.697C190.925 234.368 175.401 248.059 182.706 254.904C190.012 261.75 209.646 266.313 209.646 266.313L214.212 258.099L194.578 248.515L211.016 236.193L208.733 217.939Z" fill="#2F2E41"/>
<path d="M253.936 217.939C253.936 217.939 260.329 217.939 263.068 225.697C265.808 233.455 281.789 259.924 281.789 259.924L290.921 274.071L284.529 281.373L266.721 261.293L249.827 233.455L253.936 217.939Z" fill="#2F2E41"/>
<path d="M198.688 388.618H185.903L183.163 410.98C183.163 410.98 175.857 422.845 186.816 421.476C197.774 420.107 194.122 407.785 194.122 407.785L196.861 403.221L197.774 412.805L198.688 412.349V401.852C198.688 401.852 203.71 397.289 198.688 388.618Z" fill="#2F2E41"/>
<path d="M256.676 388.618L244.804 387.705L242.521 413.261C242.521 413.261 241.151 422.845 249.37 421.476C257.589 420.107 254.85 412.349 254.85 412.349V398.201L256.676 388.618Z" fill="#2F2E41"/>
<path d="M222.203 175.269C222.203 175.269 215.551 177.485 215.213 186.237C215.178 187.637 215.334 189.035 215.675 190.393C216.049 191.98 216.29 195.394 213.387 199.855C211.443 202.8 209.668 205.853 208.069 208.998L208.048 209.04L215.353 209.953L216.907 197.849C217.66 191.981 219.273 186.256 221.695 180.858L221.746 180.745C221.746 180.745 224.942 186.678 231.335 186.678L229.052 184.396C229.052 184.396 239.097 188.504 242.75 188.504C242.75 188.504 245.489 190.329 242.75 193.067C240.01 195.805 234.531 202.194 237.727 207.214C240.923 212.234 238.184 213.603 238.184 213.603L243.206 210.865L245.489 209.496V211.322L257.361 209.953C257.361 209.953 260.557 209.496 253.708 201.738C253.708 201.738 251.899 198.725 252.691 196.127C253.341 194.152 253.512 192.051 253.189 189.997C251.655 181.442 245.635 164.433 222.203 175.269Z" fill="#2F2E41"/>
<path d="M293.604 288.322C298.121 283.73 293.118 274.22 292.727 273.497L241.127 168.185C240.969 167.867 240.692 167.624 240.355 167.509C240.019 167.395 239.651 167.418 239.332 167.575C239.013 167.731 238.768 168.007 238.653 168.343C238.537 168.678 238.559 169.046 238.713 169.366L290.339 274.73L290.354 274.756C290.405 274.85 295.387 284.308 290.95 287.018C286.171 289.938 280.598 285.207 280.542 285.159C280.409 285.044 280.254 284.955 280.087 284.9C279.919 284.844 279.742 284.822 279.566 284.834C279.39 284.847 279.218 284.894 279.06 284.973C278.902 285.053 278.761 285.162 278.646 285.296C278.53 285.429 278.442 285.584 278.387 285.752C278.331 285.92 278.31 286.096 278.323 286.273C278.336 286.449 278.383 286.62 278.463 286.778C278.542 286.936 278.652 287.076 278.786 287.191C279.074 287.44 285.918 293.241 292.351 289.309C292.808 289.033 293.228 288.701 293.604 288.322Z" fill="#3F3D56"/>
<path d="M194.161 127.003L232.393 109.592C232.393 109.592 297.165 85.1224 352.575 144.853C352.575 144.853 327.742 128.921 308.919 149.967C308.919 149.967 273.5 140.39 243.777 175.579C243.777 175.579 197.288 182.615 177.926 207.274C177.926 207.274 155.668 203.853 147.36 232.596L146.21 231.466C146.21 231.466 133.554 172.326 194.161 127.003Z" fill="#E7ECFF"/>
<path d="M194.35 126.895C194.35 126.895 175.629 189.873 177.912 207.214L194.35 126.895Z" fill="#3F3D56"/>
<path d="M214.135 117.907C214.135 117.907 237.727 171.162 243.663 175.725L214.135 117.907Z" fill="#3F3D56"/>
<path d="M232.248 109.553C232.248 109.553 292.976 146.062 308.957 150.169L232.248 109.553Z" fill="#3F3D56"/>
<path d="M140.947 413.06C140.838 412.881 138.25 408.563 137.353 399.596C136.53 391.369 137.059 377.502 144.255 358.16C157.886 321.516 141.113 291.95 140.942 291.655L141.769 291.175C141.813 291.25 146.141 298.788 148.697 310.792C152.076 326.706 150.845 343.252 145.151 358.493C131.543 395.074 141.66 412.391 141.764 412.562L140.947 413.06Z" fill="#3F3D56"/>
<path d="M135.617 289.503C139.051 289.503 141.834 286.722 141.834 283.29C141.834 279.859 139.051 277.077 135.617 277.077C132.184 277.077 129.401 279.859 129.401 283.29C129.401 286.722 132.184 289.503 135.617 289.503Z" fill="#3F3D56"/>
<path d="M155.223 312.444C158.656 312.444 161.439 309.663 161.439 306.231C161.439 302.8 158.656 300.018 155.223 300.018C151.79 300.018 149.007 302.8 149.007 306.231C149.007 309.663 151.79 312.444 155.223 312.444Z" fill="#3F3D56"/>
<path d="M141.834 327.738C145.267 327.738 148.05 324.957 148.05 321.525C148.05 318.094 145.267 315.312 141.834 315.312C138.401 315.312 135.617 318.094 135.617 321.525C135.617 324.957 138.401 327.738 141.834 327.738Z" fill="#E7ECFF"/>
<path d="M158.092 340.643C161.525 340.643 164.309 337.861 164.309 334.429C164.309 330.998 161.525 328.216 158.092 328.216C154.659 328.216 151.876 330.998 151.876 334.429C151.876 337.861 154.659 340.643 158.092 340.643Z" fill="#E7ECFF"/>
<path d="M137.052 360.716C140.485 360.716 143.268 357.934 143.268 354.503C143.268 351.071 140.485 348.289 137.052 348.289C133.619 348.289 130.835 351.071 130.835 354.503C130.835 357.934 133.619 360.716 137.052 360.716Z" fill="#3F3D56"/>
<path d="M144.703 413.289C144.703 413.289 138.486 397.995 157.136 386.524L144.703 413.289Z" fill="#3F3D56"/>
<path d="M137.058 413.011C137.058 413.011 134.228 396.747 112.331 396.887L137.058 413.011Z" fill="#3F3D56"/>
<path d="M99.2442 0L121.125 11.9654L78.7295 40.0291L58.4487 26.6573L99.2442 0Z" fill="#3F3D56"/>
<path d="M46.6245 38.0153L0 68.0576L21.6523 80.9194L68.2592 49.8219L46.6245 38.0153Z" fill="#3F3D56"/>
<path d="M55.2059 23.1049C52.7213 24.3141 50.5417 26.0678 48.829 28.2355C47.1164 30.4031 45.915 32.9289 45.3142 35.6248C45.0766 36.6059 45.1174 37.6338 45.4321 38.593C45.7467 39.5521 46.3227 40.4046 47.0954 41.0546L60.5744 52.432C61.5437 53.2486 62.7387 53.751 64.0006 53.8727C65.2625 53.9944 66.5316 53.7295 67.6393 53.1132C73.1196 50.0758 81.9203 43.6997 77.9905 35.6248C77.5512 34.7279 76.8793 33.9652 76.0447 33.4161L61.0225 23.4877C60.1705 22.9226 59.1855 22.5899 58.1651 22.5228C57.1448 22.4557 56.1247 22.6563 55.2059 23.1049Z" fill="#D0CDE1"/>
<path d="M96.0347 58.9717C103.348 49.1551 103.869 37.1733 97.1984 32.2097C90.5283 27.246 79.1928 31.1801 71.88 40.9966C64.5671 50.8132 64.0461 62.795 70.7163 67.7586C77.3864 72.7223 88.7219 68.7882 96.0347 58.9717Z" fill="#3F3D56"/>
<path opacity="0.2" d="M77.094 67.5064C79.8269 69.5414 86.3267 65.5299 92.1696 58.4137C92.6871 57.7845 93.1987 57.1313 93.7043 56.4539C94.0746 55.9563 94.4316 55.4588 94.7751 54.9613C100.193 47.1374 102.334 39.463 99.5361 37.3809C96.7173 35.2821 89.8969 39.611 83.9177 47.1422C83.5838 47.5641 83.2532 47.9945 82.9258 48.4334C81.7942 49.9501 80.7477 51.5284 79.791 53.161C75.9373 59.7725 74.6847 65.7123 77.094 67.5064Z" fill="black"/>
<path d="M79.791 53.161L92.1696 58.4137L101.026 62.1715L102.336 60.4046L94.7752 54.9614L83.9177 47.1422C83.5839 47.5641 83.2533 47.9946 82.9259 48.4334C81.7943 49.9502 80.7477 51.5285 79.791 53.161Z" fill="#D0CDE1"/>
<path d="M103.427 65.1853C104.913 65.1853 106.118 63.9813 106.118 62.4961C106.118 61.0109 104.913 59.8069 103.427 59.8069C101.941 59.8069 100.736 61.0109 100.736 62.4961C100.736 63.9813 101.941 65.1853 103.427 65.1853Z" fill="#D0CDE1"/>
<path d="M104.217 90.9038C104.388 90.7473 104.598 90.6401 104.825 90.5935C119.318 87.6007 128.437 79.2608 132.703 65.0981C132.801 64.7711 133.026 64.4968 133.327 64.3353C133.628 64.1738 133.981 64.1384 134.308 64.2368C134.636 64.3352 134.91 64.5595 135.072 64.8602C135.234 65.161 135.27 65.5137 135.172 65.8408C130.671 80.7829 120.637 89.9598 105.347 93.1173C105.07 93.1744 104.783 93.1391 104.528 93.0169C104.274 92.8948 104.066 92.6924 103.938 92.4411C103.809 92.1897 103.767 91.9031 103.818 91.6254C103.868 91.3477 104.008 91.0942 104.217 90.9038H104.217Z" fill="#E7ECFF"/>
<path d="M100.65 79.6911C100.821 79.5345 101.031 79.4273 101.259 79.3808C112.125 77.1366 118.962 70.8836 122.161 60.2644C122.26 59.9376 122.485 59.6635 122.786 59.5021C123.087 59.3407 123.44 59.3053 123.767 59.4037C124.094 59.5021 124.368 59.7263 124.53 60.0269C124.692 60.3275 124.728 60.6801 124.63 61.0072C121.182 72.4549 113.494 79.4855 101.78 81.9047C101.504 81.9617 101.216 81.9265 100.961 81.8043C100.707 81.6821 100.5 81.4798 100.371 81.2284C100.243 80.977 100.201 80.6905 100.251 80.4127C100.301 80.135 100.441 79.8815 100.65 79.6911L100.65 79.6911Z" fill="#E7ECFF"/>
<path d="M109.486 102.386C109.657 102.229 109.868 102.122 110.095 102.076C124.558 99.0889 140.373 84.6248 144.63 70.4911C144.729 70.1643 144.954 69.8901 145.255 69.7288C145.556 69.5674 145.909 69.532 146.236 69.6304C146.563 69.7288 146.838 69.9529 146.999 70.2536C147.161 70.5542 147.197 70.9068 147.099 71.2338C142.602 86.1648 125.895 101.444 110.617 104.599C110.34 104.656 110.052 104.621 109.798 104.499C109.543 104.377 109.336 104.175 109.207 103.923C109.079 103.672 109.037 103.385 109.087 103.107C109.138 102.83 109.278 102.576 109.486 102.386H109.486Z" fill="#E7ECFF"/>
<path d="M377.756 0L355.875 11.9654L398.27 40.0291L418.551 26.6573L377.756 0Z" fill="#3F3D56"/>
<path d="M430.376 38.0153L477 68.0576L455.348 80.9194L408.741 49.8219L430.376 38.0153Z" fill="#3F3D56"/>
<path d="M421.794 23.1049C424.279 24.3142 426.458 26.0678 428.171 28.2355C429.884 30.4031 431.085 32.9289 431.686 35.6248C431.923 36.6059 431.883 37.6338 431.568 38.593C431.253 39.5521 430.677 40.4046 429.905 41.0546L416.426 52.432C415.456 53.2486 414.261 53.751 412.999 53.8727C411.738 53.9944 410.468 53.7295 409.361 53.1132C403.88 50.0758 395.08 43.6997 399.01 35.6249C399.449 34.7279 400.121 33.9652 400.955 33.4161L415.978 23.4877C416.83 22.9226 417.815 22.5899 418.835 22.5228C419.855 22.4557 420.875 22.6563 421.794 23.1049Z" fill="#D0CDE1"/>
<path d="M406.284 67.7587C412.954 62.795 412.433 50.8133 405.12 40.9967C397.807 31.1801 386.472 27.2461 379.802 32.2097C373.131 37.1734 373.652 49.1552 380.965 58.9718C388.278 68.7883 399.614 72.7224 406.284 67.7587Z" fill="#3F3D56"/>
<path opacity="0.2" d="M399.906 67.5064C397.173 69.5414 390.673 65.5299 384.83 58.4137C384.313 57.7845 383.801 57.1313 383.296 56.4539C382.925 55.9563 382.568 55.4588 382.225 54.9613C376.807 47.1374 374.666 39.463 377.464 37.3809C380.283 35.2821 387.103 39.611 393.082 47.1422C393.416 47.5641 393.747 47.9945 394.074 48.4334C395.206 49.9501 396.252 51.5284 397.209 53.161C401.063 59.7725 402.315 65.7123 399.906 67.5064Z" fill="black"/>
<path d="M397.209 53.1611L384.83 58.4137L375.974 62.1715L374.664 60.4046L382.225 54.9614L393.082 47.1422C393.416 47.5641 393.747 47.9946 394.074 48.4334C395.206 49.9502 396.252 51.5285 397.209 53.1611Z" fill="#D0CDE1"/>
<path d="M373.573 65.1853C375.059 65.1853 376.264 63.9813 376.264 62.4961C376.264 61.0109 375.059 59.8069 373.573 59.8069C372.087 59.8069 370.882 61.0109 370.882 62.4961C370.882 63.9813 372.087 65.1853 373.573 65.1853Z" fill="#D0CDE1"/>
<path d="M372.783 90.9038C372.612 90.7473 372.402 90.6401 372.175 90.5935C357.682 87.6007 348.563 79.2608 344.297 65.0981C344.198 64.7711 343.974 64.4968 343.673 64.3353C343.372 64.1738 343.019 64.1384 342.692 64.2368C342.364 64.3352 342.09 64.5595 341.928 64.8602C341.766 65.161 341.73 65.5137 341.828 65.8408C346.329 80.7829 356.363 89.9598 371.653 93.1173C371.93 93.1744 372.217 93.1391 372.472 93.0169C372.726 92.8948 372.934 92.6924 373.062 92.4411C373.191 92.1897 373.233 91.9031 373.182 91.6254C373.132 91.3477 372.992 91.0942 372.783 90.9038H372.783Z" fill="#E7ECFF"/>
<path d="M376.35 79.6911C376.179 79.5345 375.968 79.4273 375.741 79.3808C364.875 77.1366 358.038 70.8836 354.839 60.2644C354.74 59.9376 354.515 59.6635 354.214 59.5021C353.913 59.3407 353.56 59.3053 353.233 59.4037C352.906 59.5021 352.632 59.7263 352.47 60.0269C352.308 60.3275 352.272 60.6801 352.37 61.0072C355.818 72.4549 363.506 79.4855 375.22 81.9047C375.496 81.9617 375.784 81.9265 376.038 81.8043C376.293 81.6821 376.5 81.4798 376.629 81.2284C376.757 80.977 376.799 80.6904 376.749 80.4127C376.699 80.135 376.558 79.8815 376.35 79.6911V79.6911Z" fill="#E7ECFF"/>
<path d="M367.514 102.386C367.343 102.229 367.132 102.122 366.905 102.076C352.442 99.0889 336.627 84.6248 332.37 70.4911C332.271 70.1643 332.046 69.8901 331.745 69.7288C331.444 69.5674 331.091 69.532 330.764 69.6304C330.437 69.7288 330.162 69.9529 330 70.2536C329.839 70.5542 329.803 70.9068 329.901 71.2338C334.398 86.1648 351.105 101.444 366.383 104.599C366.66 104.656 366.948 104.621 367.202 104.499C367.457 104.377 367.664 104.175 367.792 103.923C367.921 103.672 367.963 103.385 367.913 103.107C367.862 102.83 367.722 102.576 367.514 102.386Z" fill="#E7ECFF"/>
</svg>
