<svg width="615" height="403" viewBox="0 0 615 403" fill="none" xmlns="http://www.w3.org/2000/svg">
<g clip-path="url(#clip0)">
<path d="M307.5 403C477.328 403 615 394.369 615 383.721C615 373.074 477.328 364.442 307.5 364.442C137.672 364.442 0 373.074 0 383.721C0 394.369 137.672 403 307.5 403Z" fill="#E6E6E6"/>
<path d="M469.984 -3.8147e-06C469.405 0.000603619 468.849 0.230896 468.439 0.640333C468.029 1.04977 467.798 1.60491 467.798 2.18394V87.7913C467.798 88.3704 468.029 88.9255 468.439 89.335C468.849 89.7444 469.405 89.9747 469.984 89.9753H570.09C570.67 89.9747 571.226 89.7444 571.635 89.3349C572.045 88.9255 572.276 88.3704 572.276 87.7913V2.18396C572.276 1.60493 572.045 1.04979 571.635 0.640354C571.226 0.230917 570.67 0.000626404 570.09 1.71518e-05L469.984 -3.8147e-06Z" fill="#E6E6E6"/>
<path d="M483.868 51.5276C483.651 51.5718 483.455 51.6896 483.315 51.861C483.175 52.0325 483.098 52.2471 483.098 52.4685C483.098 52.6899 483.175 52.9045 483.315 53.0759C483.455 53.2474 483.651 53.3652 483.868 53.4093H557.107C557.324 53.3652 557.519 53.2474 557.659 53.0759C557.8 52.9045 557.876 52.6899 557.876 52.4685C557.876 52.2471 557.8 52.0325 557.659 51.861C557.519 51.6896 557.324 51.5718 557.107 51.5276H483.868Z" fill="white"/>
<path d="M482.968 62.7079C482.75 62.7521 482.555 62.8699 482.415 63.0413C482.275 63.2128 482.198 63.4274 482.198 63.6488C482.198 63.8702 482.275 64.0848 482.415 64.2563C482.555 64.4277 482.75 64.5455 482.968 64.5897H556.207C556.424 64.5455 556.619 64.4277 556.759 64.2563C556.899 64.0848 556.976 63.8702 556.976 63.6488C556.976 63.4274 556.899 63.2128 556.759 63.0413C556.619 62.8699 556.424 62.7521 556.207 62.7079H482.968Z" fill="white"/>
<path d="M483.868 73.8883C483.651 73.9325 483.455 74.0503 483.315 74.2217C483.175 74.3932 483.098 74.6078 483.098 74.8292C483.098 75.0506 483.175 75.2652 483.315 75.4366C483.455 75.6081 483.651 75.7259 483.868 75.7701H557.107C557.324 75.7259 557.519 75.6081 557.659 75.4366C557.8 75.2652 557.876 75.0506 557.876 74.8292C557.876 74.6078 557.8 74.3932 557.659 74.2217C557.519 74.0503 557.324 73.9325 557.107 73.8883H483.868Z" fill="white"/>
<path d="M483.868 14.2052C483.651 14.2494 483.455 14.3673 483.315 14.5388C483.175 14.7103 483.098 14.9249 483.098 15.1464C483.098 15.3678 483.175 15.5824 483.315 15.7539C483.455 15.9254 483.651 16.0433 483.868 16.0875H557.107C557.324 16.0433 557.519 15.9254 557.659 15.7539C557.8 15.5824 557.876 15.3678 557.876 15.1464C557.876 14.9249 557.8 14.7103 557.659 14.5388C557.519 14.3673 557.324 14.2494 557.107 14.2052H483.868Z" fill="white"/>
<path d="M482.968 25.3856C482.75 25.4298 482.555 25.5476 482.415 25.7191C482.275 25.8906 482.198 26.1053 482.198 26.3267C482.198 26.5481 482.275 26.7628 482.415 26.9343C482.555 27.1058 482.75 27.2236 482.968 27.2679H556.207C556.424 27.2236 556.619 27.1058 556.759 26.9343C556.899 26.7628 556.976 26.5481 556.976 26.3267C556.976 26.1053 556.899 25.8906 556.759 25.7191C556.619 25.5476 556.424 25.4298 556.207 25.3856H482.968Z" fill="white"/>
<path d="M483.868 36.5659C483.65 36.6101 483.455 36.728 483.315 36.8995C483.175 37.071 483.098 37.2856 483.098 37.5071C483.098 37.7285 483.175 37.9431 483.315 38.1147C483.455 38.2862 483.65 38.404 483.868 38.4482H557.107C557.324 38.404 557.519 38.2862 557.659 38.1147C557.8 37.9431 557.876 37.7285 557.876 37.5071C557.876 37.2856 557.8 37.071 557.659 36.8995C557.519 36.728 557.324 36.6101 557.107 36.5659H483.868Z" fill="white"/>
<path d="M425.24 35.007C424.66 35.0076 424.104 35.2379 423.694 35.6473C423.284 36.0568 423.054 36.6119 423.053 37.1909V122.798C423.054 123.377 423.284 123.933 423.694 124.342C424.104 124.751 424.66 124.982 425.24 124.982H525.345C525.925 124.982 526.481 124.751 526.891 124.342C527.301 123.933 527.531 123.377 527.532 122.798V37.1909C527.531 36.6119 527.301 36.0568 526.891 35.6473C526.481 35.2379 525.925 35.0076 525.345 35.007H425.24Z" fill="#E7ECFF"/>
<path d="M439.123 86.5345C438.906 86.5787 438.711 86.6965 438.57 86.868C438.43 87.0394 438.354 87.254 438.354 87.4754C438.354 87.6968 438.43 87.9114 438.57 88.0829C438.711 88.2543 438.906 88.3721 439.123 88.4163H512.362C512.579 88.3721 512.775 88.2543 512.915 88.0829C513.055 87.9114 513.132 87.6968 513.132 87.4754C513.132 87.254 513.055 87.0394 512.915 86.868C512.775 86.6965 512.579 86.5787 512.362 86.5345H439.123Z" fill="white"/>
<path d="M438.223 97.7149C438.006 97.7591 437.81 97.8769 437.67 98.0483C437.53 98.2198 437.453 98.4344 437.453 98.6558C437.453 98.8772 437.53 99.0918 437.67 99.2633C437.81 99.4347 438.006 99.5525 438.223 99.5967H511.462C511.679 99.5525 511.874 99.4347 512.014 99.2633C512.155 99.0918 512.231 98.8772 512.231 98.6558C512.231 98.4344 512.155 98.2198 512.014 98.0483C511.874 97.8769 511.679 97.7591 511.462 97.7149H438.223Z" fill="white"/>
<path d="M439.123 108.895C438.906 108.939 438.711 109.057 438.57 109.229C438.43 109.4 438.354 109.615 438.354 109.836C438.354 110.058 438.43 110.272 438.57 110.444C438.711 110.615 438.906 110.733 439.123 110.777H512.362C512.579 110.733 512.775 110.615 512.915 110.444C513.055 110.272 513.132 110.058 513.132 109.836C513.132 109.615 513.055 109.4 512.915 109.229C512.775 109.057 512.579 108.939 512.362 108.895H439.123Z" fill="white"/>
<path d="M439.123 49.2122C438.906 49.2564 438.711 49.3743 438.57 49.5458C438.43 49.7173 438.354 49.9319 438.354 50.1533C438.354 50.3748 438.43 50.5894 438.57 50.7609C438.711 50.9324 438.906 51.0503 439.123 51.0945H512.362C512.579 51.0503 512.774 50.9324 512.915 50.7609C513.055 50.5894 513.132 50.3748 513.132 50.1533C513.132 49.9319 513.055 49.7173 512.915 49.5458C512.774 49.3743 512.579 49.2564 512.362 49.2122H439.123Z" fill="white"/>
<path d="M438.223 60.3925C438.006 60.4368 437.81 60.5546 437.67 60.7261C437.53 60.8976 437.453 61.1123 437.453 61.3337C437.453 61.5551 437.53 61.7698 437.67 61.9413C437.81 62.1128 438.006 62.2306 438.223 62.2749H511.462C511.679 62.2306 511.874 62.1128 512.015 61.9413C512.155 61.7698 512.231 61.5551 512.231 61.3337C512.231 61.1123 512.155 60.8976 512.015 60.7261C511.874 60.5546 511.679 60.4368 511.462 60.3925H438.223Z" fill="white"/>
<path d="M439.123 71.5729C438.906 71.6171 438.711 71.735 438.57 71.9065C438.43 72.078 438.354 72.2926 438.354 72.5141C438.354 72.7355 438.43 72.9501 438.57 73.1216C438.711 73.2931 438.906 73.411 439.123 73.4552H512.362C512.579 73.411 512.774 73.2931 512.915 73.1216C513.055 72.9501 513.132 72.7355 513.132 72.5141C513.132 72.2926 513.055 72.078 512.915 71.9065C512.774 71.735 512.579 71.6171 512.362 71.5729H439.123Z" fill="white"/>
<path d="M566.656 354.359L567.181 364.316L578.199 363.268L577.15 353.311L566.656 354.359Z" fill="#FBBEBE"/>
<path d="M524.156 342.829L524.681 352.787L535.7 351.738L534.65 341.78L524.156 342.829Z" fill="#FBBEBE"/>
<path d="M574.264 218.882L534.388 225.695L531.764 298.019L521.271 344.139L538.061 351.476L554.326 305.88L560.098 265.526L564.295 305.88L564.82 356.717L590.53 355.145L584.383 255.595C583.592 242.789 580.147 230.287 574.264 218.882V218.882Z" fill="#2F2E41"/>
<path d="M568.23 360.648C568.23 360.648 564.557 356.455 564.557 358.027C564.557 359.6 562.459 374.798 562.459 374.798C562.459 374.798 576.625 378.991 576.625 381.611C576.625 384.232 597.088 388.425 596.564 383.184C596.039 377.943 578.199 358.027 578.199 358.027C578.199 358.027 570.854 356.979 568.23 360.648Z" fill="#2F2E41"/>
<path d="M526.369 349.181C526.369 349.181 525.25 343.723 524.472 345.09C523.694 346.457 514.35 358.634 514.35 358.634C514.35 358.634 524.591 369.272 523.294 371.55C521.998 373.828 537.713 387.574 539.85 382.759C541.987 377.944 536.332 351.824 536.332 351.824C536.332 351.824 530.465 347.287 526.369 349.181Z" fill="#2F2E41"/>
<path d="M525.565 161.108L554.613 163.882L564.295 137.526L536.487 130.834L525.565 161.108Z" fill="#2F2E41"/>
<path d="M549.341 155.729C557.455 155.729 564.033 149.159 564.033 141.054C564.033 132.95 557.455 126.38 549.341 126.38C541.228 126.38 534.65 132.95 534.65 141.054C534.65 149.159 541.228 155.729 549.341 155.729Z" fill="#FBBEBE"/>
<path d="M540.946 149.964C540.946 149.964 540.946 159.921 533.076 164.114C525.206 168.307 551.965 173.024 551.965 173.024L554.588 164.114C554.588 164.114 546.718 160.446 553.539 152.06L540.946 149.964Z" fill="#FBBEBE"/>
<path d="M553.539 161.494C553.539 161.494 543.929 167.439 535.879 162.108L532.551 161.494L522.582 163.59L517.86 181.409L535.7 225.957C535.7 225.957 566.656 231.198 572.953 219.668L569.28 172.5L559.311 160.446L553.539 161.494Z" fill="#575A89"/>
<path d="M558.262 162.018L575.576 137.909L574.002 135.289L551.44 123.759V116.422L586.595 125.855L588.973 129.62L568.23 174.596L558.262 162.018Z" fill="#575A89"/>
<path d="M523.631 164.114L522.582 163.59L496.348 162.542L516.286 145.247L509.99 137.386L480.082 159.922V165.162L522.582 182.981L523.631 164.114Z" fill="#575A89"/>
<path d="M509.727 139.744L513.4 137.648C513.4 137.648 521.27 127.166 524.419 131.359C527.567 135.551 517.073 143.413 517.073 143.413L511.301 145.509L509.727 139.744Z" fill="#FBBEBE"/>
<path d="M553.014 117.994L547.243 114.85C547.243 114.85 529.928 116.422 532.027 120.091C534.125 123.759 546.193 120.615 546.193 120.615L553.014 122.711V117.994Z" fill="#FBBEBE"/>
<path d="M538.063 126.891C538.063 126.891 531.319 129.136 530.977 138.004C530.942 139.422 531.1 140.839 531.445 142.215C531.825 143.822 532.069 147.281 529.126 151.801C527.155 154.785 525.355 157.878 523.734 161.065L523.713 161.107L531.12 162.032L532.694 149.769C533.458 143.824 535.094 138.023 537.549 132.554L537.6 132.44C537.6 132.44 540.841 138.451 547.321 138.451L545.007 136.139C545.007 136.139 555.191 140.3 558.894 140.3C558.894 140.3 561.672 142.15 558.894 144.924C556.117 147.698 550.562 154.172 553.802 159.258C557.043 164.344 554.265 165.731 554.265 165.731L559.357 162.957L561.672 161.57V163.419L573.707 162.032C573.707 162.032 576.948 161.57 570.004 153.709C570.004 153.709 568.171 150.657 568.973 148.024C569.632 146.023 569.805 143.894 569.478 141.814C567.923 133.145 561.819 115.912 538.063 126.891Z" fill="#2F2E41"/>
<path d="M115.799 135.452C115.436 135.452 115.088 135.596 114.831 135.852C114.575 136.109 114.431 136.456 114.43 136.819V241.258C114.431 241.621 114.575 241.968 114.831 242.225C115.088 242.481 115.436 242.625 115.799 242.625H354.479C354.842 242.625 355.19 242.481 355.446 242.225C355.703 241.968 355.847 241.621 355.847 241.258V136.819C355.847 136.456 355.703 136.109 355.446 135.852C355.19 135.596 354.842 135.452 354.479 135.452H115.799Z" fill="#E6E6E6"/>
<path d="M322.18 156.056H148.097C147.881 156.056 147.667 156.014 147.468 155.932C147.268 155.85 147.087 155.729 146.934 155.577C146.781 155.424 146.66 155.243 146.577 155.044C146.494 154.845 146.452 154.631 146.452 154.416C146.452 154.2 146.494 153.986 146.577 153.787C146.66 153.588 146.781 153.407 146.934 153.254C147.087 153.102 147.268 152.981 147.468 152.899C147.667 152.817 147.881 152.775 148.097 152.775H322.18C322.615 152.776 323.032 152.949 323.34 153.257C323.647 153.564 323.819 153.981 323.819 154.416C323.819 154.85 323.647 155.267 323.34 155.574C323.032 155.882 322.615 156.055 322.18 156.056Z" fill="white"/>
<path d="M322.18 169.179H148.097C147.662 169.179 147.244 169.007 146.936 168.699C146.628 168.391 146.455 167.974 146.455 167.539C146.455 167.104 146.628 166.687 146.936 166.379C147.244 166.071 147.662 165.899 148.097 165.899H322.18C322.616 165.899 323.034 166.071 323.342 166.379C323.65 166.687 323.823 167.104 323.823 167.539C323.823 167.974 323.65 168.391 323.342 168.699C323.034 169.007 322.616 169.179 322.18 169.179Z" fill="white"/>
<path d="M322.18 182.303H148.097C147.881 182.303 147.667 182.261 147.468 182.179C147.268 182.097 147.087 181.976 146.934 181.823C146.781 181.671 146.66 181.49 146.577 181.291C146.494 181.092 146.452 180.878 146.452 180.662C146.452 180.447 146.494 180.233 146.577 180.034C146.66 179.834 146.781 179.653 146.934 179.501C147.087 179.349 147.268 179.228 147.468 179.146C147.667 179.063 147.881 179.021 148.097 179.022H322.18C322.615 179.023 323.032 179.196 323.34 179.503C323.647 179.811 323.819 180.228 323.819 180.662C323.819 181.097 323.647 181.513 323.34 181.821C323.032 182.129 322.615 182.302 322.18 182.303Z" fill="white"/>
<path d="M322.18 195.327H148.097C147.662 195.327 147.244 195.154 146.936 194.846C146.628 194.539 146.455 194.121 146.455 193.686C146.455 193.251 146.628 192.834 146.936 192.526C147.244 192.219 147.662 192.046 148.097 192.046H322.18C322.616 192.046 323.034 192.219 323.342 192.526C323.65 192.834 323.823 193.251 323.823 193.686C323.823 194.121 323.65 194.539 323.342 194.846C323.034 195.154 322.616 195.327 322.18 195.327Z" fill="white"/>
<path d="M322.18 208.45H148.097C147.881 208.45 147.667 208.408 147.468 208.326C147.268 208.244 147.087 208.123 146.934 207.971C146.781 207.818 146.66 207.637 146.577 207.438C146.494 207.239 146.452 207.025 146.452 206.81C146.452 206.594 146.494 206.38 146.577 206.181C146.66 205.982 146.781 205.801 146.934 205.648C147.087 205.496 147.268 205.375 147.468 205.293C147.667 205.211 147.881 205.169 148.097 205.169H322.18C322.616 205.169 323.034 205.342 323.342 205.65C323.65 205.957 323.823 206.375 323.823 206.81C323.823 207.245 323.65 207.662 323.342 207.969C323.034 208.277 322.616 208.45 322.18 208.45Z" fill="white"/>
<path d="M277.993 219.37C277.869 219.37 277.749 219.419 277.661 219.507C277.573 219.595 277.524 219.714 277.524 219.838V232.256C277.524 232.38 277.573 232.499 277.661 232.587C277.749 232.675 277.869 232.724 277.993 232.724H321.479C321.603 232.724 321.722 232.675 321.81 232.587C321.898 232.499 321.948 232.38 321.948 232.256V219.838C321.948 219.714 321.898 219.595 321.81 219.507C321.722 219.419 321.603 219.37 321.479 219.37H277.993Z" fill="white"/>
<path d="M39.7862 242.387C39.7862 242.387 36.1958 285.508 35.4249 294.748C34.8963 300.54 33.6001 306.237 31.5705 311.688C30.6479 313.618 30.1235 315.712 30.0287 317.848V357.119C30.0287 357.119 26.9451 357.119 27.716 360.199C28.4869 363.279 29.2578 368.669 29.2578 368.669H40.8211C40.8211 368.669 40.0502 366.359 42.3629 365.589C44.6755 364.819 42.3629 358.659 42.3629 358.659L54.6971 312.458L73.1984 273.958C73.1984 273.958 83.9908 308.608 86.3035 312.458C86.3035 312.458 94.7832 355.579 96.325 359.429C97.8668 363.279 98.6377 363.279 97.8668 364.819C97.0959 366.359 97.0959 367.899 97.8668 368.669C98.6377 369.439 113.285 368.669 113.285 368.669L109.43 313.998L102.492 248.548L67.0313 237.768L39.7862 242.387Z" fill="#2F2E41"/>
<path d="M37.7376 362.509C37.7376 362.509 33.8831 348.649 27.716 359.429C21.5489 370.209 21.5489 374.059 21.5489 374.059C21.5489 374.059 11.5274 388.689 25.4034 387.149C39.2794 385.609 36.1958 378.679 36.1958 378.679C36.1958 378.679 41.592 375.599 41.592 373.289C41.592 370.979 37.7376 362.509 37.7376 362.509Z" fill="#2F2E41"/>
<path d="M100.179 360.969C100.179 360.969 104.034 347.109 110.201 357.889C116.368 368.669 116.368 372.519 116.368 372.519C116.368 372.519 126.39 387.149 112.514 385.609C98.6376 384.069 101.721 377.139 101.721 377.139C101.721 377.139 96.325 374.059 96.325 371.749C96.325 369.439 100.179 360.969 100.179 360.969Z" fill="#2F2E41"/>
<path d="M63.9478 138.437C63.9478 138.437 65.4896 148.447 60.8643 150.757C56.2389 153.067 70.8858 161.537 74.7403 161.537C78.5947 161.537 85.5327 153.837 85.5327 153.837C85.5327 153.837 81.6782 142.287 82.4491 139.977L63.9478 138.437Z" fill="#FFB9B9"/>
<path d="M72.4275 146.137C81.3683 146.137 88.6162 138.898 88.6162 129.967C88.6162 121.037 81.3683 113.797 72.4275 113.797C63.4868 113.797 56.2389 121.037 56.2389 129.967C56.2389 138.898 63.4868 146.137 72.4275 146.137Z" fill="#FFB9B9"/>
<path d="M104.034 163.077L84.7623 151.415C84.7623 151.415 73.7973 163.847 61.9345 149.987L41.5919 155.377L44.6755 207.738C44.6755 207.738 40.0502 228.528 41.5919 232.378C43.1337 236.228 37.7375 237.768 39.2793 238.538C40.8211 239.308 39.2793 244.698 39.2793 244.698C39.2793 244.698 69.3439 260.098 102.492 248.548L99.4085 238.538C99.8282 237.229 99.9068 235.836 99.6371 234.488C99.3673 233.141 98.758 231.884 97.8667 230.838C97.8667 230.838 100.95 226.218 97.0958 222.368C97.0958 222.368 98.6376 215.438 94.7832 212.358L94.0123 201.578L96.325 196.188L104.034 163.077Z" fill="#CFCCE0"/>
<path d="M64.1426 122.459C64.1426 122.459 62.2126 126.631 69.9327 124.962C69.9327 124.962 72.8277 126.631 72.8277 124.128C72.8277 124.128 76.6877 128.3 77.6527 125.797C78.6177 123.293 80.5478 126.631 80.5478 126.631L82.4778 122.459L84.4078 124.962H91.1628C91.1628 124.962 93.0928 108.274 69.9327 109.943C46.7725 111.612 58.1661 138.052 58.1661 138.052C58.1661 138.052 58.3526 133.306 60.2826 135.809C62.2126 138.313 64.1426 122.459 64.1426 122.459Z" fill="#2F2E41"/>
<path d="M110.972 193.878L111.743 210.048C111.743 210.048 114.826 240.078 108.659 253.168V260.098C108.659 260.098 107.117 277.808 99.4085 277.038C91.6996 276.268 101.721 251.628 101.721 251.628L100.179 217.748L98.6376 198.498L110.972 193.878Z" fill="#FFB9B9"/>
<path d="M95.5542 163.847L103.244 162.599C108.784 167.916 112.557 174.802 114.056 182.327C116.368 194.648 117.139 196.958 117.139 196.958L98.6378 201.578L88.6162 182.327L95.5542 163.847Z" fill="#CFCCE0"/>
<path d="M63.2757 168.409C62.9128 168.409 62.565 168.554 62.3084 168.81C62.0518 169.066 61.9075 169.414 61.9071 169.776V274.216C61.9074 274.578 62.0517 274.926 62.3083 275.182C62.5649 275.438 62.9128 275.582 63.2757 275.583H301.956C302.319 275.582 302.667 275.438 302.923 275.182C303.18 274.926 303.324 274.578 303.324 274.216V169.776C303.324 169.414 303.18 169.066 302.923 168.81C302.667 168.554 302.319 168.409 301.956 168.409H63.2757Z" fill="#E7ECFF"/>
<path d="M269.657 189.014H95.5741C95.1391 189.013 94.7223 188.839 94.415 188.532C94.1078 188.224 93.9352 187.808 93.9352 187.373C93.9352 186.939 94.1078 186.522 94.415 186.214C94.7223 185.907 95.1391 185.734 95.5741 185.733H269.657C270.093 185.733 270.511 185.906 270.819 186.213C271.127 186.521 271.3 186.938 271.3 187.373C271.3 187.808 271.127 188.225 270.819 188.533C270.511 188.841 270.093 189.014 269.657 189.014Z" fill="white"/>
<path d="M269.657 202.137H95.5741C95.1391 202.136 94.7223 201.963 94.415 201.655C94.1078 201.348 93.9352 200.931 93.9352 200.496C93.9352 200.062 94.1078 199.645 94.415 199.338C94.7223 199.03 95.1391 198.857 95.5741 198.856H269.657C270.093 198.856 270.511 199.029 270.819 199.337C271.127 199.644 271.3 200.061 271.3 200.496C271.3 200.932 271.127 201.349 270.819 201.656C270.511 201.964 270.093 202.137 269.657 202.137Z" fill="white"/>
<path d="M269.657 215.26H95.5741C95.1391 215.259 94.7223 215.086 94.415 214.779C94.1078 214.471 93.9352 214.054 93.9352 213.62C93.9352 213.185 94.1078 212.769 94.415 212.461C94.7223 212.153 95.1391 211.98 95.5741 211.979H269.657C269.873 211.979 270.087 212.021 270.287 212.103C270.487 212.186 270.668 212.306 270.821 212.459C270.974 212.611 271.095 212.792 271.178 212.991C271.26 213.191 271.303 213.404 271.303 213.62C271.303 213.836 271.26 214.049 271.178 214.248C271.095 214.448 270.974 214.629 270.821 214.781C270.668 214.933 270.487 215.054 270.287 215.136C270.087 215.219 269.873 215.261 269.657 215.26Z" fill="white"/>
<path d="M269.657 228.284H95.5741C95.1391 228.283 94.7223 228.11 94.415 227.803C94.1078 227.495 93.9352 227.078 93.9352 226.644C93.9352 226.209 94.1078 225.793 94.415 225.485C94.7223 225.177 95.1391 225.004 95.5741 225.003H269.657C269.873 225.003 270.087 225.045 270.287 225.127C270.487 225.209 270.668 225.33 270.821 225.483C270.974 225.635 271.095 225.816 271.178 226.015C271.26 226.214 271.303 226.428 271.303 226.644C271.303 226.859 271.26 227.073 271.178 227.272C271.095 227.472 270.974 227.653 270.821 227.805C270.668 227.957 270.487 228.078 270.287 228.16C270.087 228.243 269.873 228.285 269.657 228.284Z" fill="white"/>
<path d="M269.657 241.408H95.5742C95.1386 241.408 94.7209 241.235 94.4129 240.927C94.1049 240.619 93.9319 240.202 93.9319 239.767C93.9319 239.332 94.1049 238.915 94.4129 238.607C94.7209 238.3 95.1386 238.127 95.5742 238.127H269.657C270.093 238.127 270.511 238.3 270.819 238.607C271.127 238.915 271.3 239.332 271.3 239.767C271.3 240.202 271.127 240.619 270.819 240.927C270.511 241.235 270.093 241.408 269.657 241.408Z" fill="white"/>
<path d="M225.47 252.328C225.345 252.328 225.226 252.377 225.138 252.465C225.05 252.553 225.001 252.672 225.001 252.796V265.213C225.001 265.337 225.05 265.457 225.138 265.544C225.226 265.632 225.345 265.682 225.47 265.682H268.956C269.08 265.682 269.199 265.632 269.287 265.544C269.375 265.457 269.424 265.337 269.425 265.213V252.796C269.424 252.672 269.375 252.553 269.287 252.465C269.199 252.377 269.08 252.328 268.956 252.328H225.47Z" fill="white"/>
<path d="M30.0287 184.638C30.0287 184.638 23.0907 213.898 31.5705 213.898C40.0503 213.898 60.0934 180.787 60.0934 180.787C60.0934 180.787 80.9073 170.007 72.4275 166.157C63.9478 162.307 53.1554 172.317 53.1554 172.317L40.7024 189.587L40.0503 180.787L30.0287 184.638Z" fill="#FFB9B9"/>
<path d="M46.2174 159.997L41.5921 155.377C41.5921 155.377 32.3414 160.767 31.5705 166.157C30.7996 171.547 26.9452 188.488 26.9452 188.488L41.2066 189.643L45.8319 182.712L46.2174 159.997Z" fill="#CFCCE0"/>
</g>
<defs>
<clipPath id="clip0">
<rect width="615" height="403" fill="white"/>
</clipPath>
</defs>
</svg>
