<svg width="648" height="415" viewBox="0 0 648 415" fill="none" xmlns="http://www.w3.org/2000/svg">
<g clip-path="url(#clip0)">
<path d="M648 0.367004H0.276611V415H648V0.367004Z" fill="#E6E6E6"/>
<path d="M629.479 52.3723H18.7981V390.47H629.479V52.3723Z" fill="white"/>
<path d="M647.723 0H0V27.5045H647.723V0Z" fill="#E7ECFF"/>
<path d="M20.4489 19.1595C23.2657 19.1595 25.5491 16.8772 25.5491 14.0618C25.5491 11.2464 23.2657 8.96402 20.4489 8.96402C17.6322 8.96402 15.3488 11.2464 15.3488 14.0618C15.3488 16.8772 17.6322 19.1595 20.4489 19.1595Z" fill="white"/>
<path d="M39.8079 19.1595C42.6247 19.1595 44.9081 16.8772 44.9081 14.0618C44.9081 11.2464 42.6247 8.96402 39.8079 8.96402C36.9912 8.96402 34.7078 11.2464 34.7078 14.0618C34.7078 16.8772 36.9912 19.1595 39.8079 19.1595Z" fill="white"/>
<path d="M59.167 19.1595C61.9837 19.1595 64.2671 16.8772 64.2671 14.0618C64.2671 11.2464 61.9837 8.96402 59.167 8.96402C56.3502 8.96402 54.0668 11.2464 54.0668 14.0618C54.0668 16.8772 56.3502 19.1595 59.167 19.1595Z" fill="white"/>
<path d="M213.375 80.1808H93.9354V209.701H213.375V80.1808Z" fill="#E6E6E6"/>
<path d="M383.857 80.1808H264.417V209.701H383.857V80.1808Z" fill="#E6E6E6"/>
<path d="M554.338 80.1808H434.898V209.701H554.338V80.1808Z" fill="#E6E6E6"/>
<path d="M213.375 233.145H93.9354V362.664H213.375V233.145Z" fill="#E6E6E6"/>
<path d="M383.857 233.145H264.417V362.664H383.857V233.145Z" fill="#E6E6E6"/>
<path d="M554.338 233.145H434.898V362.664H554.338V233.145Z" fill="#E6E6E6"/>
<path d="M140.33 158.497C151.48 158.497 160.52 149.462 160.52 138.317C160.52 127.172 151.48 118.137 140.33 118.137C129.179 118.137 120.14 127.172 120.14 138.317C120.14 149.462 129.179 158.497 140.33 158.497Z" fill="#FFB9B9"/>
<path d="M132.443 153.768C132.443 153.768 134.967 165.75 134.967 167.011C134.967 168.272 146.955 173.948 146.955 173.948L157.681 172.056L161.466 160.705C161.466 160.705 155.157 151.245 155.157 147.461L132.443 153.768Z" fill="#FFB9B9"/>
<path d="M122.821 122.058C122.821 122.058 129.231 108.176 141.518 111.38C153.804 114.583 160.748 119.389 161.283 124.194C161.817 129 161.015 136.208 161.015 136.208C161.015 136.208 159.68 126.33 151.133 128.466C142.586 130.601 129.231 129 129.231 129L127.095 148.221C127.095 148.221 124.691 144.751 122.02 146.886C119.349 149.022 114.274 126.33 122.821 122.058Z" fill="#2F2E41"/>
<path d="M204.368 204.85L199.325 182.143C196.795 174.574 190.491 168.274 190.491 168.274L159.377 157.336H159.369C159.308 160.085 158.381 162.745 156.719 164.937C155.058 167.128 152.747 168.74 150.115 169.542C140.647 172.688 134.129 162.084 134.129 162.084L107.828 182.143C107.828 182.143 99.6288 189.086 100.263 202.33L99.3909 209.701H206.794L204.368 204.85Z" fill="#E7ECFF"/>
<path d="M310.355 168.554C325.49 168.554 337.759 155.536 337.759 139.478C337.759 123.419 325.49 110.401 310.355 110.401C295.22 110.401 282.951 123.419 282.951 139.478C282.951 155.536 295.22 168.554 310.355 168.554Z" fill="#2F2E41"/>
<path d="M334.67 183.478C342.632 183.478 349.086 177.027 349.086 169.069C349.086 161.111 342.632 154.659 334.67 154.659C326.708 154.659 320.253 161.111 320.253 169.069C320.253 177.027 326.708 183.478 334.67 183.478Z" fill="#2F2E41"/>
<path d="M324.63 149.771L332.353 169.841L312.788 178.075L311.07 174.183L305.064 160.578L324.63 149.771Z" fill="#9F616A"/>
<path d="M309.184 162.893C318.71 162.893 326.432 155.175 326.432 145.653C326.432 136.132 318.71 128.413 309.184 128.413C299.658 128.413 291.935 136.132 291.935 145.653C291.935 155.175 299.658 162.893 309.184 162.893Z" fill="#9F616A"/>
<path d="M295.085 143.762C305.926 136.532 309.167 134.803 321.594 137.596L322.339 119.476L290.227 126.209L295.085 143.762Z" fill="#2F2E41"/>
<path d="M364.787 184.759L364.311 184.814C364.299 184.797 364.286 184.781 364.271 184.767C362.384 182.88 353.376 179.449 346.66 177.071H346.652C342.386 175.557 339.048 174.471 339.048 174.471L330.928 166.126C328.883 168.424 324.561 170.2 320.454 171.452C317.309 172.403 314.111 173.165 310.875 173.734H310.867L309.186 179.1C309.186 179.1 290.132 193.517 288.594 195.054H288.586V195.07C288.463 195.245 288.412 195.461 288.443 195.672V195.712C287.482 200.313 286.988 205 286.968 209.701H369.941V204.834C369.941 198.145 364.787 184.759 364.787 184.759Z" fill="#575A89"/>
<path d="M517.364 209.701H476.337L474.077 187.422L473.942 186.067L473.665 183.38L472.531 172.149L471.112 184.212L468.114 209.701H460.661L460.938 201.767L461.216 193.723L461.335 190.481L462.865 146.383C462.748 139.395 464.96 132.566 469.153 126.973C471.481 123.944 474.485 121.5 477.925 119.837C481.366 118.173 485.147 117.336 488.969 117.391C492.867 117.379 496.716 118.269 500.213 119.992C503.71 121.715 506.761 124.224 509.125 127.322C513.459 132.971 515.778 139.907 515.714 147.025L516.42 173.719L517.364 209.701Z" fill="#2F2E41"/>
<path d="M488.969 162.164C498.935 162.164 507.015 154.088 507.015 144.126C507.015 134.165 498.935 126.089 488.969 126.089C479.003 126.089 470.923 134.165 470.923 144.126C470.923 154.088 479.003 162.164 488.969 162.164Z" fill="#FBBEBE"/>
<path d="M479.946 157.01C479.946 157.01 485.102 174.403 479.946 179.556C474.79 184.71 473.501 186.642 473.501 186.642L488.324 206.612L514.104 175.047C514.104 175.047 496.058 169.894 500.57 155.722L479.946 157.01Z" fill="#FBBEBE"/>
<path d="M535.617 209.701H520.392L520.139 207.093L519.909 204.684L526.918 203.804L535.371 202.75L535.466 205.453L535.617 209.701Z" fill="#FBBEBE"/>
<path d="M536.661 205.324C536.661 205.324 534.083 189.219 532.15 182.777C530.216 176.336 528.283 176.336 528.283 176.336L528.282 176.334C526.007 174.059 520.535 173.655 516.42 173.719C513.534 173.75 511.314 174.004 511.314 174.004L488.326 198.24L476.749 182.857V182.849C475.707 182.93 474.674 183.108 473.665 183.38C472.797 183.601 471.944 183.879 471.112 184.212C467.526 185.743 464.222 187.862 461.335 190.481H461.327C459.662 191.979 458.678 193.081 458.678 193.081C456.129 198.379 454.207 203.957 452.953 209.701H526.617L526.784 206.388V206.381L536.661 205.324Z" fill="#E7ECFF"/>
<path d="M473.824 141.228C485.478 134.947 490.266 135.213 504.759 141.228L508.626 131.811C508.624 130.038 507.918 128.338 506.664 127.084C505.409 125.83 503.709 125.125 501.935 125.123H476.003C474.229 125.125 472.528 125.83 471.274 127.084C470.02 128.338 469.314 130.038 469.312 131.811L473.824 141.228Z" fill="#2F2E41"/>
<path d="M152.076 264.494C151.116 264.415 150.154 264.629 149.319 265.109C148.526 265.785 147.89 266.624 147.454 267.57C145.436 271.111 142.705 274.195 139.433 276.626C137.049 278.371 134.019 280.547 134.427 283.765C134.642 284.828 135.035 285.847 135.589 286.779C137.787 291.215 143.787 294.644 143.197 299.706C145.382 296.05 142.46 294.243 144.644 290.588C145.685 288.847 147.492 286.882 149.063 287.975C149.589 288.341 149.934 288.998 150.481 289.319C151.788 290.085 153.178 288.62 154.335 287.582C158.323 284.004 163.995 284.941 168.958 286.056C171.301 286.583 173.874 287.273 175.26 289.512C177.081 292.454 173.529 295.633 172.632 298.96C172.559 299.244 172.555 299.541 172.622 299.826C172.689 300.111 172.823 300.376 173.015 300.597C173.206 300.819 173.448 300.991 173.721 301.099C173.993 301.207 174.287 301.247 174.579 301.216C176.068 301.07 177.832 300.949 177.92 300.296C179.794 300.363 182.09 300.151 182.892 298.201C183.138 297.429 183.267 296.625 183.277 295.816C183.572 292.54 184.963 289.552 185.884 286.434C186.806 283.317 187.206 279.663 185.651 276.899C185.096 275.979 184.41 275.146 183.614 274.424C174.79 265.889 163.188 264.481 152.076 264.494Z" fill="#2F2E41"/>
<path d="M145.116 306.1C145.116 306.1 147.035 322.085 139.999 323.364C132.962 324.643 146.396 346.382 146.396 346.382L178.381 350.219L170.705 324.643C170.705 324.643 165.587 322.724 168.786 309.936C171.984 297.148 145.116 306.1 145.116 306.1Z" fill="#9F616A"/>
<path d="M159.51 316.65C170.109 316.65 178.701 308.062 178.701 297.468C178.701 286.874 170.109 278.286 159.51 278.286C148.911 278.286 140.318 286.874 140.318 297.468C140.318 308.062 148.911 316.65 159.51 316.65Z" fill="#9F616A"/>
<path d="M126.478 362.664C129.871 349.326 134.558 331.358 134.558 331.358C134.558 331.358 136.381 331.731 139.252 332.151C143.445 332.775 147.67 333.159 151.907 333.3C157.331 333.451 163.04 333.094 167.456 331.564C169.122 331.03 170.677 330.201 172.048 329.115C172.625 328.651 173.142 328.116 173.586 327.522C181.262 317.29 184.457 356.292 184.457 356.292L185.052 362.664L126.478 362.664Z" fill="#E7ECFF"/>
<path d="M187.795 403.877C187.542 403.877 187.288 403.885 187.034 403.901L187.399 403.22C187.526 403.434 187.653 403.656 187.795 403.877Z" fill="#FFB8B8"/>
<path d="M153.011 269.513C152.237 269.455 151.463 269.605 150.767 269.948C150.137 270.407 149.619 271.001 149.248 271.687C147.542 274.252 145.318 276.432 142.719 278.088C140.778 279.321 138.312 280.859 138.644 283.134C138.824 283.896 139.145 284.618 139.589 285.264C141.385 288.431 142.1 292.097 141.626 295.706L146.961 287.956C147.808 286.725 149.279 285.336 150.558 286.109C150.986 286.368 151.267 286.832 151.713 287.059C152.776 287.6 153.908 286.565 154.85 285.831C158.096 283.302 162.713 283.965 166.753 284.753C168.661 285.125 170.756 285.613 171.883 287.195C173.757 289.824 171.8 293.623 172.894 296.66C173.2 296.446 173.46 296.172 173.659 295.856C173.857 295.539 173.99 295.186 174.049 294.817C175.574 294.865 177.443 294.715 178.097 293.336C178.295 292.796 178.401 292.226 178.41 291.651C178.65 289.336 179.782 287.224 180.532 285.02C181.282 282.817 181.608 280.234 180.343 278.281C179.879 277.619 179.321 277.029 178.684 276.531C171.501 270.498 162.056 269.504 153.011 269.513Z" fill="#2F2E41"/>
<path d="M151.193 331.992C146.816 326.991 144.216 319.7 144.097 319.375V319.367C144.097 319.367 137.119 315.372 135.2 319.208C133.281 323.044 115.369 332.634 113.45 332.634C113.434 332.641 113.418 332.647 113.402 332.65C112.641 332.904 103.11 336.367 100.66 349.262C99.9941 353.7 99.6391 358.178 99.597 362.664H151.764C152.304 357.013 152.708 351.727 152.867 347.162C153.097 340.798 152.874 335.852 151.907 333.3C151.752 332.824 151.51 332.38 151.193 331.992Z" fill="#2F2E41"/>
<path d="M196.05 335.591C196.018 335.44 195.994 335.313 195.971 335.194C195.886 334.854 195.741 334.532 195.542 334.243C195.538 334.236 195.535 334.228 195.535 334.22C191.839 328.497 168.075 320.619 168.075 320.619L167.187 323.686C167.187 323.686 167.298 326.714 167.457 331.564C167.615 336.106 167.806 342.24 167.988 348.977C168.115 353.376 168.226 358.036 168.329 362.664H203.876C201.884 353.473 199.27 344.428 196.05 335.591Z" fill="#2F2E41"/>
<path d="M528.639 362.664L531.359 349.381L533.889 348.311L533.904 348.319C534.134 348.406 536.886 349.571 536.886 353.986C536.886 354.874 536.751 358.068 536.529 362.664H528.639Z" fill="#575A89"/>
<path d="M500.072 316.268C512.27 316.268 522.16 306.383 522.16 294.19C522.16 281.998 512.27 272.113 500.072 272.113C487.873 272.113 477.984 281.998 477.984 294.19C477.984 306.383 487.873 316.268 500.072 316.268Z" fill="#FFB8B8"/>
<path d="M513.877 307.069L512.036 344.784L483.506 328.226L487.187 307.069H513.877Z" fill="#FFB8B8"/>
<path d="M522.161 346.623L520.289 362.664H505.311L489.056 331.446L484.473 322.656L482.276 321.222L484.821 320.643L486.828 322.093L509.276 338.349L512.875 327.546L512.971 327.269L513.875 324.55L522.161 346.623Z" fill="#E7ECFF"/>
<path d="M486.727 272.573C486.727 272.573 489.488 258.775 505.134 261.535L503.293 262.454C503.293 262.454 518.018 260.615 516.177 268.894C516.177 268.894 528.142 276.253 525.381 284.532C523.757 289.33 522.526 294.252 521.699 299.25L518.938 296.49C518.938 296.49 516.177 278.092 499.612 279.932C487.187 281.312 482.125 287.176 480.831 291.402C480.235 293.389 479.475 295.323 478.558 297.183L477.524 297.41C477.524 297.41 472.002 277.173 486.727 272.573Z" fill="#2F2E41"/>
<path d="M533.904 348.319L533.889 348.311L522.161 337.421V330.067L513.106 322.933L512.971 327.269L512.035 356.744L496.977 336.042L486.828 322.093L485.004 319.597L485.448 317.259L479.826 323.623L459.479 338.88L457.735 340.188C455.734 342.189 453.889 344.34 452.216 346.623C451.669 347.439 449.179 353.938 445.936 362.664H536.529C536.751 358.068 536.886 354.874 536.886 353.986C536.886 349.571 534.134 348.406 533.904 348.319Z" fill="#2F2E41"/>
<path d="M322.319 269.94C307.352 269.94 295.219 283.399 295.219 300.001V321.095H301.709L305.467 313.28L304.527 321.095H346.246L349.662 313.99L348.808 321.095H353.505V304.533C353.505 285.428 339.543 269.94 322.319 269.94Z" fill="#2F2E41"/>
<path d="M300.448 362.664H282.821L282.654 348.295C282.646 348.145 282.646 348.002 282.646 347.851L286.175 343.881L286.238 343.809L299.71 352.337L300.448 362.664Z" fill="#D0CDE1"/>
<path d="M319.921 318.148C330.577 318.148 339.215 309.514 339.215 298.864C339.215 288.214 330.577 279.58 319.921 279.58C309.266 279.58 300.628 288.214 300.628 298.864C300.628 309.514 309.266 318.148 319.921 318.148Z" fill="#FBBEBE"/>
<path d="M308.86 310.434C308.86 310.434 314.519 339.746 311.947 342.831C309.375 345.916 339.215 337.174 339.215 337.174C339.215 337.174 329.439 317.119 334.584 305.806L308.86 310.434Z" fill="#FBBEBE"/>
<path d="M361.203 330.257H361.195C360.74 329.296 359.955 328.531 358.983 328.101C355.2 326.508 351.941 325.287 349.261 324.36C344.521 322.734 339.349 322.894 334.719 324.812C334.267 324.994 333.823 325.192 333.387 325.414C333.387 325.414 314.523 329.004 312.279 328.553C312.112 328.521 311.938 328.497 311.771 328.481C311.432 328.433 311.091 328.404 310.748 328.394C306.359 328.19 302.005 329.27 298.22 331.501C292.027 335.091 282.845 341.456 282.654 347.653L282.48 347.851L282.654 362.664H365.453C365.619 348.47 365.715 337.802 365.715 337.081C365.715 334.838 361.203 330.257 361.203 330.257Z" fill="#E7ECFF"/>
<path d="M330.024 278.221C328.719 276.471 327.029 275.044 325.084 274.052C323.14 273.06 320.992 272.529 318.809 272.501H318.277C308.018 272.501 299.702 281.779 299.702 293.225V293.225H303.139L303.695 289.001L304.508 293.225H324.896L326.604 289.652L326.176 293.225H330.187C332.059 302.515 329.37 311.805 322.12 321.095H328.952L332.368 313.949L331.514 321.095H344.538L347.1 304.659C347.1 292.349 339.944 281.911 330.024 278.221Z" fill="#2F2E41"/>
<path d="M333.768 279.952C339.374 279.952 343.919 275.409 343.919 269.806C343.919 264.203 339.374 259.66 333.768 259.66C328.162 259.66 323.618 264.203 323.618 269.806C323.618 275.409 328.162 279.952 333.768 279.952Z" fill="#2F2E41"/>
</g>
<defs>
<clipPath id="clip0">
<rect width="648" height="415" fill="white"/>
</clipPath>
</defs>
</svg>
