<svg width="337" height="230" viewBox="0 0 337 230" fill="none" xmlns="http://www.w3.org/2000/svg">
<path d="M175.5 8.40359V8.40452V108.776C175.5 113.045 171.161 116.68 165.572 116.68H81.4802C80.6017 116.68 79.7552 117.01 79.109 117.606L53.7242 140.988C52.0012 142.575 49.2376 141.134 49.5532 138.812L52.0226 120.652C52.3083 118.551 50.6749 116.68 48.5545 116.68H10.4277C4.83905 116.68 0.5 113.045 0.5 108.776V8.40452C0.5 4.13458 4.83905 0.5 10.4277 0.5H165.546C165.558 0.500935 165.571 0.501403 165.584 0.501406C171.166 0.502739 175.508 4.13704 175.5 8.40359Z" fill="#F99BA7" stroke="white"/>
<path d="M74.4983 55.104C74.4983 55.776 74.1863 56.112 73.5623 56.112H34.6823C32.5703 56.112 31.1303 55.776 30.3623 55.104C29.5943 54.384 29.2103 53.016 29.2103 51V34.08C29.2103 32.064 29.5943 30.72 30.3623 30.048C31.1303 29.328 32.5703 28.968 34.6823 28.968H73.0583C73.6823 28.968 73.9943 29.28 73.9943 29.904V32.28C73.9943 32.952 73.6823 33.288 73.0583 33.288H35.9062C35.2343 33.288 34.7783 33.432 34.5383 33.72C34.2983 34.008 34.1783 34.512 34.1783 35.232V49.848C34.1783 50.52 34.2983 51.024 34.5383 51.36C34.7783 51.648 35.2343 51.792 35.9062 51.792H73.5623C74.1863 51.792 74.4983 52.104 74.4983 52.728V55.104ZM50.0183 93.48C49.7783 93.48 49.5623 93.36 49.3703 93.12C49.1783 92.928 49.0823 92.688 49.0823 92.4V69.576H21.1463C20.8583 69.576 20.5943 69.48 20.3543 69.288C20.1623 69.096 20.0663 68.88 20.0663 68.64V66.192C20.0663 65.904 20.1623 65.688 20.3543 65.544C20.5943 65.352 20.8583 65.256 21.1463 65.256H82.3463C82.5863 65.256 82.8263 65.352 83.0663 65.544C83.3063 65.688 83.4263 65.904 83.4263 66.192V68.64C83.4263 68.88 83.3063 69.096 83.0663 69.288C82.8263 69.48 82.5863 69.576 82.3463 69.576H54.0503V92.4C54.0503 92.688 53.9543 92.928 53.7623 93.12C53.6183 93.36 53.4023 93.48 53.1143 93.48H50.0183ZM103.329 69.504V63.456H118.953V69.504H103.329ZM103.329 53.736H118.953V59.712H103.329V53.736ZM140.625 53.736V59.712H124.137V53.736H140.625ZM140.625 69.504H124.137V63.456H140.625V69.504ZM153.081 78.864H124.137V73.464H145.881V49.776H124.137V44.736H143.001V40.56H124.137V35.16H146.457V44.448H151.785V30.48H91.6652V44.448H96.8492V35.16H118.953V40.56H100.305V44.736H118.953V49.776H98.2892V73.464H118.953V78.864H90.4412V83.688H118.953V92.616H124.137V83.688H153.081V78.864Z" fill="white"/>
<path d="M336.5 43.4036V43.4045V143.776C336.5 148.045 332.161 151.68 326.572 151.68H242.48C241.602 151.68 240.755 152.01 240.109 152.606L214.724 175.988C213.001 177.575 210.238 176.134 210.553 173.812L213.023 155.652C213.308 153.551 211.675 151.68 209.554 151.68H171.428C165.839 151.68 161.5 148.045 161.5 143.776V43.4045C161.5 39.1346 165.839 35.5 171.428 35.5H326.546C326.558 35.5009 326.571 35.5014 326.584 35.5014C332.166 35.5027 336.508 39.137 336.5 43.4036Z" fill="#F99BA7" stroke="white"/>
<path d="M235.498 90.104C235.498 90.776 235.186 91.112 234.562 91.112H195.682C193.57 91.112 192.13 90.776 191.362 90.104C190.594 89.384 190.21 88.016 190.21 86V69.08C190.21 67.064 190.594 65.72 191.362 65.048C192.13 64.328 193.57 63.968 195.682 63.968H234.058C234.682 63.968 234.994 64.28 234.994 64.904V67.28C234.994 67.952 234.682 68.288 234.058 68.288H196.906C196.234 68.288 195.778 68.432 195.538 68.72C195.298 69.008 195.178 69.512 195.178 70.232V84.848C195.178 85.52 195.298 86.024 195.538 86.36C195.778 86.648 196.234 86.792 196.906 86.792H234.562C235.186 86.792 235.498 87.104 235.498 87.728V90.104ZM211.018 128.48C210.778 128.48 210.562 128.36 210.37 128.12C210.178 127.928 210.082 127.688 210.082 127.4V104.576H182.146C181.858 104.576 181.594 104.48 181.354 104.288C181.162 104.096 181.066 103.88 181.066 103.64V101.192C181.066 100.904 181.162 100.688 181.354 100.544C181.594 100.352 181.858 100.256 182.146 100.256H243.346C243.586 100.256 243.826 100.352 244.066 100.544C244.306 100.688 244.426 100.904 244.426 101.192V103.64C244.426 103.88 244.306 104.096 244.066 104.288C243.826 104.48 243.586 104.576 243.346 104.576H215.05V127.4C215.05 127.688 214.954 127.928 214.762 128.12C214.618 128.36 214.402 128.48 214.114 128.48H211.018ZM264.329 104.504V98.456H279.953V104.504H264.329ZM264.329 88.736H279.953V94.712H264.329V88.736ZM301.625 88.736V94.712H285.137V88.736H301.625ZM301.625 104.504H285.137V98.456H301.625V104.504ZM314.081 113.864H285.137V108.464H306.881V84.776H285.137V79.736H304.001V75.56H285.137V70.16H307.457V79.448H312.785V65.48H252.665V79.448H257.849V70.16H279.953V75.56H261.305V79.736H279.953V84.776H259.289V108.464H279.953V113.864H251.441V118.688H279.953V127.616H285.137V118.688H314.081V113.864Z" fill="white"/>
<path d="M15.834 214.526C15.834 212.342 16.38 210.392 17.472 208.676C18.564 206.908 20.098 205.426 22.074 204.23C24.05 202.982 26.416 202.046 29.172 201.422C31.928 200.746 34.996 200.408 38.376 200.408C41.496 200.408 44.408 200.746 47.112 201.422C49.868 202.046 52.26 202.956 54.288 204.152C56.368 205.348 58.006 206.83 59.202 208.598C60.398 210.314 60.996 212.29 60.996 214.526C60.996 216.762 60.398 218.764 59.202 220.532C58.006 222.3 56.368 223.782 54.288 224.978C52.26 226.226 49.868 227.162 47.112 227.786C44.408 228.462 41.496 228.8 38.376 228.8C34.996 228.8 31.928 228.462 29.172 227.786C26.416 227.162 24.05 226.226 22.074 224.978C20.098 223.782 18.564 222.3 17.472 220.532C16.38 218.764 15.834 216.762 15.834 214.526ZM21.372 214.76C21.372 216.268 21.788 217.62 22.62 218.816C23.452 219.96 24.596 220.922 26.052 221.702C27.56 222.482 29.354 223.08 31.434 223.496C33.514 223.912 35.802 224.12 38.298 224.12C40.534 224.12 42.692 223.912 44.772 223.496C46.852 223.08 48.672 222.482 50.232 221.702C51.844 220.922 53.118 219.96 54.054 218.816C54.99 217.62 55.458 216.268 55.458 214.76C55.458 213.2 54.99 211.822 54.054 210.626C53.118 209.43 51.844 208.442 50.232 207.662C48.672 206.83 46.852 206.206 44.772 205.79C42.692 205.322 40.534 205.088 38.298 205.088C35.802 205.088 33.514 205.322 31.434 205.79C29.354 206.206 27.56 206.83 26.052 207.662C24.596 208.442 23.452 209.43 22.62 210.626C21.788 211.822 21.372 213.2 21.372 214.76ZM28.548 159.38C28.548 163.176 28.158 166.712 27.378 169.988C28.002 172.172 28.86 174.252 29.952 176.228C31.096 178.204 32.422 180.05 33.93 181.766C35.438 183.482 37.076 185.042 38.844 186.446C40.664 187.798 42.562 188.942 44.538 189.878C44.85 190.034 44.98 190.268 44.928 190.58C44.928 190.84 44.876 191.074 44.772 191.282L43.134 193.856C42.978 194.116 42.796 194.298 42.588 194.402C42.38 194.506 42.042 194.428 41.574 194.168C40.378 193.544 39 192.712 37.44 191.672C35.932 190.58 34.398 189.306 32.838 187.85C31.278 186.394 29.796 184.808 28.392 183.092C26.988 181.324 25.818 179.504 24.882 177.632C23.166 181.584 20.852 185.172 17.94 188.396C15.028 191.62 11.622 194.506 7.722 197.054C7.462 197.21 7.176 197.314 6.864 197.366C6.552 197.418 6.292 197.314 6.084 197.054L4.134 194.48C3.978 194.272 3.952 194.012 4.056 193.7C4.16 193.388 4.342 193.154 4.602 192.998C10.79 189.202 15.444 184.418 18.564 178.646C21.684 172.874 23.192 166.426 23.088 159.302C23.088 158.47 23.4 158.054 24.024 158.054L27.69 158.288C28.262 158.288 28.548 158.652 28.548 159.38ZM60.06 198.926C60.06 199.654 59.696 200.018 58.968 200.018H55.77C55.042 200.018 54.678 199.654 54.678 198.926V157.664C54.678 156.936 55.042 156.572 55.77 156.572H58.968C59.696 156.572 60.06 156.936 60.06 157.664V176.462H70.824C71.136 176.462 71.396 176.566 71.604 176.774C71.864 176.93 71.994 177.164 71.994 177.476V180.128C71.994 180.388 71.864 180.622 71.604 180.83C71.396 181.038 71.136 181.142 70.824 181.142H60.06V198.926ZM86.2235 207.584C86.2235 205.4 86.6395 203.944 87.4715 203.216C88.3035 202.436 89.8635 202.046 92.1515 202.046H124.834C126.082 202.046 127.07 202.124 127.798 202.28C128.578 202.436 129.176 202.722 129.592 203.138C130.06 203.554 130.372 204.126 130.528 204.854C130.684 205.582 130.762 206.492 130.762 207.584V222.326C130.762 224.51 130.346 225.966 129.514 226.694C128.682 227.474 127.122 227.864 124.834 227.864H92.1515C90.9035 227.864 89.8895 227.786 89.1095 227.63C88.3815 227.474 87.7835 227.162 87.3155 226.694C86.8995 226.278 86.6135 225.706 86.4575 224.978C86.3015 224.302 86.2235 223.418 86.2235 222.326V207.584ZM93.4775 206.726C92.7495 206.726 92.2555 206.882 91.9955 207.194C91.7355 207.454 91.6055 207.974 91.6055 208.754V221.156C91.6055 221.936 91.7355 222.456 91.9955 222.716C92.2555 223.028 92.7495 223.184 93.4775 223.184H123.508C124.236 223.184 124.73 223.028 124.99 222.716C125.25 222.456 125.38 221.936 125.38 221.156V208.754C125.38 207.974 125.25 207.454 124.99 207.194C124.73 206.882 124.236 206.726 123.508 206.726H93.4775ZM120.232 189.176C120.388 189.852 120.076 190.294 119.296 190.502C117.58 190.918 115.292 191.334 112.432 191.75C109.624 192.166 106.608 192.53 103.384 192.842C100.16 193.154 96.9095 193.414 93.6335 193.622C90.4095 193.778 87.5235 193.83 84.9755 193.778C82.6355 193.726 81.0235 193.18 80.1395 192.14C79.3075 191.1 78.8915 189.488 78.8915 187.304V165.386C78.8915 163.202 79.3075 161.746 80.1395 161.018C80.9715 160.29 82.5315 159.926 84.8195 159.926H111.418C112.094 159.926 112.432 160.238 112.432 160.862V163.67C112.432 164.294 112.094 164.606 111.418 164.606H85.8335C85.1055 164.606 84.6635 164.71 84.5075 164.918C84.3515 165.074 84.2735 165.542 84.2735 166.322V186.914C84.2735 187.694 84.4035 188.24 84.6635 188.552C84.9235 188.812 85.4175 188.942 86.1455 188.942C88.7975 188.942 91.5275 188.89 94.3355 188.786C97.1435 188.63 99.9255 188.422 102.682 188.162C105.438 187.902 108.142 187.59 110.794 187.226C113.446 186.862 115.942 186.446 118.282 185.978C118.802 185.874 119.14 185.9 119.296 186.056C119.504 186.212 119.66 186.446 119.764 186.758L120.232 189.176ZM130.684 196.976C130.684 197.704 130.32 198.068 129.592 198.068H126.394C125.666 198.068 125.302 197.704 125.302 196.976V157.664C125.302 156.936 125.666 156.572 126.394 156.572H129.592C130.32 156.572 130.684 156.936 130.684 157.664V176.228H141.448C141.76 176.228 142.02 176.332 142.228 176.54C142.488 176.696 142.618 176.93 142.618 177.242V179.894C142.618 180.154 142.488 180.388 142.228 180.596C142.02 180.804 141.76 180.908 141.448 180.908H130.684V196.976ZM179.311 191.828C179.571 191.828 179.805 191.958 180.013 192.218C180.221 192.426 180.325 192.686 180.325 192.998V211.484H211.057C211.317 211.484 211.577 211.588 211.837 211.796C212.097 211.952 212.227 212.186 212.227 212.498V215.15C212.227 215.41 212.097 215.644 211.837 215.852C211.577 216.06 211.317 216.164 211.057 216.164H144.757C144.445 216.164 144.159 216.06 143.899 215.852C143.691 215.644 143.587 215.41 143.587 215.15V212.498C143.587 212.186 143.691 211.952 143.899 211.796C144.159 211.588 144.445 211.484 144.757 211.484H174.943V192.998C174.943 192.686 175.021 192.426 175.177 192.218C175.385 191.958 175.645 191.828 175.957 191.828H179.311ZM180.637 161.408C180.533 162.084 180.429 162.76 180.325 163.436C180.221 164.112 180.065 164.788 179.857 165.464C179.961 166.036 180.091 166.582 180.247 167.102C180.403 167.622 180.585 168.064 180.793 168.428C182.041 170.924 183.549 173.264 185.317 175.448C187.137 177.58 189.139 179.53 191.323 181.298C193.507 183.066 195.847 184.626 198.343 185.978C200.891 187.278 203.491 188.318 206.143 189.098C206.455 189.202 206.663 189.41 206.767 189.722C206.871 190.034 206.871 190.32 206.767 190.58L205.519 193.232C205.363 193.492 205.181 193.7 204.973 193.856C204.817 194.012 204.479 193.986 203.959 193.778C198.135 191.698 192.909 188.812 188.281 185.12C183.705 181.428 180.039 177.138 177.283 172.25C174.839 177.138 171.407 181.584 166.987 185.588C162.567 189.54 157.523 192.582 151.855 194.714C151.023 195.026 150.503 194.922 150.295 194.402L148.891 191.672C148.787 191.412 148.761 191.152 148.813 190.892C148.917 190.58 149.125 190.346 149.437 190.19C156.665 187.382 162.515 183.456 166.987 178.412C171.511 173.316 174.267 167.466 175.255 160.862C175.307 160.238 175.645 159.926 176.269 159.926L179.779 160.316C180.403 160.42 180.689 160.784 180.637 161.408Z" fill="#F99BA7"/>
<path d="M17.472 208.676L18.1048 209.079L18.1101 209.07L17.472 208.676ZM22.074 204.23L22.4624 204.872L22.4685 204.868L22.4745 204.864L22.074 204.23ZM29.172 201.422L29.3376 202.154L29.3507 202.15L29.172 201.422ZM47.112 201.422L46.9301 202.15L46.9382 202.152L46.9464 202.153L47.112 201.422ZM54.288 204.152L53.907 204.798L53.9142 204.802L54.288 204.152ZM59.202 208.598L58.5807 209.018L58.5867 209.027L59.202 208.598ZM59.202 220.532L59.8232 220.952L59.202 220.532ZM54.288 224.978L53.9142 224.328L53.9045 224.333L53.8949 224.339L54.288 224.978ZM47.112 227.786L46.9464 227.055L46.9382 227.056L46.9301 227.058L47.112 227.786ZM29.172 227.786L29.3507 227.057L29.3376 227.055L29.172 227.786ZM22.074 224.978L22.4745 224.344L22.4685 224.34L22.4624 224.336L22.074 224.978ZM17.472 220.532L16.8339 220.926L17.472 220.532ZM22.62 218.816L22.0043 219.244L22.0088 219.251L22.0134 219.257L22.62 218.816ZM26.052 221.702L25.6978 222.363L25.7074 222.368L26.052 221.702ZM31.434 223.496L31.5811 222.761L31.434 223.496ZM44.772 223.496L44.6249 222.761L44.772 223.496ZM50.232 221.702L49.9053 221.027L49.8966 221.031L50.232 221.702ZM54.054 218.816L54.6345 219.291L54.6396 219.285L54.6446 219.278L54.054 218.816ZM54.054 210.626L53.4634 211.088L54.054 210.626ZM50.232 207.662L49.8791 208.324L49.8921 208.331L49.9053 208.337L50.232 207.662ZM44.772 205.79L44.6074 206.522L44.6161 206.524L44.6249 206.525L44.772 205.79ZM31.434 205.79L31.5811 206.525L31.5899 206.524L31.5986 206.522L31.434 205.79ZM26.052 207.662L26.4062 208.323L26.4143 208.319L26.052 207.662ZM22.62 210.626L23.2357 211.054L22.62 210.626ZM27.378 169.988L26.6484 169.814L26.6029 170.005L26.6569 170.194L27.378 169.988ZM29.952 176.228L29.2956 176.591L29.2992 176.597L29.3029 176.604L29.952 176.228ZM33.93 181.766L34.4934 181.271L33.93 181.766ZM38.844 186.446L38.3776 187.033L38.3871 187.041L38.3968 187.048L38.844 186.446ZM44.538 189.878L44.8734 189.207L44.8663 189.204L44.8591 189.2L44.538 189.878ZM44.928 190.58L44.1882 190.457L44.178 190.518V190.58H44.928ZM44.772 191.282L45.4047 191.685L45.4255 191.652L45.4428 191.617L44.772 191.282ZM43.134 193.856L42.5013 193.453L42.496 193.462L42.4909 193.47L43.134 193.856ZM42.588 194.402L42.2526 193.731H42.2526L42.588 194.402ZM41.574 194.168L41.9382 193.512L41.9296 193.508L41.9209 193.503L41.574 194.168ZM37.44 191.672L37.0001 192.279L37.0119 192.288L37.024 192.296L37.44 191.672ZM28.392 183.092L27.8046 183.558L27.8115 183.567L28.392 183.092ZM24.882 177.632L25.5528 177.297L24.8341 175.859L24.1941 177.333L24.882 177.632ZM17.94 188.396L17.3834 187.893L17.94 188.396ZM7.722 197.054L8.10787 197.697L8.12019 197.69L8.13221 197.682L7.722 197.054ZM6.864 197.366L6.9873 198.106L6.9873 198.106L6.864 197.366ZM6.084 197.054L5.48618 197.507L5.49216 197.515L5.49835 197.523L6.084 197.054ZM4.134 194.48L3.53399 194.93L3.53618 194.933L4.134 194.48ZM4.056 193.7L3.34449 193.463L3.34449 193.463L4.056 193.7ZM4.602 192.998L4.98789 193.641L4.99417 193.637L4.602 192.998ZM18.564 178.646L17.9042 178.289L18.564 178.646ZM23.088 159.302H22.3379L22.3381 159.313L23.088 159.302ZM24.024 158.054L24.0718 157.306L24.0479 157.304H24.024V158.054ZM27.69 158.288L27.6422 159.036L27.6661 159.038H27.69V158.288ZM60.06 176.462H59.31V177.212H60.06V176.462ZM71.604 176.774L71.0737 177.304L71.139 177.37L71.2181 177.417L71.604 176.774ZM71.604 180.83L71.1355 180.244L71.103 180.27L71.0737 180.3L71.604 180.83ZM60.06 181.142V180.392H59.31V181.142H60.06ZM16.584 214.526C16.584 212.474 17.095 210.665 18.1047 209.079L16.8393 208.273C15.665 210.119 15.084 212.21 15.084 214.526H16.584ZM18.1101 209.07C19.1329 207.414 20.5765 206.013 22.4624 204.872L21.6856 203.588C19.6195 204.839 17.9951 206.402 16.8339 208.282L18.1101 209.07ZM22.4745 204.864C24.365 203.67 26.648 202.762 29.3376 202.153L29.0064 200.691C26.184 201.33 23.735 202.294 21.6735 203.596L22.4745 204.864ZM29.3507 202.15C32.0383 201.491 35.0451 201.158 38.376 201.158V199.658C34.9469 199.658 31.8177 200.001 28.9933 200.694L29.3507 202.15ZM38.376 201.158C41.4419 201.158 44.2922 201.49 46.9301 202.15L47.2939 200.694C44.5238 200.002 41.5501 199.658 38.376 199.658V201.158ZM46.9464 202.153C49.6413 202.764 51.9578 203.648 53.907 204.798L54.669 203.506C52.5622 202.264 50.0947 201.328 47.2776 200.691L46.9464 202.153ZM53.9142 204.802C55.9076 205.948 57.4562 207.356 58.5808 209.018L59.8232 208.178C58.5558 206.304 56.8284 204.748 54.6619 203.502L53.9142 204.802ZM58.5867 209.027C59.6888 210.608 60.246 212.432 60.246 214.526H61.746C61.746 212.148 61.1072 210.02 59.8173 208.169L58.5867 209.027ZM60.246 214.526C60.246 216.62 59.6887 218.474 58.5808 220.112L59.8232 220.952C61.1073 219.054 61.746 216.904 61.746 214.526H60.246ZM58.5808 220.112C57.4562 221.774 55.9076 223.182 53.9142 224.328L54.6619 225.628C56.8284 224.382 58.5558 222.826 59.8232 220.952L58.5808 220.112ZM53.8949 224.339C51.9488 225.537 49.6366 226.445 46.9464 227.055L47.2776 228.517C50.0994 227.879 52.5712 226.915 54.6811 225.617L53.8949 224.339ZM46.9301 227.058C44.2922 227.718 41.4419 228.05 38.376 228.05V229.55C41.5501 229.55 44.5238 229.206 47.2939 228.514L46.9301 227.058ZM38.376 228.05C35.0451 228.05 32.0383 227.717 29.3507 227.058L28.9933 228.514C31.8177 229.207 34.9469 229.55 38.376 229.55V228.05ZM29.3376 227.055C26.648 226.446 24.365 225.538 22.4745 224.344L21.6735 225.612C23.735 226.914 26.184 227.878 29.0064 228.517L29.3376 227.055ZM22.4624 224.336C20.5765 223.195 19.1329 221.794 18.1101 220.138L16.8339 220.926C17.9951 222.806 19.6195 224.369 21.6856 225.62L22.4624 224.336ZM18.1101 220.138C17.0968 218.497 16.584 216.634 16.584 214.526H15.084C15.084 216.89 15.6632 219.031 16.8339 220.926L18.1101 220.138ZM20.622 214.76C20.622 216.415 21.0817 217.918 22.0043 219.244L23.2357 218.388C22.4943 217.322 22.122 216.121 22.122 214.76H20.622ZM22.0134 219.257C22.9222 220.507 24.1588 221.539 25.6978 222.363L26.4062 221.041C25.0332 220.305 23.9818 219.413 23.2266 218.375L22.0134 219.257ZM25.7074 222.368C27.2909 223.187 29.1545 223.805 31.2869 224.231L31.5811 222.761C29.5535 222.355 27.8291 221.777 26.3966 221.036L25.7074 222.368ZM31.2869 224.231C33.4229 224.659 35.761 224.87 38.298 224.87V223.37C35.843 223.37 33.6051 223.165 31.5811 222.761L31.2869 224.231ZM38.298 224.87C40.5807 224.87 42.7881 224.658 44.9191 224.231L44.6249 222.761C42.5959 223.166 40.4873 223.37 38.298 223.37V224.87ZM44.9191 224.231C47.0509 223.805 48.9366 223.188 50.5674 222.373L49.8966 221.031C48.4074 221.776 46.6531 222.355 44.6249 222.761L44.9191 224.231ZM50.5587 222.377C52.2484 221.559 53.6164 220.535 54.6345 219.291L53.4735 218.341C52.6196 219.385 51.4396 220.285 49.9053 221.027L50.5587 222.377ZM54.6446 219.278C55.6831 217.951 56.208 216.437 56.208 214.76H54.708C54.708 216.099 54.2969 217.289 53.4634 218.354L54.6446 219.278ZM56.208 214.76C56.208 213.037 55.6869 211.496 54.6446 210.164L53.4634 211.088C54.2931 212.148 54.708 213.363 54.708 214.76H56.208ZM54.6446 210.164C53.6265 208.863 52.2554 207.808 50.5587 206.987L49.9053 208.337C51.4326 209.076 52.6095 209.997 53.4634 211.088L54.6446 210.164ZM50.5849 207C48.9489 206.128 47.0571 205.482 44.9191 205.055L44.6249 206.525C46.6469 206.93 48.3951 207.532 49.8791 208.324L50.5849 207ZM44.9366 205.058C42.8 204.578 40.5867 204.338 38.298 204.338V205.838C40.4813 205.838 42.584 206.066 44.6074 206.522L44.9366 205.058ZM38.298 204.338C35.7558 204.338 33.4116 204.576 31.2694 205.058L31.5986 206.522C33.6164 206.068 35.8482 205.838 38.298 205.838V204.338ZM31.2869 205.055C29.1483 205.482 27.2785 206.129 25.6897 207.005L26.4143 208.319C27.8416 207.531 29.5597 206.93 31.5811 206.525L31.2869 205.055ZM25.6978 207.001C24.1516 207.829 22.9125 208.892 22.0043 210.198L23.2357 211.054C23.9915 209.968 25.0404 209.055 26.4062 208.323L25.6978 207.001ZM22.0043 210.198C21.0786 211.528 20.622 213.058 20.622 214.76H22.122C22.122 213.342 22.4974 212.116 23.2357 211.054L22.0043 210.198ZM27.798 159.38C27.798 163.125 27.4133 166.602 26.6484 169.814L28.1076 170.162C28.9027 166.822 29.298 163.227 29.298 159.38H27.798ZM26.6569 170.194C27.2963 172.432 28.176 174.565 29.2956 176.591L30.6084 175.865C29.544 173.939 28.7077 171.912 28.0991 169.782L26.6569 170.194ZM29.3029 176.604C30.4715 178.622 31.8262 180.508 33.3666 182.261L34.4934 181.271C33.0178 179.592 31.7205 177.786 30.6011 175.852L29.3029 176.604ZM33.3666 182.261C34.9038 184.01 36.5742 185.601 38.3776 187.033L39.3104 185.859C37.5778 184.483 35.9722 182.954 34.4934 181.271L33.3666 182.261ZM38.3968 187.048C40.2548 188.428 42.1949 189.598 44.2169 190.556L44.8591 189.2C42.9291 188.286 41.0732 187.168 39.2912 185.844L38.3968 187.048ZM44.2026 190.549C44.264 190.58 44.2416 190.585 44.2139 190.535C44.2006 190.511 44.1932 190.486 44.1904 190.467C44.1878 190.449 44.1904 190.444 44.1882 190.457L45.6678 190.703C45.7164 190.412 45.6868 190.097 45.5251 189.806C45.3674 189.522 45.124 189.332 44.8734 189.207L44.2026 190.549ZM44.178 190.58C44.178 190.737 44.1472 190.854 44.1012 190.947L45.4428 191.617C45.6048 191.294 45.678 190.943 45.678 190.58H44.178ZM44.1393 190.879L42.5013 193.453L43.7668 194.259L45.4047 191.685L44.1393 190.879ZM42.4909 193.47C42.3863 193.644 42.2996 193.708 42.2526 193.731L42.9234 195.073C43.2924 194.888 43.5697 194.588 43.7771 194.242L42.4909 193.47ZM42.2526 193.731C42.3652 193.675 42.4268 193.709 42.3471 193.691C42.273 193.674 42.1403 193.625 41.9382 193.512L41.2098 194.824C41.4757 194.971 41.746 195.091 42.0099 195.152C42.2682 195.212 42.6028 195.233 42.9234 195.073L42.2526 193.731ZM41.9209 193.503C40.7558 192.895 39.4016 192.078 37.856 191.048L37.024 192.296C38.5984 193.346 40.0002 194.193 41.2271 194.833L41.9209 193.503ZM37.8799 191.065C36.4004 189.993 34.8902 188.74 33.3497 187.302L32.3263 188.398C33.9058 189.872 35.4636 191.167 37.0001 192.279L37.8799 191.065ZM33.3497 187.302C31.8152 185.869 30.3561 184.308 28.9725 182.617L27.8115 183.567C29.236 185.308 30.7408 186.919 32.3263 188.398L33.3497 187.302ZM28.9793 182.626C27.6051 180.895 26.4639 179.119 25.5528 177.297L24.2112 177.967C25.1721 179.889 26.3709 181.753 27.8047 183.558L28.9793 182.626ZM24.1941 177.333C22.5108 181.21 20.2413 184.729 17.3834 187.893L18.4966 188.899C21.4627 185.615 23.8212 181.958 25.5699 177.931L24.1941 177.333ZM17.3834 187.893C14.5176 191.066 11.1617 193.911 7.31179 196.426L8.13221 197.682C12.0823 195.101 15.5384 192.174 18.4966 188.899L17.3834 187.893ZM7.33613 196.411C7.16028 196.516 6.96396 196.589 6.7407 196.626L6.9873 198.106C7.38804 198.039 7.76372 197.904 8.10787 197.697L7.33613 196.411ZM6.7407 196.626C6.71955 196.63 6.7093 196.629 6.70765 196.629C6.70658 196.629 6.70943 196.629 6.71354 196.631C6.71748 196.632 6.71651 196.633 6.71021 196.628C6.70342 196.622 6.68934 196.61 6.66965 196.585L5.49835 197.523C5.86504 197.981 6.3903 198.205 6.9873 198.106L6.7407 196.626ZM6.68182 196.601L4.73182 194.027L3.53618 194.933L5.48618 197.507L6.68182 196.601ZM4.734 194.03C4.73392 194.03 4.73408 194.03 4.734 194.03C4.73393 194.03 4.73408 194.03 4.734 194.03C4.73401 194.03 4.73401 194.03 4.73401 194.03C4.73402 194.03 4.73403 194.03 4.73405 194.03C4.73408 194.03 4.73412 194.03 4.73418 194.03C4.7343 194.03 4.73446 194.031 4.73467 194.031C4.73509 194.032 4.73565 194.033 4.7363 194.034C4.73764 194.036 4.73908 194.039 4.74038 194.042C4.74323 194.05 4.7438 194.055 4.74378 194.054C4.74365 194.053 4.74058 194.018 4.76751 193.937L3.34449 193.463C3.18577 193.939 3.19132 194.473 3.534 194.93L4.734 194.03ZM4.76751 193.937C4.82006 193.78 4.89485 193.697 4.98787 193.641L4.21613 192.355C3.78916 192.611 3.49994 192.996 3.34449 193.463L4.76751 193.937ZM4.99417 193.637C11.2824 189.78 16.0345 184.903 19.2238 179.003L17.9042 178.289C14.8535 183.933 10.2976 188.624 4.20983 192.359L4.99417 193.637ZM19.2238 179.003C22.4099 173.108 23.9436 166.532 23.8379 159.291L22.3381 159.313C22.4404 166.32 20.9581 172.64 17.9042 178.289L19.2238 179.003ZM23.838 159.302C23.838 158.958 23.9063 158.837 23.922 158.816C23.9246 158.812 23.9248 158.813 23.9221 158.815C23.9195 158.817 23.9178 158.818 23.9191 158.817C23.9217 158.816 23.9505 158.804 24.024 158.804V157.304C23.529 157.304 23.0487 157.48 22.722 157.916C22.4257 158.311 22.338 158.814 22.338 159.302H23.838ZM23.9762 158.802L27.6422 159.036L27.7378 157.54L24.0718 157.306L23.9762 158.802ZM27.69 159.038C27.7546 159.038 27.7764 159.048 27.7725 159.047C27.764 159.043 27.751 159.034 27.7438 159.024C27.7394 159.019 27.7536 159.034 27.7688 159.092C27.7845 159.152 27.798 159.245 27.798 159.38H29.298C29.298 158.938 29.2147 158.469 28.9232 158.098C28.6048 157.692 28.1463 157.538 27.69 157.538V159.038ZM59.31 198.926C59.31 199.048 59.2945 199.124 59.2802 199.167C59.2733 199.187 59.267 199.199 59.2633 199.206C59.2598 199.211 59.2575 199.214 59.2567 199.215C59.2559 199.215 59.2535 199.218 59.2476 199.221C59.2414 199.225 59.2293 199.231 59.2086 199.238C59.1657 199.253 59.0897 199.268 58.968 199.268V200.768C59.4476 200.768 59.9451 200.648 60.3173 200.275C60.6896 199.903 60.81 199.406 60.81 198.926H59.31ZM58.968 199.268H55.77V200.768H58.968V199.268ZM55.77 199.268C55.6483 199.268 55.5723 199.253 55.5294 199.238C55.5087 199.231 55.4966 199.225 55.4904 199.221C55.4845 199.218 55.4822 199.215 55.4813 199.215C55.4805 199.214 55.4782 199.211 55.4747 199.206C55.471 199.199 55.4647 199.187 55.4578 199.167C55.4435 199.124 55.428 199.048 55.428 198.926H53.928C53.928 199.406 54.0484 199.903 54.4207 200.275C54.7929 200.648 55.2904 200.768 55.77 200.768V199.268ZM55.428 198.926V157.664H53.928V198.926H55.428ZM55.428 157.664C55.428 157.542 55.4435 157.466 55.4578 157.423C55.4647 157.403 55.471 157.391 55.4747 157.384C55.4782 157.379 55.4805 157.376 55.4813 157.375C55.4822 157.375 55.4845 157.372 55.4904 157.369C55.4966 157.365 55.5087 157.359 55.5294 157.352C55.5723 157.337 55.6483 157.322 55.77 157.322V155.822C55.2904 155.822 54.7929 155.942 54.4207 156.315C54.0484 156.687 53.928 157.184 53.928 157.664H55.428ZM55.77 157.322H58.968V155.822H55.77V157.322ZM58.968 157.322C59.0897 157.322 59.1657 157.337 59.2086 157.352C59.2293 157.359 59.2414 157.365 59.2476 157.369C59.2535 157.372 59.2559 157.375 59.2567 157.375C59.2575 157.376 59.2598 157.379 59.2633 157.384C59.267 157.391 59.2733 157.403 59.2802 157.423C59.2945 157.466 59.31 157.542 59.31 157.664H60.81C60.81 157.184 60.6896 156.687 60.3173 156.315C59.9451 155.942 59.4476 155.822 58.968 155.822V157.322ZM59.31 157.664V176.462H60.81V157.664H59.31ZM60.06 177.212H70.824V175.712H60.06V177.212ZM70.824 177.212C70.9505 177.212 71.0155 177.246 71.0737 177.304L72.1343 176.244C71.7765 175.886 71.3215 175.712 70.824 175.712V177.212ZM71.2181 177.417C71.2357 177.428 71.243 177.435 71.2443 177.436C71.2453 177.437 71.2432 177.435 71.2409 177.431C71.2386 177.427 71.2389 177.425 71.24 177.43C71.2413 177.436 71.244 177.45 71.244 177.476H72.744C72.744 176.91 72.4837 176.427 71.9899 176.131L71.2181 177.417ZM71.244 177.476V180.128H72.744V177.476H71.244ZM71.244 180.128C71.244 180.13 71.2439 180.129 71.2443 180.127C71.2447 180.126 71.2445 180.128 71.2409 180.134C71.2333 180.148 71.2073 180.187 71.1355 180.244L72.0725 181.416C72.4561 181.109 72.744 180.677 72.744 180.128H71.244ZM71.0737 180.3C71.0155 180.358 70.9505 180.392 70.824 180.392V181.892C71.3215 181.892 71.7765 181.718 72.1343 181.36L71.0737 180.3ZM70.824 180.392H60.06V181.892H70.824V180.392ZM59.31 181.142V198.926H60.81V181.142H59.31ZM87.4715 203.216L87.9654 203.78L87.9751 203.772L87.9845 203.763L87.4715 203.216ZM127.798 202.28L127.64 203.013L127.65 203.015L127.798 202.28ZM129.592 203.138L129.061 203.668L129.077 203.684L129.093 203.699L129.592 203.138ZM130.528 204.854L129.794 205.011V205.011L130.528 204.854ZM129.514 226.694L129.02 226.13L129.01 226.138L129.001 226.147L129.514 226.694ZM89.1095 227.63L88.9524 228.363L88.9624 228.365L89.1095 227.63ZM87.3155 226.694L87.8458 226.164L87.3155 226.694ZM86.4575 224.978L87.191 224.821L87.1883 224.809L86.4575 224.978ZM91.9955 207.194L92.5258 207.724L92.5499 207.7L92.5717 207.674L91.9955 207.194ZM91.9955 222.716L92.5717 222.236L92.5499 222.21L92.5258 222.186L91.9955 222.716ZM124.99 222.716L124.459 222.186L124.435 222.21L124.413 222.236L124.99 222.716ZM124.99 207.194L124.413 207.674L124.435 207.7L124.459 207.724L124.99 207.194ZM120.232 189.176L119.495 189.319L119.498 189.332L119.501 189.345L120.232 189.176ZM119.296 190.502L119.472 191.231L119.481 191.229L119.489 191.227L119.296 190.502ZM112.432 191.75L112.324 191.008L112.322 191.008L112.432 191.75ZM103.384 192.842L103.311 192.095L103.384 192.842ZM93.6335 193.622L93.6698 194.371L93.681 194.37L93.6335 193.622ZM84.9755 193.778L84.9588 194.528L84.9602 194.528L84.9755 193.778ZM80.1395 192.14L79.5539 192.609L79.5608 192.617L79.5681 192.626L80.1395 192.14ZM84.5075 164.918L85.0378 165.448L85.0755 165.411L85.1075 165.368L84.5075 164.918ZM84.6635 188.552L84.0873 189.032L84.1091 189.058L84.1332 189.082L84.6635 188.552ZM94.3355 188.786L94.3633 189.536L94.3771 189.535L94.3355 188.786ZM102.682 188.162L102.611 187.415L102.682 188.162ZM110.794 187.226L110.896 187.969L110.794 187.226ZM118.282 185.978L118.134 185.243L118.282 185.978ZM119.296 186.056L118.765 186.586L118.803 186.624L118.846 186.656L119.296 186.056ZM119.764 186.758L120.5 186.615L120.491 186.567L120.475 186.521L119.764 186.758ZM130.684 176.228H129.934V176.978H130.684V176.228ZM142.228 176.54L141.697 177.07L141.762 177.136L141.842 177.183L142.228 176.54ZM142.228 180.596L141.759 180.01L141.727 180.036L141.697 180.066L142.228 180.596ZM130.684 180.908V180.158H129.934V180.908H130.684ZM86.9735 207.584C86.9735 205.428 87.3979 204.277 87.9654 203.78L86.9776 202.652C85.8811 203.611 85.4735 205.372 85.4735 207.584H86.9735ZM87.9845 203.763C88.5917 203.194 89.8894 202.796 92.1515 202.796V201.296C89.8376 201.296 88.0154 201.678 86.9586 202.669L87.9845 203.763ZM92.1515 202.796H124.834V201.296H92.1515V202.796ZM124.834 202.796C126.059 202.796 126.987 202.873 127.64 203.013L127.955 201.547C127.152 201.375 126.104 201.296 124.834 201.296V202.796ZM127.65 203.015C128.335 203.152 128.781 203.388 129.061 203.668L130.122 202.608C129.57 202.056 128.82 201.72 127.945 201.545L127.65 203.015ZM129.093 203.699C129.421 203.99 129.665 204.409 129.794 205.011L131.261 204.697C131.078 203.843 130.698 203.118 130.09 202.577L129.093 203.699ZM129.794 205.011C129.935 205.67 130.012 206.523 130.012 207.584H131.512C131.512 206.461 131.432 205.494 131.261 204.697L129.794 205.011ZM130.012 207.584V222.326H131.512V207.584H130.012ZM130.012 222.326C130.012 224.482 129.587 225.633 129.02 226.13L130.007 227.258C131.104 226.299 131.512 224.538 131.512 222.326H130.012ZM129.001 226.147C128.393 226.716 127.096 227.114 124.834 227.114V228.614C127.147 228.614 128.97 228.232 130.026 227.241L129.001 226.147ZM124.834 227.114H92.1515V228.614H124.834V227.114ZM92.1515 227.114C90.9284 227.114 89.969 227.037 89.2566 226.895L88.9624 228.365C89.8101 228.535 90.8786 228.614 92.1515 228.614V227.114ZM89.2667 226.897C88.6618 226.767 88.1992 226.517 87.8458 226.164L86.7852 227.224C87.3678 227.807 88.1012 228.181 88.9524 228.363L89.2667 226.897ZM87.8458 226.164C87.5561 225.874 87.3246 225.445 87.1909 224.821L85.7242 225.135C85.9025 225.967 86.2429 226.682 86.7852 227.224L87.8458 226.164ZM87.1883 224.809C87.0502 224.211 86.9735 223.39 86.9735 222.326H85.4735C85.4735 223.446 85.5528 224.393 85.7267 225.147L87.1883 224.809ZM86.9735 222.326V207.584H85.4735V222.326H86.9735ZM93.4775 205.976C92.693 205.976 91.9018 206.135 91.4193 206.714L92.5717 207.674C92.6092 207.629 92.806 207.476 93.4775 207.476V205.976ZM91.4652 206.664C91.2048 206.924 91.0592 207.262 90.9754 207.597C90.8905 207.937 90.8555 208.328 90.8555 208.754H92.3555C92.3555 208.4 92.3856 208.141 92.4306 207.961C92.4768 207.776 92.5262 207.724 92.5258 207.724L91.4652 206.664ZM90.8555 208.754V221.156H92.3555V208.754H90.8555ZM90.8555 221.156C90.8555 221.582 90.8905 221.973 90.9754 222.313C91.0592 222.648 91.2048 222.986 91.4652 223.246L92.5258 222.186C92.5262 222.186 92.4768 222.134 92.4306 221.949C92.3856 221.769 92.3555 221.51 92.3555 221.156H90.8555ZM91.4193 223.196C91.9018 223.775 92.693 223.934 93.4775 223.934V222.434C92.806 222.434 92.6092 222.281 92.5717 222.236L91.4193 223.196ZM93.4775 223.934H123.508V222.434H93.4775V223.934ZM123.508 223.934C124.292 223.934 125.083 223.775 125.566 223.196L124.413 222.236C124.376 222.281 124.179 222.434 123.508 222.434V223.934ZM125.52 223.246C125.78 222.986 125.926 222.648 126.01 222.313C126.095 221.973 126.13 221.582 126.13 221.156H124.63C124.63 221.51 124.599 221.769 124.554 221.949C124.508 222.134 124.459 222.186 124.459 222.186L125.52 223.246ZM126.13 221.156V208.754H124.63V221.156H126.13ZM126.13 208.754C126.13 208.328 126.095 207.937 126.01 207.597C125.926 207.262 125.78 206.924 125.52 206.664L124.459 207.724C124.459 207.724 124.508 207.776 124.554 207.961C124.599 208.141 124.63 208.4 124.63 208.754H126.13ZM125.566 206.714C125.083 206.135 124.292 205.976 123.508 205.976V207.476C124.179 207.476 124.376 207.629 124.413 207.674L125.566 206.714ZM123.508 205.976H93.4775V207.476H123.508V205.976ZM119.501 189.345C119.545 189.537 119.502 189.582 119.502 189.582C119.487 189.604 119.403 189.697 119.102 189.777L119.489 191.227C119.968 191.099 120.43 190.867 120.727 190.447C121.039 190.005 121.074 189.491 120.962 189.007L119.501 189.345ZM119.119 189.773C117.435 190.181 115.173 190.593 112.324 191.008L112.539 192.492C115.41 192.075 117.724 191.655 119.472 191.231L119.119 189.773ZM112.322 191.008C109.528 191.422 106.524 191.785 103.311 192.095L103.456 193.589C106.691 193.275 109.719 192.91 112.541 192.492L112.322 191.008ZM103.311 192.095C100.096 192.407 96.8539 192.666 93.586 192.874L93.681 194.37C96.9652 194.162 100.223 193.901 103.456 193.589L103.311 192.095ZM93.5973 192.873C90.3862 193.028 87.5178 193.08 84.9908 193.028L84.9602 194.528C87.5292 194.58 90.4329 194.528 93.6698 194.371L93.5973 192.873ZM84.9922 193.028C82.7208 192.978 81.3838 192.446 80.711 191.654L79.5681 192.626C80.6632 193.914 82.5502 194.474 84.9588 194.528L84.9922 193.028ZM80.7252 191.671C80.0489 190.826 79.6415 189.418 79.6415 187.304H78.1415C78.1415 189.558 78.5662 191.374 79.5539 192.609L80.7252 191.671ZM79.6415 187.304V165.386H78.1415V187.304H79.6415ZM79.6415 165.386C79.6415 163.23 80.0659 162.079 80.6334 161.582L79.6456 160.454C78.5491 161.413 78.1415 163.174 78.1415 165.386H79.6415ZM80.6334 161.582C81.2424 161.05 82.5504 160.676 84.8195 160.676V159.176C82.5126 159.176 80.7006 159.53 79.6456 160.454L80.6334 161.582ZM84.8195 160.676H111.418V159.176H84.8195V160.676ZM111.418 160.676C111.654 160.676 111.692 160.732 111.669 160.711C111.658 160.701 111.658 160.694 111.663 160.707C111.669 160.725 111.682 160.772 111.682 160.862H113.182C113.182 160.418 113.059 159.952 112.687 159.609C112.326 159.276 111.857 159.176 111.418 159.176V160.676ZM111.682 160.862V163.67H113.182V160.862H111.682ZM111.682 163.67C111.682 163.76 111.669 163.807 111.663 163.825C111.658 163.838 111.658 163.831 111.669 163.821C111.692 163.8 111.654 163.856 111.418 163.856V165.356C111.857 165.356 112.326 165.256 112.687 164.923C113.059 164.58 113.182 164.114 113.182 163.67H111.682ZM111.418 163.856H85.8335V165.356H111.418V163.856ZM85.8335 163.856C85.4419 163.856 85.0848 163.883 84.7842 163.954C84.5075 164.019 84.1452 164.151 83.9075 164.468L85.1075 165.368C85.0259 165.477 84.9625 165.453 85.1278 165.414C85.2692 165.381 85.4971 165.356 85.8335 165.356V163.856ZM83.9772 164.388C83.718 164.647 83.6332 165.017 83.5922 165.263C83.5435 165.555 83.5235 165.913 83.5235 166.322H85.0235C85.0235 165.951 85.0425 165.685 85.0718 165.509C85.0864 165.422 85.1006 165.375 85.1074 165.357C85.1165 165.333 85.1031 165.383 85.0378 165.448L83.9772 164.388ZM83.5235 166.322V186.914H85.0235V166.322H83.5235ZM83.5235 186.914C83.5235 187.73 83.65 188.507 84.0873 189.032L85.2397 188.072C85.1571 187.973 85.0235 187.658 85.0235 186.914H83.5235ZM84.1332 189.082C84.6202 189.569 85.3886 189.692 86.1455 189.692V188.192C85.4464 188.192 85.2268 188.055 85.1938 188.022L84.1332 189.082ZM86.1455 189.692C88.8073 189.692 91.5466 189.64 94.3633 189.535L94.3078 188.037C91.5085 188.14 88.7877 188.192 86.1455 188.192V189.692ZM94.3771 189.535C97.1946 189.378 99.9862 189.17 102.752 188.909L102.611 187.415C99.8648 187.674 97.0924 187.882 94.2939 188.037L94.3771 189.535ZM102.752 188.909C105.518 188.648 108.233 188.335 110.896 187.969L110.692 186.483C108.05 186.845 105.357 187.156 102.611 187.415L102.752 188.909ZM110.896 187.969C113.561 187.603 116.072 187.185 118.429 186.713L118.134 185.243C115.811 185.707 113.33 186.121 110.692 186.483L110.896 187.969ZM118.429 186.713C118.655 186.668 118.794 186.662 118.867 186.667C118.95 186.674 118.866 186.688 118.765 186.586L119.826 185.526C119.569 185.268 119.238 185.191 118.983 185.172C118.718 185.151 118.428 185.184 118.134 185.243L118.429 186.713ZM118.846 186.656C118.903 186.699 118.983 186.789 119.052 186.995L120.475 186.521C120.336 186.103 120.104 185.725 119.746 185.456L118.846 186.656ZM119.027 186.901L119.495 189.319L120.968 189.033L120.5 186.615L119.027 186.901ZM129.934 196.976C129.934 197.098 129.918 197.174 129.904 197.217C129.897 197.237 129.891 197.249 129.887 197.256C129.883 197.261 129.881 197.264 129.88 197.265C129.879 197.265 129.877 197.268 129.871 197.271C129.865 197.275 129.853 197.281 129.832 197.288C129.789 197.303 129.713 197.318 129.592 197.318V198.818C130.071 198.818 130.569 198.698 130.941 198.325C131.313 197.953 131.434 197.456 131.434 196.976H129.934ZM129.592 197.318H126.394V198.818H129.592V197.318ZM126.394 197.318C126.272 197.318 126.196 197.303 126.153 197.288C126.132 197.281 126.12 197.275 126.114 197.271C126.108 197.268 126.106 197.265 126.105 197.265C126.104 197.264 126.102 197.261 126.098 197.256C126.094 197.249 126.088 197.237 126.081 197.217C126.067 197.174 126.052 197.098 126.052 196.976H124.552C124.552 197.456 124.672 197.953 125.044 198.325C125.416 198.698 125.914 198.818 126.394 198.818V197.318ZM126.052 196.976V157.664H124.552V196.976H126.052ZM126.052 157.664C126.052 157.542 126.067 157.466 126.081 157.423C126.088 157.403 126.094 157.391 126.098 157.384C126.102 157.379 126.104 157.376 126.105 157.375C126.106 157.375 126.108 157.372 126.114 157.369C126.12 157.365 126.132 157.359 126.153 157.352C126.196 157.337 126.272 157.322 126.394 157.322V155.822C125.914 155.822 125.416 155.942 125.044 156.315C124.672 156.687 124.552 157.184 124.552 157.664H126.052ZM126.394 157.322H129.592V155.822H126.394V157.322ZM129.592 157.322C129.713 157.322 129.789 157.337 129.832 157.352C129.853 157.359 129.865 157.365 129.871 157.369C129.877 157.372 129.879 157.375 129.88 157.375C129.881 157.376 129.883 157.379 129.887 157.384C129.891 157.391 129.897 157.403 129.904 157.423C129.918 157.466 129.934 157.542 129.934 157.664H131.434C131.434 157.184 131.313 156.687 130.941 156.315C130.569 155.942 130.071 155.822 129.592 155.822V157.322ZM129.934 157.664V176.228H131.434V157.664H129.934ZM130.684 176.978H141.448V175.478H130.684V176.978ZM141.448 176.978C141.574 176.978 141.639 177.012 141.697 177.07L142.758 176.01C142.4 175.652 141.945 175.478 141.448 175.478V176.978ZM141.842 177.183C141.859 177.194 141.866 177.201 141.868 177.202C141.869 177.203 141.867 177.201 141.864 177.197C141.862 177.193 141.862 177.191 141.864 177.196C141.865 177.202 141.868 177.216 141.868 177.242H143.368C143.368 176.676 143.107 176.193 142.613 175.897L141.842 177.183ZM141.868 177.242V179.894H143.368V177.242H141.868ZM141.868 179.894C141.868 179.896 141.867 179.895 141.868 179.893C141.868 179.892 141.868 179.894 141.864 179.9C141.857 179.914 141.831 179.953 141.759 180.01L142.696 181.182C143.08 180.875 143.368 180.443 143.368 179.894H141.868ZM141.697 180.066C141.639 180.124 141.574 180.158 141.448 180.158V181.658C141.945 181.658 142.4 181.484 142.758 181.126L141.697 180.066ZM141.448 180.158H130.684V181.658H141.448V180.158ZM129.934 180.908V196.976H131.434V180.908H129.934ZM180.013 192.218L179.427 192.687L179.453 192.719L179.483 192.748L180.013 192.218ZM180.325 211.484H179.575V212.234H180.325V211.484ZM211.837 211.796L211.368 212.382L211.408 212.413L211.451 212.439L211.837 211.796ZM211.837 215.852L212.306 216.438L211.837 215.852ZM143.899 215.852L143.369 216.382L143.398 216.412L143.43 216.438L143.899 215.852ZM143.899 211.796L144.349 212.396L144.358 212.389L144.368 212.382L143.899 211.796ZM174.943 211.484V212.234H175.693V211.484H174.943ZM175.177 192.218L174.591 191.749L174.584 191.759L174.577 191.768L175.177 192.218ZM180.637 161.408L181.378 161.522L181.382 161.496L181.384 161.47L180.637 161.408ZM180.325 163.436L181.066 163.55L181.066 163.55L180.325 163.436ZM179.857 165.464L179.14 165.243L179.086 165.418L179.119 165.598L179.857 165.464ZM180.247 167.102L179.529 167.318V167.318L180.247 167.102ZM180.793 168.428L181.464 168.093L181.455 168.074L181.444 168.056L180.793 168.428ZM185.317 175.448L184.734 175.92L184.74 175.927L184.747 175.935L185.317 175.448ZM191.323 181.298L190.851 181.881L191.323 181.298ZM198.343 185.978L197.986 186.637L197.994 186.642L198.002 186.646L198.343 185.978ZM206.143 189.098L206.38 188.386L206.367 188.382L206.355 188.378L206.143 189.098ZM206.767 189.722L206.056 189.959V189.959L206.767 189.722ZM206.767 190.58L207.446 190.899L207.455 190.879L207.463 190.859L206.767 190.58ZM205.519 193.232L206.162 193.618L206.182 193.586L206.198 193.551L205.519 193.232ZM204.973 193.856L204.523 193.256L204.48 193.288L204.443 193.326L204.973 193.856ZM203.959 193.778L204.238 193.082L204.225 193.076L204.211 193.072L203.959 193.778ZM188.281 185.12L187.81 185.704L187.813 185.706L188.281 185.12ZM177.283 172.25L177.936 171.882L177.243 170.652L176.612 171.915L177.283 172.25ZM166.987 185.588L167.487 186.147L167.491 186.144L166.987 185.588ZM151.855 194.714L152.118 195.416L152.119 195.416L151.855 194.714ZM150.295 194.402L150.991 194.123L150.978 194.091L150.962 194.059L150.295 194.402ZM148.891 191.672L148.195 191.951L148.208 191.983L148.224 192.015L148.891 191.672ZM148.813 190.892L148.102 190.655L148.087 190.699L148.078 190.745L148.813 190.892ZM149.437 190.19L149.165 189.491L149.133 189.504L149.102 189.519L149.437 190.19ZM166.987 178.412L166.426 177.914L166.426 177.914L166.987 178.412ZM175.255 160.862L175.997 160.973L176 160.949L176.002 160.924L175.255 160.862ZM176.269 159.926L176.352 159.181L176.311 159.176H176.269V159.926ZM179.779 160.316L179.902 159.576L179.882 159.573L179.862 159.571L179.779 160.316ZM179.311 192.578C179.313 192.578 179.312 192.578 179.31 192.578C179.309 192.577 179.311 192.578 179.317 192.581C179.331 192.589 179.37 192.615 179.427 192.687L180.599 191.749C180.292 191.366 179.86 191.078 179.311 191.078V192.578ZM179.483 192.748C179.541 192.806 179.575 192.872 179.575 192.998H181.075C181.075 192.5 180.901 192.046 180.543 191.688L179.483 192.748ZM179.575 192.998V211.484H181.075V192.998H179.575ZM180.325 212.234H211.057V210.734H180.325V212.234ZM211.057 212.234C211.104 212.234 211.204 212.25 211.368 212.382L212.306 211.21C211.95 210.926 211.53 210.734 211.057 210.734V212.234ZM211.451 212.439C211.469 212.45 211.476 212.457 211.477 212.458C211.478 212.459 211.476 212.457 211.474 212.453C211.472 212.449 211.472 212.447 211.473 212.452C211.474 212.458 211.477 212.472 211.477 212.498H212.977C212.977 211.932 212.717 211.449 212.223 211.153L211.451 212.439ZM211.477 212.498V215.15H212.977V212.498H211.477ZM211.477 215.15C211.477 215.152 211.477 215.151 211.477 215.149C211.478 215.148 211.478 215.15 211.474 215.156C211.466 215.17 211.44 215.209 211.368 215.266L212.306 216.438C212.689 216.131 212.977 215.699 212.977 215.15H211.477ZM211.368 215.266C211.204 215.398 211.104 215.414 211.057 215.414V216.914C211.53 216.914 211.95 216.722 212.306 216.438L211.368 215.266ZM211.057 215.414H144.757V216.914H211.057V215.414ZM144.757 215.414C144.627 215.414 144.504 215.376 144.368 215.266L143.43 216.438C143.814 216.744 144.263 216.914 144.757 216.914V215.414ZM144.429 215.322C144.342 215.234 144.337 215.184 144.337 215.15H142.837C142.837 215.636 143.04 216.054 143.369 216.382L144.429 215.322ZM144.337 215.15V212.498H142.837V215.15H144.337ZM144.337 212.498C144.337 212.425 144.349 212.396 144.35 212.393C144.351 212.392 144.35 212.393 144.348 212.396C144.346 212.399 144.346 212.399 144.349 212.396L143.449 211.196C143.013 211.523 142.837 212.003 142.837 212.498H144.337ZM144.368 212.382C144.504 212.272 144.627 212.234 144.757 212.234V210.734C144.263 210.734 143.814 210.904 143.43 211.21L144.368 212.382ZM144.757 212.234H174.943V210.734H144.757V212.234ZM175.693 211.484V192.998H174.193V211.484H175.693ZM175.693 192.998C175.693 192.815 175.737 192.722 175.777 192.668L174.577 191.768C174.305 192.13 174.193 192.557 174.193 192.998H175.693ZM175.763 192.687C175.839 192.591 175.89 192.578 175.957 192.578V191.078C175.4 191.078 174.931 191.325 174.591 191.749L175.763 192.687ZM175.957 192.578H179.311V191.078H175.957V192.578ZM179.896 161.294C179.896 161.295 179.895 161.297 179.895 161.298C179.895 161.299 179.895 161.301 179.895 161.302C179.894 161.303 179.894 161.305 179.894 161.306C179.894 161.307 179.894 161.308 179.893 161.31C179.893 161.311 179.893 161.312 179.893 161.314C179.893 161.315 179.892 161.316 179.892 161.318C179.892 161.319 179.892 161.32 179.891 161.322C179.891 161.323 179.891 161.324 179.891 161.326C179.891 161.327 179.89 161.328 179.89 161.33C179.89 161.331 179.89 161.332 179.89 161.334C179.889 161.335 179.889 161.336 179.889 161.338C179.889 161.339 179.889 161.34 179.888 161.341C179.888 161.343 179.888 161.344 179.888 161.345C179.888 161.347 179.887 161.348 179.887 161.349C179.887 161.351 179.887 161.352 179.887 161.353C179.886 161.355 179.886 161.356 179.886 161.357C179.886 161.359 179.886 161.36 179.885 161.361C179.885 161.363 179.885 161.364 179.885 161.365C179.885 161.367 179.884 161.368 179.884 161.369C179.884 161.371 179.884 161.372 179.884 161.373C179.883 161.374 179.883 161.376 179.883 161.377C179.883 161.378 179.883 161.38 179.882 161.381C179.882 161.382 179.882 161.384 179.882 161.385C179.882 161.386 179.881 161.388 179.881 161.389C179.881 161.39 179.881 161.392 179.881 161.393C179.88 161.394 179.88 161.396 179.88 161.397C179.88 161.398 179.88 161.4 179.879 161.401C179.879 161.402 179.879 161.404 179.879 161.405C179.878 161.406 179.878 161.408 179.878 161.409C179.878 161.41 179.878 161.411 179.877 161.413C179.877 161.414 179.877 161.415 179.877 161.417C179.877 161.418 179.876 161.419 179.876 161.421C179.876 161.422 179.876 161.423 179.876 161.425C179.875 161.426 179.875 161.427 179.875 161.429C179.875 161.43 179.875 161.431 179.874 161.433C179.874 161.434 179.874 161.435 179.874 161.437C179.874 161.438 179.873 161.439 179.873 161.441C179.873 161.442 179.873 161.443 179.873 161.444C179.872 161.446 179.872 161.447 179.872 161.448C179.872 161.45 179.872 161.451 179.871 161.452C179.871 161.454 179.871 161.455 179.871 161.456C179.871 161.458 179.87 161.459 179.87 161.46C179.87 161.462 179.87 161.463 179.87 161.464C179.869 161.466 179.869 161.467 179.869 161.468C179.869 161.47 179.869 161.471 179.868 161.472C179.868 161.474 179.868 161.475 179.868 161.476C179.868 161.477 179.867 161.479 179.867 161.48C179.867 161.481 179.867 161.483 179.867 161.484C179.866 161.485 179.866 161.487 179.866 161.488C179.866 161.489 179.865 161.491 179.865 161.492C179.865 161.493 179.865 161.495 179.865 161.496C179.864 161.497 179.864 161.499 179.864 161.5C179.864 161.501 179.864 161.503 179.863 161.504C179.863 161.505 179.863 161.507 179.863 161.508C179.863 161.509 179.862 161.51 179.862 161.512C179.862 161.513 179.862 161.514 179.862 161.516C179.861 161.517 179.861 161.518 179.861 161.52C179.861 161.521 179.861 161.522 179.86 161.524C179.86 161.525 179.86 161.526 179.86 161.528C179.86 161.529 179.859 161.53 179.859 161.532C179.859 161.533 179.859 161.534 179.859 161.536C179.858 161.537 179.858 161.538 179.858 161.54C179.858 161.541 179.858 161.542 179.857 161.543C179.857 161.545 179.857 161.546 179.857 161.547C179.857 161.549 179.856 161.55 179.856 161.551C179.856 161.553 179.856 161.554 179.856 161.555C179.855 161.557 179.855 161.558 179.855 161.559C179.855 161.561 179.855 161.562 179.854 161.563C179.854 161.565 179.854 161.566 179.854 161.567C179.854 161.569 179.853 161.57 179.853 161.571C179.853 161.573 179.853 161.574 179.852 161.575C179.852 161.577 179.852 161.578 179.852 161.579C179.852 161.58 179.851 161.582 179.851 161.583C179.851 161.584 179.851 161.586 179.851 161.587C179.85 161.588 179.85 161.59 179.85 161.591C179.85 161.592 179.85 161.594 179.849 161.595C179.849 161.596 179.849 161.598 179.849 161.599C179.849 161.6 179.848 161.602 179.848 161.603C179.848 161.604 179.848 161.606 179.848 161.607C179.847 161.608 179.847 161.61 179.847 161.611C179.847 161.612 179.847 161.613 179.846 161.615C179.846 161.616 179.846 161.617 179.846 161.619C179.846 161.62 179.845 161.621 179.845 161.623C179.845 161.624 179.845 161.625 179.845 161.627C179.844 161.628 179.844 161.629 179.844 161.631C179.844 161.632 179.844 161.633 179.843 161.635C179.843 161.636 179.843 161.637 179.843 161.639C179.843 161.64 179.842 161.641 179.842 161.643C179.842 161.644 179.842 161.645 179.842 161.646C179.841 161.648 179.841 161.649 179.841 161.65C179.841 161.652 179.84 161.653 179.84 161.654C179.84 161.656 179.84 161.657 179.84 161.658C179.839 161.66 179.839 161.661 179.839 161.662C179.839 161.664 179.839 161.665 179.838 161.666C179.838 161.668 179.838 161.669 179.838 161.67C179.838 161.672 179.837 161.673 179.837 161.674C179.837 161.676 179.837 161.677 179.837 161.678C179.836 161.679 179.836 161.681 179.836 161.682C179.836 161.683 179.836 161.685 179.835 161.686C179.835 161.687 179.835 161.689 179.835 161.69C179.835 161.691 179.834 161.693 179.834 161.694C179.834 161.695 179.834 161.697 179.834 161.698C179.833 161.699 179.833 161.701 179.833 161.702C179.833 161.703 179.833 161.705 179.832 161.706C179.832 161.707 179.832 161.709 179.832 161.71C179.832 161.711 179.831 161.712 179.831 161.714C179.831 161.715 179.831 161.716 179.831 161.718C179.83 161.719 179.83 161.72 179.83 161.722C179.83 161.723 179.83 161.724 179.829 161.726C179.829 161.727 179.829 161.728 179.829 161.73C179.829 161.731 179.828 161.732 179.828 161.734C179.828 161.735 179.828 161.736 179.827 161.738C179.827 161.739 179.827 161.74 179.827 161.742C179.827 161.743 179.826 161.744 179.826 161.746C179.826 161.747 179.826 161.748 179.826 161.749C179.825 161.751 179.825 161.752 179.825 161.753C179.825 161.755 179.825 161.756 179.824 161.757C179.824 161.759 179.824 161.76 179.824 161.761C179.824 161.763 179.823 161.764 179.823 161.765C179.823 161.767 179.823 161.768 179.823 161.769C179.822 161.771 179.822 161.772 179.822 161.773C179.822 161.775 179.822 161.776 179.821 161.777C179.821 161.779 179.821 161.78 179.821 161.781C179.821 161.782 179.82 161.784 179.82 161.785C179.82 161.786 179.82 161.788 179.82 161.789C179.819 161.79 179.819 161.792 179.819 161.793C179.819 161.794 179.819 161.796 179.818 161.797C179.818 161.798 179.818 161.8 179.818 161.801C179.818 161.802 179.817 161.804 179.817 161.805C179.817 161.806 179.817 161.808 179.817 161.809C179.816 161.81 179.816 161.812 179.816 161.813C179.816 161.814 179.816 161.815 179.815 161.817C179.815 161.818 179.815 161.819 179.815 161.821C179.814 161.822 179.814 161.823 179.814 161.825C179.814 161.826 179.814 161.827 179.813 161.829C179.813 161.83 179.813 161.831 179.813 161.833C179.813 161.834 179.812 161.835 179.812 161.837C179.812 161.838 179.812 161.839 179.812 161.841C179.811 161.842 179.811 161.843 179.811 161.845C179.811 161.846 179.811 161.847 179.81 161.848C179.81 161.85 179.81 161.851 179.81 161.852C179.81 161.854 179.809 161.855 179.809 161.856C179.809 161.858 179.809 161.859 179.809 161.86C179.808 161.862 179.808 161.863 179.808 161.864C179.808 161.866 179.808 161.867 179.807 161.868C179.807 161.87 179.807 161.871 179.807 161.872C179.807 161.874 179.806 161.875 179.806 161.876C179.806 161.878 179.806 161.879 179.806 161.88C179.805 161.881 179.805 161.883 179.805 161.884C179.805 161.885 179.805 161.887 179.804 161.888C179.804 161.889 179.804 161.891 179.804 161.892C179.804 161.893 179.803 161.895 179.803 161.896C179.803 161.897 179.803 161.899 179.803 161.9C179.802 161.901 179.802 161.903 179.802 161.904C179.802 161.905 179.801 161.907 179.801 161.908C179.801 161.909 179.801 161.911 179.801 161.912C179.8 161.913 179.8 161.915 179.8 161.916C179.8 161.917 179.8 161.918 179.799 161.92C179.799 161.921 179.799 161.922 179.799 161.924C179.799 161.925 179.798 161.926 179.798 161.928C179.798 161.929 179.798 161.93 179.798 161.932C179.797 161.933 179.797 161.934 179.797 161.936C179.797 161.937 179.797 161.938 179.796 161.94C179.796 161.941 179.796 161.942 179.796 161.944C179.796 161.945 179.795 161.946 179.795 161.948C179.795 161.949 179.795 161.95 179.795 161.951C179.794 161.953 179.794 161.954 179.794 161.955C179.794 161.957 179.794 161.958 179.793 161.959C179.793 161.961 179.793 161.962 179.793 161.963C179.793 161.965 179.792 161.966 179.792 161.967C179.792 161.969 179.792 161.97 179.792 161.971C179.791 161.973 179.791 161.974 179.791 161.975C179.791 161.977 179.791 161.978 179.79 161.979C179.79 161.981 179.79 161.982 179.79 161.983C179.79 161.984 179.789 161.986 179.789 161.987C179.789 161.988 179.789 161.99 179.788 161.991C179.788 161.992 179.788 161.994 179.788 161.995C179.788 161.996 179.787 161.998 179.787 161.999C179.787 162 179.787 162.002 179.787 162.003C179.786 162.004 179.786 162.006 179.786 162.007C179.786 162.008 179.786 162.01 179.785 162.011C179.785 162.012 179.785 162.014 179.785 162.015C179.785 162.016 179.784 162.017 179.784 162.019C179.784 162.02 179.784 162.021 179.784 162.023C179.783 162.024 179.783 162.025 179.783 162.027C179.783 162.028 179.783 162.029 179.782 162.031C179.782 162.032 179.782 162.033 179.782 162.035C179.782 162.036 179.781 162.037 179.781 162.039C179.781 162.04 179.781 162.041 179.781 162.043C179.78 162.044 179.78 162.045 179.78 162.047C179.78 162.048 179.78 162.049 179.779 162.05C179.779 162.052 179.779 162.053 179.779 162.054C179.779 162.056 179.778 162.057 179.778 162.058C179.778 162.06 179.778 162.061 179.778 162.062C179.777 162.064 179.777 162.065 179.777 162.066C179.777 162.068 179.777 162.069 179.776 162.07C179.776 162.072 179.776 162.073 179.776 162.074C179.775 162.076 179.775 162.077 179.775 162.078C179.775 162.08 179.775 162.081 179.774 162.082C179.774 162.084 179.774 162.085 179.774 162.086C179.774 162.087 179.773 162.089 179.773 162.09C179.773 162.091 179.773 162.093 179.773 162.094C179.772 162.095 179.772 162.097 179.772 162.098C179.772 162.099 179.772 162.101 179.771 162.102C179.771 162.103 179.771 162.105 179.771 162.106C179.771 162.107 179.77 162.109 179.77 162.11C179.77 162.111 179.77 162.113 179.77 162.114C179.769 162.115 179.769 162.117 179.769 162.118C179.769 162.119 179.769 162.12 179.768 162.122C179.768 162.123 179.768 162.124 179.768 162.126C179.768 162.127 179.767 162.128 179.767 162.13C179.767 162.131 179.767 162.132 179.767 162.134C179.766 162.135 179.766 162.136 179.766 162.138C179.766 162.139 179.766 162.14 179.765 162.142C179.765 162.143 179.765 162.144 179.765 162.146C179.765 162.147 179.764 162.148 179.764 162.15C179.764 162.151 179.764 162.152 179.764 162.153C179.763 162.155 179.763 162.156 179.763 162.157C179.763 162.159 179.762 162.16 179.762 162.161C179.762 162.163 179.762 162.164 179.762 162.165C179.761 162.167 179.761 162.168 179.761 162.169C179.761 162.171 179.761 162.172 179.76 162.173C179.76 162.175 179.76 162.176 179.76 162.177C179.76 162.179 179.759 162.18 179.759 162.181C179.759 162.183 179.759 162.184 179.759 162.185C179.758 162.186 179.758 162.188 179.758 162.189C179.758 162.19 179.758 162.192 179.757 162.193C179.757 162.194 179.757 162.196 179.757 162.197C179.757 162.198 179.756 162.2 179.756 162.201C179.756 162.202 179.756 162.204 179.756 162.205C179.755 162.206 179.755 162.208 179.755 162.209C179.755 162.21 179.755 162.212 179.754 162.213C179.754 162.214 179.754 162.216 179.754 162.217C179.754 162.218 179.753 162.219 179.753 162.221C179.753 162.222 179.753 162.223 179.753 162.225C179.752 162.226 179.752 162.227 179.752 162.229C179.752 162.23 179.752 162.231 179.751 162.233C179.751 162.234 179.751 162.235 179.751 162.237C179.751 162.238 179.75 162.239 179.75 162.241C179.75 162.242 179.75 162.243 179.749 162.245C179.749 162.246 179.749 162.247 179.749 162.249C179.749 162.25 179.748 162.251 179.748 162.253C179.748 162.254 179.748 162.255 179.748 162.256C179.747 162.258 179.747 162.259 179.747 162.26C179.747 162.262 179.747 162.263 179.746 162.264C179.746 162.266 179.746 162.267 179.746 162.268C179.746 162.27 179.745 162.271 179.745 162.272C179.745 162.274 179.745 162.275 179.745 162.276C179.744 162.278 179.744 162.279 179.744 162.28C179.744 162.282 179.744 162.283 179.743 162.284C179.743 162.286 179.743 162.287 179.743 162.288C179.743 162.289 179.742 162.291 179.742 162.292C179.742 162.293 179.742 162.295 179.742 162.296C179.741 162.297 179.741 162.299 179.741 162.3C179.741 162.301 179.741 162.303 179.74 162.304C179.74 162.305 179.74 162.307 179.74 162.308C179.74 162.309 179.739 162.311 179.739 162.312C179.739 162.313 179.739 162.315 179.739 162.316C179.738 162.317 179.738 162.319 179.738 162.32C179.738 162.321 179.738 162.322 179.737 162.324C179.737 162.325 179.737 162.326 179.737 162.328C179.736 162.329 179.736 162.33 179.736 162.332C179.736 162.333 179.736 162.334 179.735 162.336C179.735 162.337 179.735 162.338 179.735 162.34C179.735 162.341 179.734 162.342 179.734 162.344C179.734 162.345 179.734 162.346 179.734 162.348C179.733 162.349 179.733 162.35 179.733 162.352C179.733 162.353 179.733 162.354 179.732 162.355C179.732 162.357 179.732 162.358 179.732 162.359C179.732 162.361 179.731 162.362 179.731 162.363C179.731 162.365 179.731 162.366 179.731 162.367C179.73 162.369 179.73 162.37 179.73 162.371C179.73 162.373 179.73 162.374 179.729 162.375C179.729 162.377 179.729 162.378 179.729 162.379C179.729 162.381 179.728 162.382 179.728 162.383C179.728 162.385 179.728 162.386 179.728 162.387C179.727 162.388 179.727 162.39 179.727 162.391C179.727 162.392 179.727 162.394 179.726 162.395C179.726 162.396 179.726 162.398 179.726 162.399C179.726 162.4 179.725 162.402 179.725 162.403C179.725 162.404 179.725 162.406 179.725 162.407C179.724 162.408 179.724 162.41 179.724 162.411C179.724 162.412 179.723 162.414 179.723 162.415C179.723 162.416 179.723 162.418 179.723 162.419C179.722 162.42 179.722 162.422 179.722 162.423C179.722 162.424 179.722 162.425 179.721 162.427C179.721 162.428 179.721 162.429 179.721 162.431C179.721 162.432 179.72 162.433 179.72 162.435C179.72 162.436 179.72 162.437 179.72 162.439C179.719 162.44 179.719 162.441 179.719 162.443C179.719 162.444 179.719 162.445 179.718 162.447C179.718 162.448 179.718 162.449 179.718 162.451C179.718 162.452 179.717 162.453 179.717 162.455C179.717 162.456 179.717 162.457 179.717 162.458C179.716 162.46 179.716 162.461 179.716 162.462C179.716 162.464 179.716 162.465 179.715 162.466C179.715 162.468 179.715 162.469 179.715 162.47C179.715 162.472 179.714 162.473 179.714 162.474C179.714 162.476 179.714 162.477 179.714 162.478C179.713 162.48 179.713 162.481 179.713 162.482C179.713 162.484 179.713 162.485 179.712 162.486C179.712 162.488 179.712 162.489 179.712 162.49C179.712 162.491 179.711 162.493 179.711 162.494C179.711 162.495 179.711 162.497 179.71 162.498C179.71 162.499 179.71 162.501 179.71 162.502C179.71 162.503 179.709 162.505 179.709 162.506C179.709 162.507 179.709 162.509 179.709 162.51C179.708 162.511 179.708 162.513 179.708 162.514C179.708 162.515 179.708 162.517 179.707 162.518C179.707 162.519 179.707 162.521 179.707 162.522C179.707 162.523 179.706 162.524 179.706 162.526C179.706 162.527 179.706 162.528 179.706 162.53C179.705 162.531 179.705 162.532 179.705 162.534C179.705 162.535 179.705 162.536 179.704 162.538C179.704 162.539 179.704 162.54 179.704 162.542C179.704 162.543 179.703 162.544 179.703 162.546C179.703 162.547 179.703 162.548 179.703 162.55C179.702 162.551 179.702 162.552 179.702 162.554C179.702 162.555 179.702 162.556 179.701 162.557C179.701 162.559 179.701 162.56 179.701 162.561C179.701 162.563 179.7 162.564 179.7 162.565C179.7 162.567 179.7 162.568 179.7 162.569C179.699 162.571 179.699 162.572 179.699 162.573C179.699 162.575 179.699 162.576 179.698 162.577C179.698 162.579 179.698 162.58 179.698 162.581C179.697 162.583 179.697 162.584 179.697 162.585C179.697 162.587 179.697 162.588 179.696 162.589C179.696 162.591 179.696 162.592 179.696 162.593C179.696 162.594 179.695 162.596 179.695 162.597C179.695 162.598 179.695 162.6 179.695 162.601C179.694 162.602 179.694 162.604 179.694 162.605C179.694 162.606 179.694 162.608 179.693 162.609C179.693 162.61 179.693 162.612 179.693 162.613C179.693 162.614 179.692 162.616 179.692 162.617C179.692 162.618 179.692 162.62 179.692 162.621C179.691 162.622 179.691 162.624 179.691 162.625C179.691 162.626 179.691 162.627 179.69 162.629C179.69 162.63 179.69 162.631 179.69 162.633C179.69 162.634 179.689 162.635 179.689 162.637C179.689 162.638 179.689 162.639 179.689 162.641C179.688 162.642 179.688 162.643 179.688 162.645C179.688 162.646 179.688 162.647 179.687 162.649C179.687 162.65 179.687 162.651 179.687 162.653C179.687 162.654 179.686 162.655 179.686 162.657C179.686 162.658 179.686 162.659 179.686 162.66C179.685 162.662 179.685 162.663 179.685 162.664C179.685 162.666 179.684 162.667 179.684 162.668C179.684 162.67 179.684 162.671 179.684 162.672C179.683 162.674 179.683 162.675 179.683 162.676C179.683 162.678 179.683 162.679 179.682 162.68C179.682 162.682 179.682 162.683 179.682 162.684C179.682 162.686 179.681 162.687 179.681 162.688C179.681 162.69 179.681 162.691 179.681 162.692C179.68 162.693 179.68 162.695 179.68 162.696C179.68 162.697 179.68 162.699 179.679 162.7C179.679 162.701 179.679 162.703 179.679 162.704C179.679 162.705 179.678 162.707 179.678 162.708C179.678 162.709 179.678 162.711 179.678 162.712C179.677 162.713 179.677 162.715 179.677 162.716C179.677 162.717 179.677 162.719 179.676 162.72C179.676 162.721 179.676 162.723 179.676 162.724C179.676 162.725 179.675 162.726 179.675 162.728C179.675 162.729 179.675 162.73 179.675 162.732C179.674 162.733 179.674 162.734 179.674 162.736C179.674 162.737 179.674 162.738 179.673 162.74C179.673 162.741 179.673 162.742 179.673 162.744C179.673 162.745 179.672 162.746 179.672 162.748C179.672 162.749 179.672 162.75 179.671 162.752C179.671 162.753 179.671 162.754 179.671 162.756C179.671 162.757 179.67 162.758 179.67 162.76C179.67 162.761 179.67 162.762 179.67 162.763C179.669 162.765 179.669 162.766 179.669 162.767C179.669 162.769 179.669 162.77 179.668 162.771C179.668 162.773 179.668 162.774 179.668 162.775C179.668 162.777 179.667 162.778 179.667 162.779C179.667 162.781 179.667 162.782 179.667 162.783C179.666 162.785 179.666 162.786 179.666 162.787C179.666 162.789 179.666 162.79 179.665 162.791C179.665 162.793 179.665 162.794 179.665 162.795C179.665 162.796 179.664 162.798 179.664 162.799C179.664 162.8 179.664 162.802 179.664 162.803C179.663 162.804 179.663 162.806 179.663 162.807C179.663 162.808 179.663 162.81 179.662 162.811C179.662 162.812 179.662 162.814 179.662 162.815C179.662 162.816 179.661 162.818 179.661 162.819C179.661 162.82 179.661 162.822 179.661 162.823C179.66 162.824 179.66 162.826 179.66 162.827C179.66 162.828 179.66 162.829 179.659 162.831C179.659 162.832 179.659 162.833 179.659 162.835C179.658 162.836 179.658 162.837 179.658 162.839C179.658 162.84 179.658 162.841 179.657 162.843C179.657 162.844 179.657 162.845 179.657 162.847C179.657 162.848 179.656 162.849 179.656 162.851C179.656 162.852 179.656 162.853 179.656 162.855C179.655 162.856 179.655 162.857 179.655 162.859C179.655 162.86 179.655 162.861 179.654 162.862C179.654 162.864 179.654 162.865 179.654 162.866C179.654 162.868 179.653 162.869 179.653 162.87C179.653 162.872 179.653 162.873 179.653 162.874C179.652 162.876 179.652 162.877 179.652 162.878C179.652 162.88 179.652 162.881 179.651 162.882C179.651 162.884 179.651 162.885 179.651 162.886C179.651 162.888 179.65 162.889 179.65 162.89C179.65 162.892 179.65 162.893 179.65 162.894C179.649 162.895 179.649 162.897 179.649 162.898C179.649 162.899 179.649 162.901 179.648 162.902C179.648 162.903 179.648 162.905 179.648 162.906C179.648 162.907 179.647 162.909 179.647 162.91C179.647 162.911 179.647 162.913 179.647 162.914C179.646 162.915 179.646 162.917 179.646 162.918C179.646 162.919 179.645 162.921 179.645 162.922C179.645 162.923 179.645 162.925 179.645 162.926C179.644 162.927 179.644 162.929 179.644 162.93C179.644 162.931 179.644 162.932 179.643 162.934C179.643 162.935 179.643 162.936 179.643 162.938C179.643 162.939 179.642 162.94 179.642 162.942C179.642 162.943 179.642 162.944 179.642 162.946C179.641 162.947 179.641 162.948 179.641 162.95C179.641 162.951 179.641 162.952 179.64 162.954C179.64 162.955 179.64 162.956 179.64 162.958C179.64 162.959 179.639 162.96 179.639 162.962C179.639 162.963 179.639 162.964 179.639 162.965C179.638 162.967 179.638 162.968 179.638 162.969C179.638 162.971 179.638 162.972 179.637 162.973C179.637 162.975 179.637 162.976 179.637 162.977C179.637 162.979 179.636 162.98 179.636 162.981C179.636 162.983 179.636 162.984 179.636 162.985C179.635 162.987 179.635 162.988 179.635 162.989C179.635 162.991 179.635 162.992 179.634 162.993C179.634 162.995 179.634 162.996 179.634 162.997C179.634 162.998 179.633 163 179.633 163.001C179.633 163.002 179.633 163.004 179.632 163.005C179.632 163.006 179.632 163.008 179.632 163.009C179.632 163.01 179.631 163.012 179.631 163.013C179.631 163.014 179.631 163.016 179.631 163.017C179.63 163.018 179.63 163.02 179.63 163.021C179.63 163.022 179.63 163.024 179.629 163.025C179.629 163.026 179.629 163.028 179.629 163.029C179.629 163.03 179.628 163.031 179.628 163.033C179.628 163.034 179.628 163.035 179.628 163.037C179.627 163.038 179.627 163.039 179.627 163.041C179.627 163.042 179.627 163.043 179.626 163.045C179.626 163.046 179.626 163.047 179.626 163.049C179.626 163.05 179.625 163.051 179.625 163.053C179.625 163.054 179.625 163.055 179.625 163.057C179.624 163.058 179.624 163.059 179.624 163.061C179.624 163.062 179.624 163.063 179.623 163.064C179.623 163.066 179.623 163.067 179.623 163.068C179.623 163.07 179.622 163.071 179.622 163.072C179.622 163.074 179.622 163.075 179.622 163.076C179.621 163.078 179.621 163.079 179.621 163.08C179.621 163.082 179.621 163.083 179.62 163.084C179.62 163.086 179.62 163.087 179.62 163.088C179.619 163.09 179.619 163.091 179.619 163.092C179.619 163.094 179.619 163.095 179.618 163.096C179.618 163.098 179.618 163.099 179.618 163.1C179.618 163.101 179.617 163.103 179.617 163.104C179.617 163.105 179.617 163.107 179.617 163.108C179.616 163.109 179.616 163.111 179.616 163.112C179.616 163.113 179.616 163.115 179.615 163.116C179.615 163.117 179.615 163.119 179.615 163.12C179.615 163.121 179.614 163.123 179.614 163.124C179.614 163.125 179.614 163.127 179.614 163.128C179.613 163.129 179.613 163.131 179.613 163.132C179.613 163.133 179.613 163.134 179.612 163.136C179.612 163.137 179.612 163.138 179.612 163.14C179.612 163.141 179.611 163.142 179.611 163.144C179.611 163.145 179.611 163.146 179.611 163.148C179.61 163.149 179.61 163.15 179.61 163.152C179.61 163.153 179.61 163.154 179.609 163.156C179.609 163.157 179.609 163.158 179.609 163.16C179.609 163.161 179.608 163.162 179.608 163.164C179.608 163.165 179.608 163.166 179.608 163.167C179.607 163.169 179.607 163.17 179.607 163.171C179.607 163.173 179.607 163.174 179.606 163.175C179.606 163.177 179.606 163.178 179.606 163.179C179.605 163.181 179.605 163.182 179.605 163.183C179.605 163.185 179.605 163.186 179.604 163.187C179.604 163.189 179.604 163.19 179.604 163.191C179.604 163.193 179.603 163.194 179.603 163.195C179.603 163.197 179.603 163.198 179.603 163.199C179.602 163.2 179.602 163.202 179.602 163.203C179.602 163.204 179.602 163.206 179.601 163.207C179.601 163.208 179.601 163.21 179.601 163.211C179.601 163.212 179.6 163.214 179.6 163.215C179.6 163.216 179.6 163.218 179.6 163.219C179.599 163.22 179.599 163.222 179.599 163.223C179.599 163.224 179.599 163.226 179.598 163.227C179.598 163.228 179.598 163.23 179.598 163.231C179.598 163.232 179.597 163.233 179.597 163.235C179.597 163.236 179.597 163.237 179.597 163.239C179.596 163.24 179.596 163.241 179.596 163.243C179.596 163.244 179.596 163.245 179.595 163.247C179.595 163.248 179.595 163.249 179.595 163.251C179.595 163.252 179.594 163.253 179.594 163.255C179.594 163.256 179.594 163.257 179.594 163.259C179.593 163.26 179.593 163.261 179.593 163.263C179.593 163.264 179.592 163.265 179.592 163.267C179.592 163.268 179.592 163.269 179.592 163.27C179.591 163.272 179.591 163.273 179.591 163.274C179.591 163.276 179.591 163.277 179.59 163.278C179.59 163.28 179.59 163.281 179.59 163.282C179.59 163.284 179.589 163.285 179.589 163.286C179.589 163.288 179.589 163.289 179.589 163.29C179.588 163.292 179.588 163.293 179.588 163.294C179.588 163.296 179.588 163.297 179.587 163.298C179.587 163.3 179.587 163.301 179.587 163.302C179.587 163.303 179.586 163.305 179.586 163.306C179.586 163.307 179.586 163.309 179.586 163.31C179.585 163.311 179.585 163.313 179.585 163.314C179.585 163.315 179.585 163.317 179.584 163.318C179.584 163.319 179.584 163.321 179.584 163.322L181.066 163.55C181.067 163.549 181.067 163.547 181.067 163.546C181.067 163.545 181.067 163.543 181.068 163.542C181.068 163.541 181.068 163.539 181.068 163.538C181.068 163.537 181.069 163.536 181.069 163.534C181.069 163.533 181.069 163.532 181.069 163.53C181.07 163.529 181.07 163.528 181.07 163.526C181.07 163.525 181.07 163.524 181.071 163.522C181.071 163.521 181.071 163.52 181.071 163.518C181.071 163.517 181.072 163.516 181.072 163.514C181.072 163.513 181.072 163.512 181.072 163.51C181.073 163.509 181.073 163.508 181.073 163.506C181.073 163.505 181.073 163.504 181.074 163.503C181.074 163.501 181.074 163.5 181.074 163.499C181.074 163.497 181.075 163.496 181.075 163.495C181.075 163.493 181.075 163.492 181.075 163.491C181.076 163.489 181.076 163.488 181.076 163.487C181.076 163.485 181.076 163.484 181.077 163.483C181.077 163.481 181.077 163.48 181.077 163.479C181.077 163.477 181.078 163.476 181.078 163.475C181.078 163.473 181.078 163.472 181.078 163.471C181.079 163.469 181.079 163.468 181.079 163.467C181.079 163.466 181.08 163.464 181.08 163.463C181.08 163.462 181.08 163.46 181.08 163.459C181.081 163.458 181.081 163.456 181.081 163.455C181.081 163.454 181.081 163.452 181.082 163.451C181.082 163.45 181.082 163.448 181.082 163.447C181.082 163.446 181.083 163.444 181.083 163.443C181.083 163.442 181.083 163.44 181.083 163.439C181.084 163.438 181.084 163.436 181.084 163.435C181.084 163.434 181.084 163.433 181.085 163.431C181.085 163.43 181.085 163.429 181.085 163.427C181.085 163.426 181.086 163.425 181.086 163.423C181.086 163.422 181.086 163.421 181.086 163.419C181.087 163.418 181.087 163.417 181.087 163.415C181.087 163.414 181.087 163.413 181.088 163.411C181.088 163.41 181.088 163.409 181.088 163.407C181.088 163.406 181.089 163.405 181.089 163.403C181.089 163.402 181.089 163.401 181.089 163.4C181.09 163.398 181.09 163.397 181.09 163.396C181.09 163.394 181.09 163.393 181.091 163.392C181.091 163.39 181.091 163.389 181.091 163.388C181.091 163.386 181.092 163.385 181.092 163.384C181.092 163.382 181.092 163.381 181.093 163.38C181.093 163.378 181.093 163.377 181.093 163.376C181.093 163.374 181.094 163.373 181.094 163.372C181.094 163.37 181.094 163.369 181.094 163.368C181.095 163.367 181.095 163.365 181.095 163.364C181.095 163.363 181.095 163.361 181.096 163.36C181.096 163.359 181.096 163.357 181.096 163.356C181.096 163.355 181.097 163.353 181.097 163.352C181.097 163.351 181.097 163.349 181.097 163.348C181.098 163.347 181.098 163.345 181.098 163.344C181.098 163.343 181.098 163.341 181.099 163.34C181.099 163.339 181.099 163.337 181.099 163.336C181.099 163.335 181.1 163.334 181.1 163.332C181.1 163.331 181.1 163.33 181.1 163.328C181.101 163.327 181.101 163.326 181.101 163.324C181.101 163.323 181.101 163.322 181.102 163.32C181.102 163.319 181.102 163.318 181.102 163.316C181.102 163.315 181.103 163.314 181.103 163.312C181.103 163.311 181.103 163.31 181.103 163.308C181.104 163.307 181.104 163.306 181.104 163.304C181.104 163.303 181.104 163.302 181.105 163.3C181.105 163.299 181.105 163.298 181.105 163.297C181.106 163.295 181.106 163.294 181.106 163.293C181.106 163.291 181.106 163.29 181.107 163.289C181.107 163.287 181.107 163.286 181.107 163.285C181.107 163.283 181.108 163.282 181.108 163.281C181.108 163.279 181.108 163.278 181.108 163.277C181.109 163.275 181.109 163.274 181.109 163.273C181.109 163.271 181.109 163.27 181.11 163.269C181.11 163.267 181.11 163.266 181.11 163.265C181.11 163.264 181.111 163.262 181.111 163.261C181.111 163.26 181.111 163.258 181.111 163.257C181.112 163.256 181.112 163.254 181.112 163.253C181.112 163.252 181.112 163.25 181.113 163.249C181.113 163.248 181.113 163.246 181.113 163.245C181.113 163.244 181.114 163.242 181.114 163.241C181.114 163.24 181.114 163.238 181.114 163.237C181.115 163.236 181.115 163.234 181.115 163.233C181.115 163.232 181.115 163.231 181.116 163.229C181.116 163.228 181.116 163.227 181.116 163.225C181.116 163.224 181.117 163.223 181.117 163.221C181.117 163.22 181.117 163.219 181.117 163.217C181.118 163.216 181.118 163.215 181.118 163.213C181.118 163.212 181.119 163.211 181.119 163.209C181.119 163.208 181.119 163.207 181.119 163.205C181.12 163.204 181.12 163.203 181.12 163.201C181.12 163.2 181.12 163.199 181.121 163.198C181.121 163.196 181.121 163.195 181.121 163.194C181.121 163.192 181.122 163.191 181.122 163.19C181.122 163.188 181.122 163.187 181.122 163.186C181.123 163.184 181.123 163.183 181.123 163.182C181.123 163.18 181.123 163.179 181.124 163.178C181.124 163.176 181.124 163.175 181.124 163.174C181.124 163.172 181.125 163.171 181.125 163.17C181.125 163.168 181.125 163.167 181.125 163.166C181.126 163.165 181.126 163.163 181.126 163.162C181.126 163.161 181.126 163.159 181.127 163.158C181.127 163.157 181.127 163.155 181.127 163.154C181.127 163.153 181.128 163.151 181.128 163.15C181.128 163.149 181.128 163.147 181.128 163.146C181.129 163.145 181.129 163.143 181.129 163.142C181.129 163.141 181.129 163.139 181.13 163.138C181.13 163.137 181.13 163.135 181.13 163.134C181.13 163.133 181.131 163.131 181.131 163.13C181.131 163.129 181.131 163.128 181.132 163.126C181.132 163.125 181.132 163.124 181.132 163.122C181.132 163.121 181.133 163.12 181.133 163.118C181.133 163.117 181.133 163.116 181.133 163.114C181.134 163.113 181.134 163.112 181.134 163.11C181.134 163.109 181.134 163.108 181.135 163.106C181.135 163.105 181.135 163.104 181.135 163.102C181.135 163.101 181.136 163.1 181.136 163.098C181.136 163.097 181.136 163.096 181.136 163.095C181.137 163.093 181.137 163.092 181.137 163.091C181.137 163.089 181.137 163.088 181.138 163.087C181.138 163.085 181.138 163.084 181.138 163.083C181.138 163.081 181.139 163.08 181.139 163.079C181.139 163.077 181.139 163.076 181.139 163.075C181.14 163.073 181.14 163.072 181.14 163.071C181.14 163.069 181.14 163.068 181.141 163.067C181.141 163.065 181.141 163.064 181.141 163.063C181.141 163.062 181.142 163.06 181.142 163.059C181.142 163.058 181.142 163.056 181.142 163.055C181.143 163.054 181.143 163.052 181.143 163.051C181.143 163.05 181.143 163.048 181.144 163.047C181.144 163.046 181.144 163.044 181.144 163.043C181.145 163.042 181.145 163.04 181.145 163.039C181.145 163.038 181.145 163.036 181.146 163.035C181.146 163.034 181.146 163.032 181.146 163.031C181.146 163.03 181.147 163.029 181.147 163.027C181.147 163.026 181.147 163.025 181.147 163.023C181.148 163.022 181.148 163.021 181.148 163.019C181.148 163.018 181.148 163.017 181.149 163.015C181.149 163.014 181.149 163.013 181.149 163.011C181.149 163.01 181.15 163.009 181.15 163.007C181.15 163.006 181.15 163.005 181.15 163.003C181.151 163.002 181.151 163.001 181.151 162.999C181.151 162.998 181.151 162.997 181.152 162.996C181.152 162.994 181.152 162.993 181.152 162.992C181.152 162.99 181.153 162.989 181.153 162.988C181.153 162.986 181.153 162.985 181.153 162.984C181.154 162.982 181.154 162.981 181.154 162.98C181.154 162.978 181.154 162.977 181.155 162.976C181.155 162.974 181.155 162.973 181.155 162.972C181.155 162.97 181.156 162.969 181.156 162.968C181.156 162.966 181.156 162.965 181.156 162.964C181.157 162.962 181.157 162.961 181.157 162.96C181.157 162.959 181.158 162.957 181.158 162.956C181.158 162.955 181.158 162.953 181.158 162.952C181.159 162.951 181.159 162.949 181.159 162.948C181.159 162.947 181.159 162.945 181.16 162.944C181.16 162.943 181.16 162.941 181.16 162.94C181.16 162.939 181.161 162.937 181.161 162.936C181.161 162.935 181.161 162.933 181.161 162.932C181.162 162.931 181.162 162.929 181.162 162.928C181.162 162.927 181.162 162.926 181.163 162.924C181.163 162.923 181.163 162.922 181.163 162.92C181.163 162.919 181.164 162.918 181.164 162.916C181.164 162.915 181.164 162.914 181.164 162.912C181.165 162.911 181.165 162.91 181.165 162.908C181.165 162.907 181.165 162.906 181.166 162.904C181.166 162.903 181.166 162.902 181.166 162.9C181.166 162.899 181.167 162.898 181.167 162.896C181.167 162.895 181.167 162.894 181.167 162.893C181.168 162.891 181.168 162.89 181.168 162.889C181.168 162.887 181.168 162.886 181.169 162.885C181.169 162.883 181.169 162.882 181.169 162.881C181.169 162.879 181.17 162.878 181.17 162.877C181.17 162.875 181.17 162.874 181.171 162.873C181.171 162.871 181.171 162.87 181.171 162.869C181.171 162.867 181.172 162.866 181.172 162.865C181.172 162.863 181.172 162.862 181.172 162.861C181.173 162.86 181.173 162.858 181.173 162.857C181.173 162.856 181.173 162.854 181.174 162.853C181.174 162.852 181.174 162.85 181.174 162.849C181.174 162.848 181.175 162.846 181.175 162.845C181.175 162.844 181.175 162.842 181.175 162.841C181.176 162.84 181.176 162.838 181.176 162.837C181.176 162.836 181.176 162.834 181.177 162.833C181.177 162.832 181.177 162.83 181.177 162.829C181.177 162.828 181.178 162.827 181.178 162.825C181.178 162.824 181.178 162.823 181.178 162.821C181.179 162.82 181.179 162.819 181.179 162.817C181.179 162.816 181.179 162.815 181.18 162.813C181.18 162.812 181.18 162.811 181.18 162.809C181.18 162.808 181.181 162.807 181.181 162.805C181.181 162.804 181.181 162.803 181.181 162.801C181.182 162.8 181.182 162.799 181.182 162.797C181.182 162.796 181.182 162.795 181.183 162.793C181.183 162.792 181.183 162.791 181.183 162.79C181.184 162.788 181.184 162.787 181.184 162.786C181.184 162.784 181.184 162.783 181.185 162.782C181.185 162.78 181.185 162.779 181.185 162.778C181.185 162.776 181.186 162.775 181.186 162.774C181.186 162.772 181.186 162.771 181.186 162.77C181.187 162.768 181.187 162.767 181.187 162.766C181.187 162.764 181.187 162.763 181.188 162.762C181.188 162.76 181.188 162.759 181.188 162.758C181.188 162.757 181.189 162.755 181.189 162.754C181.189 162.753 181.189 162.751 181.189 162.75C181.19 162.749 181.19 162.747 181.19 162.746C181.19 162.745 181.19 162.743 181.191 162.742C181.191 162.741 181.191 162.739 181.191 162.738C181.191 162.737 181.192 162.735 181.192 162.734C181.192 162.733 181.192 162.731 181.192 162.73C181.193 162.729 181.193 162.727 181.193 162.726C181.193 162.725 181.193 162.724 181.194 162.722C181.194 162.721 181.194 162.72 181.194 162.718C181.194 162.717 181.195 162.716 181.195 162.714C181.195 162.713 181.195 162.712 181.195 162.71C181.196 162.709 181.196 162.708 181.196 162.706C181.196 162.705 181.197 162.704 181.197 162.702C181.197 162.701 181.197 162.7 181.197 162.698C181.198 162.697 181.198 162.696 181.198 162.694C181.198 162.693 181.198 162.692 181.199 162.691C181.199 162.689 181.199 162.688 181.199 162.687C181.199 162.685 181.2 162.684 181.2 162.683C181.2 162.681 181.2 162.68 181.2 162.679C181.201 162.677 181.201 162.676 181.201 162.675C181.201 162.673 181.201 162.672 181.202 162.671C181.202 162.669 181.202 162.668 181.202 162.667C181.202 162.665 181.203 162.664 181.203 162.663C181.203 162.661 181.203 162.66 181.203 162.659C181.204 162.658 181.204 162.656 181.204 162.655C181.204 162.654 181.204 162.652 181.205 162.651C181.205 162.65 181.205 162.648 181.205 162.647C181.205 162.646 181.206 162.644 181.206 162.643C181.206 162.642 181.206 162.64 181.206 162.639C181.207 162.638 181.207 162.636 181.207 162.635C181.207 162.634 181.207 162.632 181.208 162.631C181.208 162.63 181.208 162.628 181.208 162.627C181.208 162.626 181.209 162.624 181.209 162.623C181.209 162.622 181.209 162.621 181.21 162.619C181.21 162.618 181.21 162.617 181.21 162.615C181.21 162.614 181.211 162.613 181.211 162.611C181.211 162.61 181.211 162.609 181.211 162.607C181.212 162.606 181.212 162.605 181.212 162.603C181.212 162.602 181.212 162.601 181.213 162.599C181.213 162.598 181.213 162.597 181.213 162.595C181.213 162.594 181.214 162.593 181.214 162.591C181.214 162.59 181.214 162.589 181.214 162.588C181.215 162.586 181.215 162.585 181.215 162.584C181.215 162.582 181.215 162.581 181.216 162.58C181.216 162.578 181.216 162.577 181.216 162.576C181.216 162.574 181.217 162.573 181.217 162.572C181.217 162.57 181.217 162.569 181.217 162.568C181.218 162.566 181.218 162.565 181.218 162.564C181.218 162.562 181.218 162.561 181.219 162.56C181.219 162.558 181.219 162.557 181.219 162.556C181.219 162.555 181.22 162.553 181.22 162.552C181.22 162.551 181.22 162.549 181.22 162.548C181.221 162.547 181.221 162.545 181.221 162.544C181.221 162.543 181.221 162.541 181.222 162.54C181.222 162.539 181.222 162.537 181.222 162.536C181.223 162.535 181.223 162.533 181.223 162.532C181.223 162.531 181.223 162.529 181.224 162.528C181.224 162.527 181.224 162.525 181.224 162.524C181.224 162.523 181.225 162.522 181.225 162.52C181.225 162.519 181.225 162.518 181.225 162.516C181.226 162.515 181.226 162.514 181.226 162.512C181.226 162.511 181.226 162.51 181.227 162.508C181.227 162.507 181.227 162.506 181.227 162.504C181.227 162.503 181.228 162.502 181.228 162.5C181.228 162.499 181.228 162.498 181.228 162.496C181.229 162.495 181.229 162.494 181.229 162.492C181.229 162.491 181.229 162.49 181.23 162.489C181.23 162.487 181.23 162.486 181.23 162.485C181.23 162.483 181.231 162.482 181.231 162.481C181.231 162.479 181.231 162.478 181.231 162.477C181.232 162.475 181.232 162.474 181.232 162.473C181.232 162.471 181.232 162.47 181.233 162.469C181.233 162.467 181.233 162.466 181.233 162.465C181.233 162.463 181.234 162.462 181.234 162.461C181.234 162.459 181.234 162.458 181.234 162.457C181.235 162.455 181.235 162.454 181.235 162.453C181.235 162.452 181.236 162.45 181.236 162.449C181.236 162.448 181.236 162.446 181.236 162.445C181.237 162.444 181.237 162.442 181.237 162.441C181.237 162.44 181.237 162.438 181.238 162.437C181.238 162.436 181.238 162.434 181.238 162.433C181.238 162.432 181.239 162.43 181.239 162.429C181.239 162.428 181.239 162.426 181.239 162.425C181.24 162.424 181.24 162.422 181.24 162.421C181.24 162.42 181.24 162.419 181.241 162.417C181.241 162.416 181.241 162.415 181.241 162.413C181.241 162.412 181.242 162.411 181.242 162.409C181.242 162.408 181.242 162.407 181.242 162.405C181.243 162.404 181.243 162.403 181.243 162.401C181.243 162.4 181.243 162.399 181.244 162.397C181.244 162.396 181.244 162.395 181.244 162.393C181.244 162.392 181.245 162.391 181.245 162.389C181.245 162.388 181.245 162.387 181.245 162.386C181.246 162.384 181.246 162.383 181.246 162.382C181.246 162.38 181.246 162.379 181.247 162.378C181.247 162.376 181.247 162.375 181.247 162.374C181.247 162.372 181.248 162.371 181.248 162.37C181.248 162.368 181.248 162.367 181.249 162.366C181.249 162.364 181.249 162.363 181.249 162.362C181.249 162.36 181.25 162.359 181.25 162.358C181.25 162.356 181.25 162.355 181.25 162.354C181.251 162.353 181.251 162.351 181.251 162.35C181.251 162.349 181.251 162.347 181.252 162.346C181.252 162.345 181.252 162.343 181.252 162.342C181.252 162.341 181.253 162.339 181.253 162.338C181.253 162.337 181.253 162.335 181.253 162.334C181.254 162.333 181.254 162.331 181.254 162.33C181.254 162.329 181.254 162.327 181.255 162.326C181.255 162.325 181.255 162.323 181.255 162.322C181.255 162.321 181.256 162.32 181.256 162.318C181.256 162.317 181.256 162.316 181.256 162.314C181.257 162.313 181.257 162.312 181.257 162.31C181.257 162.309 181.257 162.308 181.258 162.306C181.258 162.305 181.258 162.304 181.258 162.302C181.258 162.301 181.259 162.3 181.259 162.298C181.259 162.297 181.259 162.296 181.259 162.294C181.26 162.293 181.26 162.292 181.26 162.29C181.26 162.289 181.26 162.288 181.261 162.286C181.261 162.285 181.261 162.284 181.261 162.283C181.262 162.281 181.262 162.28 181.262 162.279C181.262 162.277 181.262 162.276 181.263 162.275C181.263 162.273 181.263 162.272 181.263 162.271C181.263 162.269 181.264 162.268 181.264 162.267C181.264 162.265 181.264 162.264 181.264 162.263C181.265 162.261 181.265 162.26 181.265 162.259C181.265 162.257 181.265 162.256 181.266 162.255C181.266 162.253 181.266 162.252 181.266 162.251C181.266 162.25 181.267 162.248 181.267 162.247C181.267 162.246 181.267 162.244 181.267 162.243C181.268 162.242 181.268 162.24 181.268 162.239C181.268 162.238 181.268 162.236 181.269 162.235C181.269 162.234 181.269 162.232 181.269 162.231C181.269 162.23 181.27 162.228 181.27 162.227C181.27 162.226 181.27 162.224 181.27 162.223C181.271 162.222 181.271 162.22 181.271 162.219C181.271 162.218 181.271 162.217 181.272 162.215C181.272 162.214 181.272 162.213 181.272 162.211C181.272 162.21 181.273 162.209 181.273 162.207C181.273 162.206 181.273 162.205 181.273 162.203C181.274 162.202 181.274 162.201 181.274 162.199C181.274 162.198 181.275 162.197 181.275 162.195C181.275 162.194 181.275 162.193 181.275 162.191C181.276 162.19 181.276 162.189 181.276 162.187C181.276 162.186 181.276 162.185 181.277 162.184C181.277 162.182 181.277 162.181 181.277 162.18C181.277 162.178 181.278 162.177 181.278 162.176C181.278 162.174 181.278 162.173 181.278 162.172C181.279 162.17 181.279 162.169 181.279 162.168C181.279 162.166 181.279 162.165 181.28 162.164C181.28 162.162 181.28 162.161 181.28 162.16C181.28 162.158 181.281 162.157 181.281 162.156C181.281 162.154 181.281 162.153 181.281 162.152C181.282 162.151 181.282 162.149 181.282 162.148C181.282 162.147 181.282 162.145 181.283 162.144C181.283 162.143 181.283 162.141 181.283 162.14C181.283 162.139 181.284 162.137 181.284 162.136C181.284 162.135 181.284 162.133 181.284 162.132C181.285 162.131 181.285 162.129 181.285 162.128C181.285 162.127 181.285 162.125 181.286 162.124C181.286 162.123 181.286 162.121 181.286 162.12C181.286 162.119 181.287 162.117 181.287 162.116C181.287 162.115 181.287 162.114 181.288 162.112C181.288 162.111 181.288 162.11 181.288 162.108C181.288 162.107 181.289 162.106 181.289 162.104C181.289 162.103 181.289 162.102 181.289 162.1C181.29 162.099 181.29 162.098 181.29 162.096C181.29 162.095 181.29 162.094 181.291 162.092C181.291 162.091 181.291 162.09 181.291 162.088C181.291 162.087 181.292 162.086 181.292 162.084C181.292 162.083 181.292 162.082 181.292 162.081C181.293 162.079 181.293 162.078 181.293 162.077C181.293 162.075 181.293 162.074 181.294 162.073C181.294 162.071 181.294 162.07 181.294 162.069C181.294 162.067 181.295 162.066 181.295 162.065C181.295 162.063 181.295 162.062 181.295 162.061C181.296 162.059 181.296 162.058 181.296 162.057C181.296 162.055 181.296 162.054 181.297 162.053C181.297 162.051 181.297 162.05 181.297 162.049C181.297 162.048 181.298 162.046 181.298 162.045C181.298 162.044 181.298 162.042 181.298 162.041C181.299 162.04 181.299 162.038 181.299 162.037C181.299 162.036 181.299 162.034 181.3 162.033C181.3 162.032 181.3 162.03 181.3 162.029C181.301 162.028 181.301 162.026 181.301 162.025C181.301 162.024 181.301 162.022 181.302 162.021C181.302 162.02 181.302 162.018 181.302 162.017C181.302 162.016 181.303 162.015 181.303 162.013C181.303 162.012 181.303 162.011 181.303 162.009C181.304 162.008 181.304 162.007 181.304 162.005C181.304 162.004 181.304 162.003 181.305 162.001C181.305 162 181.305 161.999 181.305 161.997C181.305 161.996 181.306 161.995 181.306 161.993C181.306 161.992 181.306 161.991 181.306 161.989C181.307 161.988 181.307 161.987 181.307 161.985C181.307 161.984 181.307 161.983 181.308 161.982C181.308 161.98 181.308 161.979 181.308 161.978C181.308 161.976 181.309 161.975 181.309 161.974C181.309 161.972 181.309 161.971 181.309 161.97C181.31 161.968 181.31 161.967 181.31 161.966C181.31 161.964 181.31 161.963 181.311 161.962C181.311 161.96 181.311 161.959 181.311 161.958C181.311 161.956 181.312 161.955 181.312 161.954C181.312 161.952 181.312 161.951 181.312 161.95C181.313 161.948 181.313 161.947 181.313 161.946C181.313 161.945 181.314 161.943 181.314 161.942C181.314 161.941 181.314 161.939 181.314 161.938C181.315 161.937 181.315 161.935 181.315 161.934C181.315 161.933 181.315 161.931 181.316 161.93C181.316 161.929 181.316 161.927 181.316 161.926C181.316 161.925 181.317 161.923 181.317 161.922C181.317 161.921 181.317 161.919 181.317 161.918C181.318 161.917 181.318 161.915 181.318 161.914C181.318 161.913 181.318 161.912 181.319 161.91C181.319 161.909 181.319 161.908 181.319 161.906C181.319 161.905 181.32 161.904 181.32 161.902C181.32 161.901 181.32 161.9 181.32 161.898C181.321 161.897 181.321 161.896 181.321 161.894C181.321 161.893 181.321 161.892 181.322 161.89C181.322 161.889 181.322 161.888 181.322 161.886C181.322 161.885 181.323 161.884 181.323 161.882C181.323 161.881 181.323 161.88 181.323 161.879C181.324 161.877 181.324 161.876 181.324 161.875C181.324 161.873 181.324 161.872 181.325 161.871C181.325 161.869 181.325 161.868 181.325 161.867C181.325 161.865 181.326 161.864 181.326 161.863C181.326 161.861 181.326 161.86 181.327 161.859C181.327 161.857 181.327 161.856 181.327 161.855C181.327 161.853 181.328 161.852 181.328 161.851C181.328 161.849 181.328 161.848 181.328 161.847C181.329 161.846 181.329 161.844 181.329 161.843C181.329 161.842 181.329 161.84 181.33 161.839C181.33 161.838 181.33 161.836 181.33 161.835C181.33 161.834 181.331 161.832 181.331 161.831C181.331 161.83 181.331 161.828 181.331 161.827C181.332 161.826 181.332 161.824 181.332 161.823C181.332 161.822 181.332 161.82 181.333 161.819C181.333 161.818 181.333 161.816 181.333 161.815C181.333 161.814 181.334 161.813 181.334 161.811C181.334 161.81 181.334 161.809 181.334 161.807C181.335 161.806 181.335 161.805 181.335 161.803C181.335 161.802 181.335 161.801 181.336 161.799C181.336 161.798 181.336 161.797 181.336 161.795C181.336 161.794 181.337 161.793 181.337 161.791C181.337 161.79 181.337 161.789 181.337 161.787C181.338 161.786 181.338 161.785 181.338 161.783C181.338 161.782 181.338 161.781 181.339 161.779C181.339 161.778 181.339 161.777 181.339 161.776C181.34 161.774 181.34 161.773 181.34 161.772C181.34 161.77 181.34 161.769 181.341 161.768C181.341 161.766 181.341 161.765 181.341 161.764C181.341 161.762 181.342 161.761 181.342 161.76C181.342 161.758 181.342 161.757 181.342 161.756C181.343 161.754 181.343 161.753 181.343 161.752C181.343 161.75 181.343 161.749 181.344 161.748C181.344 161.746 181.344 161.745 181.344 161.744C181.344 161.743 181.345 161.741 181.345 161.74C181.345 161.739 181.345 161.737 181.345 161.736C181.346 161.735 181.346 161.733 181.346 161.732C181.346 161.731 181.346 161.729 181.347 161.728C181.347 161.727 181.347 161.725 181.347 161.724C181.347 161.723 181.348 161.721 181.348 161.72C181.348 161.719 181.348 161.717 181.348 161.716C181.349 161.715 181.349 161.713 181.349 161.712C181.349 161.711 181.349 161.71 181.35 161.708C181.35 161.707 181.35 161.706 181.35 161.704C181.35 161.703 181.351 161.702 181.351 161.7C181.351 161.699 181.351 161.698 181.351 161.696C181.352 161.695 181.352 161.694 181.352 161.692C181.352 161.691 181.353 161.69 181.353 161.688C181.353 161.687 181.353 161.686 181.353 161.684C181.354 161.683 181.354 161.682 181.354 161.68C181.354 161.679 181.354 161.678 181.355 161.677C181.355 161.675 181.355 161.674 181.355 161.673C181.355 161.671 181.356 161.67 181.356 161.669C181.356 161.667 181.356 161.666 181.356 161.665C181.357 161.663 181.357 161.662 181.357 161.661C181.357 161.659 181.357 161.658 181.358 161.657C181.358 161.655 181.358 161.654 181.358 161.653C181.358 161.651 181.359 161.65 181.359 161.649C181.359 161.647 181.359 161.646 181.359 161.645C181.36 161.644 181.36 161.642 181.36 161.641C181.36 161.64 181.36 161.638 181.361 161.637C181.361 161.636 181.361 161.634 181.361 161.633C181.361 161.632 181.362 161.63 181.362 161.629C181.362 161.628 181.362 161.626 181.362 161.625C181.363 161.624 181.363 161.622 181.363 161.621C181.363 161.62 181.363 161.618 181.364 161.617C181.364 161.616 181.364 161.614 181.364 161.613C181.364 161.612 181.365 161.61 181.365 161.609C181.365 161.608 181.365 161.607 181.366 161.605C181.366 161.604 181.366 161.603 181.366 161.601C181.366 161.6 181.367 161.599 181.367 161.597C181.367 161.596 181.367 161.595 181.367 161.593C181.368 161.592 181.368 161.591 181.368 161.589C181.368 161.588 181.368 161.587 181.369 161.585C181.369 161.584 181.369 161.583 181.369 161.581C181.369 161.58 181.37 161.579 181.37 161.577C181.37 161.576 181.37 161.575 181.37 161.574C181.371 161.572 181.371 161.571 181.371 161.57C181.371 161.568 181.371 161.567 181.372 161.566C181.372 161.564 181.372 161.563 181.372 161.562C181.372 161.56 181.373 161.559 181.373 161.558C181.373 161.556 181.373 161.555 181.373 161.554C181.374 161.552 181.374 161.551 181.374 161.55C181.374 161.548 181.374 161.547 181.375 161.546C181.375 161.544 181.375 161.543 181.375 161.542C181.375 161.541 181.376 161.539 181.376 161.538C181.376 161.537 181.376 161.535 181.376 161.534C181.377 161.533 181.377 161.531 181.377 161.53C181.377 161.529 181.377 161.527 181.378 161.526C181.378 161.525 181.378 161.523 181.378 161.522L179.896 161.294ZM179.584 163.322C179.485 163.961 179.338 164.601 179.14 165.243L180.574 165.685C180.792 164.975 180.957 164.263 181.066 163.55L179.584 163.322ZM179.119 165.598C179.228 166.196 179.364 166.769 179.529 167.318L180.965 166.886C180.818 166.395 180.694 165.876 180.595 165.33L179.119 165.598ZM179.529 167.318C179.697 167.877 179.899 168.375 180.142 168.8L181.444 168.056C181.271 167.753 181.11 167.367 180.965 166.886L179.529 167.318ZM180.122 168.763C181.395 171.308 182.932 173.694 184.734 175.92L185.9 174.976C184.166 172.834 182.687 170.54 181.464 168.093L180.122 168.763ZM184.747 175.935C186.597 178.102 188.632 180.084 190.851 181.881L191.795 180.715C189.647 178.976 187.678 177.058 185.887 174.961L184.747 175.935ZM190.851 181.881C193.071 183.678 195.45 185.264 197.986 186.637L198.7 185.319C196.244 183.988 193.943 182.454 191.795 180.715L190.851 181.881ZM198.002 186.646C200.59 187.966 203.233 189.024 205.931 189.818L206.355 188.378C203.749 187.612 201.192 186.59 198.684 185.31L198.002 186.646ZM205.906 189.81C205.994 189.839 206.026 189.871 206.056 189.959L207.479 189.485C207.3 188.949 206.916 188.565 206.38 188.386L205.906 189.81ZM206.056 189.959C206.114 190.134 206.098 190.234 206.071 190.301L207.463 190.859C207.644 190.406 207.628 189.934 207.479 189.485L206.056 189.959ZM206.088 190.261L204.84 192.913L206.198 193.551L207.446 190.899L206.088 190.261ZM204.876 192.846C204.762 193.037 204.642 193.167 204.523 193.256L205.423 194.456C205.72 194.233 205.964 193.947 206.162 193.618L204.876 192.846ZM204.443 193.326C204.587 193.181 204.728 193.211 204.66 193.206C204.635 193.204 204.587 193.197 204.512 193.176C204.439 193.156 204.348 193.126 204.238 193.082L203.68 194.474C203.971 194.591 204.267 194.68 204.545 194.701C204.815 194.722 205.203 194.687 205.503 194.386L204.443 193.326ZM204.211 193.072C198.462 191.018 193.309 188.172 188.749 184.534L187.813 185.706C192.509 189.452 197.808 192.378 203.707 194.484L204.211 193.072ZM188.752 184.536C184.246 180.901 180.644 176.683 177.936 171.882L176.63 172.618C179.435 177.593 183.164 181.955 187.81 185.704L188.752 184.536ZM176.612 171.915C174.213 176.712 170.841 181.085 166.484 185.032L167.491 186.144C171.973 182.083 175.465 177.564 177.954 172.585L176.612 171.915ZM166.487 185.029C162.138 188.918 157.174 191.912 151.591 194.012L152.119 195.416C157.872 193.252 162.996 190.162 167.487 186.147L166.487 185.029ZM151.592 194.012C151.228 194.148 151.047 194.146 150.988 194.135C150.97 194.131 150.981 194.13 150.998 194.145C151.013 194.158 151.006 194.16 150.991 194.123L149.599 194.681C149.79 195.16 150.169 195.5 150.694 195.605C151.155 195.698 151.65 195.592 152.118 195.416L151.592 194.012ZM150.962 194.059L149.558 191.329L148.224 192.015L149.628 194.745L150.962 194.059ZM149.587 191.393C149.534 191.261 149.527 191.148 149.548 191.039L148.078 190.745C147.995 191.156 148.04 191.563 148.195 191.951L149.587 191.393ZM149.525 191.129C149.562 191.018 149.626 190.934 149.772 190.861L149.102 189.519C148.624 189.758 148.273 190.142 148.102 190.655L149.525 191.129ZM149.709 190.889C157.031 188.044 162.986 184.055 167.548 178.91L166.426 177.914C162.044 182.857 156.299 186.72 149.165 189.491L149.709 190.889ZM167.548 178.91C172.166 173.708 174.987 167.724 175.997 160.973L174.513 160.751C173.547 167.208 170.856 172.924 166.426 177.914L167.548 178.91ZM176.002 160.924C176.019 160.731 176.068 160.7 176.056 160.711C176.044 160.723 176.077 160.676 176.269 160.676V159.176C175.837 159.176 175.389 159.285 175.039 159.609C174.689 159.932 174.544 160.369 174.508 160.8L176.002 160.924ZM176.186 160.671L179.696 161.061L179.862 159.571L176.352 159.181L176.186 160.671ZM179.656 161.056C179.753 161.072 179.81 161.094 179.841 161.11C179.855 161.117 179.864 161.123 179.867 161.126C179.869 161.128 179.87 161.129 179.871 161.13C179.872 161.13 179.872 161.13 179.872 161.13C179.872 161.13 179.872 161.131 179.872 161.131C179.873 161.132 179.873 161.133 179.874 161.135C179.876 161.138 179.879 161.147 179.883 161.162C179.89 161.193 179.898 161.251 179.89 161.346L181.384 161.47C181.421 161.037 181.347 160.581 181.051 160.204C180.756 159.828 180.331 159.648 179.902 159.576L179.656 161.056Z" fill="#F99BA7"/>
</svg>
