<svg width="567" height="159" viewBox="0 0 567 159" fill="none" xmlns="http://www.w3.org/2000/svg">
<path d="M175.5 8.40359V8.40452V108.776C175.5 113.045 171.161 116.68 165.572 116.68H81.4802C80.6017 116.68 79.7552 117.01 79.109 117.606L53.7242 140.988C52.0012 142.575 49.2376 141.134 49.5532 138.812L52.0226 120.652C52.3083 118.551 50.6749 116.68 48.5545 116.68H10.4277C4.83905 116.68 0.5 113.045 0.5 108.776V8.40452C0.5 4.13458 4.83905 0.5 10.4277 0.5H165.546C165.558 0.500935 165.571 0.501403 165.584 0.501406C171.166 0.502739 175.508 4.13704 175.5 8.40359Z" fill="#F99BA7" stroke="white"/>
<path d="M328.5 24.4036V24.4045V124.776C328.5 129.045 324.161 132.68 318.572 132.68H234.48C233.602 132.68 232.755 133.01 232.109 133.606L206.724 156.988C205.001 158.575 202.238 157.134 202.553 154.812L205.023 136.652C205.308 134.551 203.675 132.68 201.554 132.68H163.428C157.839 132.68 153.5 129.045 153.5 124.776V24.4045C153.5 20.1346 157.839 16.5 163.428 16.5H318.546C318.558 16.5009 318.571 16.5014 318.584 16.5014C324.166 16.5027 328.508 20.137 328.5 24.4036Z" fill="#F99BA7" stroke="white"/>
<path d="M69.4983 57.104C69.4983 57.776 69.1863 58.112 68.5623 58.112H29.6823C27.5703 58.112 26.1303 57.776 25.3623 57.104C24.5943 56.384 24.2103 55.016 24.2103 53V36.08C24.2103 34.064 24.5943 32.72 25.3623 32.048C26.1303 31.328 27.5703 30.968 29.6823 30.968H68.0583C68.6823 30.968 68.9943 31.28 68.9943 31.904V34.28C68.9943 34.952 68.6823 35.288 68.0583 35.288H30.9062C30.2343 35.288 29.7783 35.432 29.5383 35.72C29.2983 36.008 29.1783 36.512 29.1783 37.232V51.848C29.1783 52.52 29.2983 53.024 29.5383 53.36C29.7783 53.648 30.2343 53.792 30.9062 53.792H68.5623C69.1863 53.792 69.4983 54.104 69.4983 54.728V57.104ZM45.0183 95.48C44.7783 95.48 44.5623 95.36 44.3703 95.12C44.1783 94.928 44.0823 94.688 44.0823 94.4V71.576H16.1463C15.8583 71.576 15.5943 71.48 15.3543 71.288C15.1623 71.096 15.0663 70.88 15.0663 70.64V68.192C15.0663 67.904 15.1623 67.688 15.3543 67.544C15.5943 67.352 15.8583 67.256 16.1463 67.256H77.3463C77.5863 67.256 77.8263 67.352 78.0663 67.544C78.3063 67.688 78.4263 67.904 78.4263 68.192V70.64C78.4263 70.88 78.3063 71.096 78.0663 71.288C77.8263 71.48 77.5863 71.576 77.3463 71.576H49.0503V94.4C49.0503 94.688 48.9543 94.928 48.7623 95.12C48.6183 95.36 48.4023 95.48 48.1143 95.48H45.0183ZM98.3292 71.504V65.456H113.953V71.504H98.3292ZM98.3292 55.736H113.953V61.712H98.3292V55.736ZM135.625 55.736V61.712H119.137V55.736H135.625ZM135.625 71.504H119.137V65.456H135.625V71.504ZM148.081 80.864H119.137V75.464H140.881V51.776H119.137V46.736H138.001V42.56H119.137V37.16H141.457V46.448H146.785V32.48H86.6652V46.448H91.8492V37.16H113.953V42.56H95.3052V46.736H113.953V51.776H93.2892V75.464H113.953V80.864H85.4412V85.688H113.953V94.616H119.137V85.688H148.081V80.864Z" fill="white"/>
<path d="M224.498 72.104C224.498 72.776 224.186 73.112 223.562 73.112H184.682C182.57 73.112 181.13 72.776 180.362 72.104C179.594 71.384 179.21 70.016 179.21 68V51.08C179.21 49.064 179.594 47.72 180.362 47.048C181.13 46.328 182.57 45.968 184.682 45.968H223.058C223.682 45.968 223.994 46.28 223.994 46.904V49.28C223.994 49.952 223.682 50.288 223.058 50.288H185.906C185.234 50.288 184.778 50.432 184.538 50.72C184.298 51.008 184.178 51.512 184.178 52.232V66.848C184.178 67.52 184.298 68.024 184.538 68.36C184.778 68.648 185.234 68.792 185.906 68.792H223.562C224.186 68.792 224.498 69.104 224.498 69.728V72.104ZM200.018 110.48C199.778 110.48 199.562 110.36 199.37 110.12C199.178 109.928 199.082 109.688 199.082 109.4V86.576H171.146C170.858 86.576 170.594 86.48 170.354 86.288C170.162 86.096 170.066 85.88 170.066 85.64V83.192C170.066 82.904 170.162 82.688 170.354 82.544C170.594 82.352 170.858 82.256 171.146 82.256H232.346C232.586 82.256 232.826 82.352 233.066 82.544C233.306 82.688 233.426 82.904 233.426 83.192V85.64C233.426 85.88 233.306 86.096 233.066 86.288C232.826 86.48 232.586 86.576 232.346 86.576H204.05V109.4C204.05 109.688 203.954 109.928 203.762 110.12C203.618 110.36 203.402 110.48 203.114 110.48H200.018ZM253.329 86.504V80.456H268.953V86.504H253.329ZM253.329 70.736H268.953V76.712H253.329V70.736ZM290.625 70.736V76.712H274.137V70.736H290.625ZM290.625 86.504H274.137V80.456H290.625V86.504ZM303.081 95.864H274.137V90.464H295.881V66.776H274.137V61.736H293.001V57.56H274.137V52.16H296.457V61.448H301.785V47.48H241.665V61.448H246.849V52.16H268.953V57.56H250.305V61.736H268.953V66.776H248.289V90.464H268.953V95.864H240.441V100.688H268.953V109.616H274.137V100.688H303.081V95.864Z" fill="white"/>
<path d="M354.052 95.028C354.052 92.676 354.64 90.576 355.816 88.728C356.992 86.824 358.644 85.228 360.772 83.94C362.9 82.596 365.448 81.588 368.416 80.916C371.384 80.188 374.688 79.824 378.328 79.824C381.688 79.824 384.824 80.188 387.736 80.916C390.704 81.588 393.28 82.568 395.464 83.856C397.704 85.144 399.468 86.74 400.756 88.644C402.044 90.492 402.688 92.62 402.688 95.028C402.688 97.436 402.044 99.592 400.756 101.496C399.468 103.4 397.704 104.996 395.464 106.284C393.28 107.628 390.704 108.636 387.736 109.308C384.824 110.036 381.688 110.4 378.328 110.4C374.688 110.4 371.384 110.036 368.416 109.308C365.448 108.636 362.9 107.628 360.772 106.284C358.644 104.996 356.992 103.4 355.816 101.496C354.64 99.592 354.052 97.436 354.052 95.028ZM360.016 95.28C360.016 96.904 360.464 98.36 361.36 99.648C362.256 100.88 363.488 101.916 365.056 102.756C366.68 103.596 368.612 104.24 370.852 104.688C373.092 105.136 375.556 105.36 378.244 105.36C380.652 105.36 382.976 105.136 385.216 104.688C387.456 104.24 389.416 103.596 391.096 102.756C392.832 101.916 394.204 100.88 395.212 99.648C396.22 98.36 396.724 96.904 396.724 95.28C396.724 93.6 396.22 92.116 395.212 90.828C394.204 89.54 392.832 88.476 391.096 87.636C389.416 86.74 387.456 86.068 385.216 85.62C382.976 85.116 380.652 84.864 378.244 84.864C375.556 84.864 373.092 85.116 370.852 85.62C368.612 86.068 366.68 86.74 365.056 87.636C363.488 88.476 362.256 89.54 361.36 90.828C360.464 92.116 360.016 93.6 360.016 95.28ZM367.744 35.64C367.744 39.728 367.324 43.536 366.484 47.064C367.156 49.416 368.08 51.656 369.256 53.784C370.488 55.912 371.916 57.9 373.54 59.748C375.164 61.596 376.928 63.276 378.832 64.788C380.792 66.244 382.836 67.476 384.964 68.484C385.3 68.652 385.44 68.904 385.384 69.24C385.384 69.52 385.328 69.772 385.216 69.996L383.452 72.768C383.284 73.048 383.088 73.244 382.864 73.356C382.64 73.468 382.276 73.384 381.772 73.104C380.484 72.432 379 71.536 377.32 70.416C375.696 69.24 374.044 67.868 372.364 66.3C370.684 64.732 369.088 63.024 367.576 61.176C366.064 59.272 364.804 57.312 363.796 55.296C361.948 59.552 359.456 63.416 356.32 66.888C353.184 70.36 349.516 73.468 345.316 76.212C345.036 76.38 344.728 76.492 344.392 76.548C344.056 76.604 343.776 76.492 343.552 76.212L341.452 73.44C341.284 73.216 341.256 72.936 341.368 72.6C341.48 72.264 341.676 72.012 341.956 71.844C348.62 67.756 353.632 62.604 356.992 56.388C360.352 50.172 361.976 43.228 361.864 35.556C361.864 34.66 362.2 34.212 362.872 34.212L366.82 34.464C367.436 34.464 367.744 34.856 367.744 35.64ZM401.68 78.228C401.68 79.012 401.288 79.404 400.504 79.404H397.06C396.276 79.404 395.884 79.012 395.884 78.228V33.792C395.884 33.008 396.276 32.616 397.06 32.616H400.504C401.288 32.616 401.68 33.008 401.68 33.792V54.036H413.272C413.608 54.036 413.888 54.148 414.112 54.372C414.392 54.54 414.532 54.792 414.532 55.128V57.984C414.532 58.264 414.392 58.516 414.112 58.74C413.888 58.964 413.608 59.076 413.272 59.076H401.68V78.228ZM429.856 87.552C429.856 85.2 430.304 83.632 431.2 82.848C432.096 82.008 433.776 81.588 436.24 81.588H471.436C472.78 81.588 473.844 81.672 474.628 81.84C475.468 82.008 476.112 82.316 476.56 82.764C477.064 83.212 477.4 83.828 477.568 84.612C477.736 85.396 477.82 86.376 477.82 87.552V103.428C477.82 105.78 477.372 107.348 476.476 108.132C475.58 108.972 473.9 109.392 471.436 109.392H436.24C434.896 109.392 433.804 109.308 432.964 109.14C432.18 108.972 431.536 108.636 431.032 108.132C430.584 107.684 430.276 107.068 430.108 106.284C429.94 105.556 429.856 104.604 429.856 103.428V87.552ZM437.668 86.628C436.884 86.628 436.352 86.796 436.072 87.132C435.792 87.412 435.652 87.972 435.652 88.812V102.168C435.652 103.008 435.792 103.568 436.072 103.848C436.352 104.184 436.884 104.352 437.668 104.352H470.008C470.792 104.352 471.324 104.184 471.604 103.848C471.884 103.568 472.024 103.008 472.024 102.168V88.812C472.024 87.972 471.884 87.412 471.604 87.132C471.324 86.796 470.792 86.628 470.008 86.628H437.668ZM466.48 67.728C466.648 68.456 466.312 68.932 465.472 69.156C463.624 69.604 461.16 70.052 458.08 70.5C455.056 70.948 451.808 71.34 448.336 71.676C444.864 72.012 441.364 72.292 437.836 72.516C434.364 72.684 431.256 72.74 428.512 72.684C425.992 72.628 424.256 72.04 423.304 70.92C422.408 69.8 421.96 68.064 421.96 65.712V42.108C421.96 39.756 422.408 38.188 423.304 37.404C424.2 36.62 425.88 36.228 428.344 36.228H456.988C457.716 36.228 458.08 36.564 458.08 37.236V40.26C458.08 40.932 457.716 41.268 456.988 41.268H429.436C428.652 41.268 428.176 41.38 428.008 41.604C427.84 41.772 427.756 42.276 427.756 43.116V65.292C427.756 66.132 427.896 66.72 428.176 67.056C428.456 67.336 428.988 67.476 429.772 67.476C432.628 67.476 435.568 67.42 438.592 67.308C441.616 67.14 444.612 66.916 447.58 66.636C450.548 66.356 453.46 66.02 456.316 65.628C459.172 65.236 461.86 64.788 464.38 64.284C464.94 64.172 465.304 64.2 465.472 64.368C465.696 64.536 465.864 64.788 465.976 65.124L466.48 67.728ZM477.736 76.128C477.736 76.912 477.344 77.304 476.56 77.304H473.116C472.332 77.304 471.94 76.912 471.94 76.128V33.792C471.94 33.008 472.332 32.616 473.116 32.616H476.56C477.344 32.616 477.736 33.008 477.736 33.792V53.784H489.328C489.664 53.784 489.944 53.896 490.168 54.12C490.448 54.288 490.588 54.54 490.588 54.876V57.732C490.588 58.012 490.448 58.264 490.168 58.488C489.944 58.712 489.664 58.824 489.328 58.824H477.736V76.128ZM530.104 70.584C530.384 70.584 530.636 70.724 530.86 71.004C531.084 71.228 531.196 71.508 531.196 71.844V91.752H564.292C564.572 91.752 564.852 91.864 565.132 92.088C565.412 92.256 565.552 92.508 565.552 92.844V95.7C565.552 95.98 565.412 96.232 565.132 96.456C564.852 96.68 564.572 96.792 564.292 96.792H492.892C492.556 96.792 492.248 96.68 491.968 96.456C491.744 96.232 491.632 95.98 491.632 95.7V92.844C491.632 92.508 491.744 92.256 491.968 92.088C492.248 91.864 492.556 91.752 492.892 91.752H525.4V71.844C525.4 71.508 525.484 71.228 525.652 71.004C525.876 70.724 526.156 70.584 526.492 70.584H530.104ZM531.532 37.824C531.42 38.552 531.308 39.28 531.196 40.008C531.084 40.736 530.916 41.464 530.692 42.192C530.804 42.808 530.944 43.396 531.112 43.956C531.28 44.516 531.476 44.992 531.7 45.384C533.044 48.072 534.668 50.592 536.572 52.944C538.532 55.24 540.688 57.34 543.04 59.244C545.392 61.148 547.912 62.828 550.6 64.284C553.344 65.684 556.144 66.804 559 67.644C559.336 67.756 559.56 67.98 559.672 68.316C559.784 68.652 559.784 68.96 559.672 69.24L558.328 72.096C558.16 72.376 557.964 72.6 557.74 72.768C557.572 72.936 557.208 72.908 556.648 72.684C550.376 70.444 544.748 67.336 539.764 63.36C534.836 59.384 530.888 54.764 527.92 49.5C525.288 54.764 521.592 59.552 516.832 63.864C512.072 68.12 506.64 71.396 500.536 73.692C499.64 74.028 499.08 73.916 498.856 73.356L497.344 70.416C497.232 70.136 497.204 69.856 497.26 69.576C497.372 69.24 497.596 68.988 497.932 68.82C505.716 65.796 512.016 61.568 516.832 56.136C521.704 50.648 524.672 44.348 525.736 37.236C525.792 36.564 526.156 36.228 526.828 36.228L530.608 36.648C531.28 36.76 531.588 37.152 531.532 37.824Z" fill="#F99BA7"/>
<path d="M355.816 88.728L356.449 89.1307L356.454 89.1221L355.816 88.728ZM360.772 83.94L361.16 84.5816L361.166 84.5779L361.172 84.5741L360.772 83.94ZM368.416 80.916L368.582 81.6476L368.595 81.6444L368.416 80.916ZM387.736 80.916L387.554 81.6436L387.562 81.6456L387.57 81.6475L387.736 80.916ZM395.464 83.856L395.083 84.5021L395.09 84.5062L395.464 83.856ZM400.756 88.644L400.135 89.0643L400.141 89.0728L400.756 88.644ZM400.756 101.496L401.377 101.916L400.756 101.496ZM395.464 106.284L395.09 105.634L395.08 105.639L395.071 105.645L395.464 106.284ZM387.736 109.308L387.57 108.577L387.562 108.578L387.554 108.58L387.736 109.308ZM368.416 109.308L368.595 108.579L368.582 108.577L368.416 109.308ZM360.772 106.284L361.172 105.65L361.166 105.646L361.16 105.642L360.772 106.284ZM355.816 101.496L355.178 101.89L355.816 101.496ZM361.36 99.648L360.744 100.076L360.749 100.083L360.753 100.089L361.36 99.648ZM365.056 102.756L364.702 103.417L364.711 103.422L365.056 102.756ZM370.852 104.688L370.999 103.953L370.852 104.688ZM385.216 104.688L385.069 103.953L385.216 104.688ZM391.096 102.756L390.769 102.081L390.761 102.085L391.096 102.756ZM395.212 99.648L395.792 100.123L395.798 100.117L395.803 100.11L395.212 99.648ZM395.212 90.828L394.621 91.2902L395.212 90.828ZM391.096 87.636L390.743 88.2978L390.756 88.3047L390.769 88.3111L391.096 87.636ZM385.216 85.62L385.051 86.3517L385.06 86.3537L385.069 86.3554L385.216 85.62ZM370.852 85.62L370.999 86.3554L371.008 86.3537L371.017 86.3517L370.852 85.62ZM365.056 87.636L365.41 88.2972L365.418 88.2927L365.056 87.636ZM361.36 90.828L361.976 91.2563L361.36 90.828ZM366.484 47.064L365.754 46.8903L365.709 47.0813L365.763 47.27L366.484 47.064ZM369.256 53.784L368.6 54.1468L368.603 54.1533L368.607 54.1598L369.256 53.784ZM373.54 59.748L374.103 59.2529H374.103L373.54 59.748ZM378.832 64.788L378.366 65.3753L378.375 65.3828L378.385 65.3901L378.832 64.788ZM384.964 68.484L385.299 67.8132L385.292 67.8096L385.285 67.8062L384.964 68.484ZM385.384 69.24L384.644 69.1167L384.634 69.1779V69.24H385.384ZM385.216 69.996L385.849 70.3987L385.87 70.366L385.887 70.3314L385.216 69.996ZM383.452 72.768L382.819 72.3653L382.814 72.3737L382.809 72.3821L383.452 72.768ZM382.864 73.356L382.529 72.6852L382.529 72.6852L382.864 73.356ZM381.772 73.104L382.136 72.4484L382.128 72.4436L382.119 72.4391L381.772 73.104ZM377.32 70.416L376.88 71.0235L376.892 71.032L376.904 71.04L377.32 70.416ZM367.576 61.176L366.989 61.6425L366.996 61.6509L367.576 61.176ZM363.796 55.296L364.467 54.9606L363.748 53.5232L363.108 54.9973L363.796 55.296ZM356.32 66.888L355.763 66.3853L356.32 66.888ZM345.316 76.212L345.702 76.8551L345.714 76.8477L345.726 76.8399L345.316 76.212ZM344.392 76.548L344.515 77.2878H344.515L344.392 76.548ZM343.552 76.212L342.954 76.6649L342.96 76.6728L342.966 76.6805L343.552 76.212ZM341.452 73.44L340.852 73.89L340.854 73.8929L341.452 73.44ZM341.368 72.6L340.656 72.3628H340.656L341.368 72.6ZM341.956 71.844L342.342 72.4871L342.348 72.4833L341.956 71.844ZM356.992 56.388L356.332 56.0314L356.992 56.388ZM361.864 35.556H361.114L361.114 35.5669L361.864 35.556ZM362.872 34.212L362.92 33.4635L362.896 33.462H362.872V34.212ZM366.82 34.464L366.772 35.2125L366.796 35.214H366.82V34.464ZM401.68 54.036H400.93V54.786H401.68V54.036ZM414.112 54.372L413.582 54.9023L413.647 54.9676L413.726 55.0151L414.112 54.372ZM414.112 58.74L413.643 58.1543L413.611 58.1803L413.582 58.2097L414.112 58.74ZM401.68 59.076V58.326H400.93V59.076H401.68ZM354.802 95.028C354.802 92.8077 355.355 90.8494 356.449 89.1307L355.183 88.3253C353.925 90.3026 353.302 92.5443 353.302 95.028H354.802ZM356.454 89.1221C357.561 87.3301 359.123 85.815 361.16 84.5816L360.384 83.2984C358.165 84.641 356.423 86.3179 355.178 88.3339L356.454 89.1221ZM361.172 84.5741C363.215 83.2841 365.68 82.3045 368.582 81.6475L368.25 80.1845C365.216 80.8715 362.585 81.9079 360.372 83.3059L361.172 84.5741ZM368.595 81.6444C371.494 80.9332 374.737 80.574 378.328 80.574V79.074C374.639 79.074 371.274 79.4428 368.237 80.1876L368.595 81.6444ZM378.328 80.574C381.634 80.574 384.708 80.9321 387.554 81.6436L387.918 80.1884C384.94 79.4439 381.742 79.074 378.328 79.074V80.574ZM387.57 81.6475C390.477 82.3056 392.978 83.2605 395.083 84.502L395.845 83.21C393.582 81.8755 390.931 80.8703 387.902 80.1845L387.57 81.6475ZM395.09 84.5062C397.244 85.7444 398.918 87.2658 400.135 89.0642L401.377 88.2238C400.018 86.2142 398.164 84.5436 395.838 83.2058L395.09 84.5062ZM400.141 89.0728C401.335 90.7862 401.938 92.7622 401.938 95.028H403.438C403.438 92.4778 402.753 90.1978 401.371 88.2152L400.141 89.0728ZM401.938 95.028C401.938 97.2937 401.335 99.3019 400.135 101.076L401.377 101.916C402.753 99.8821 403.438 97.5783 403.438 95.028H401.938ZM400.135 101.076C398.918 102.874 397.244 104.396 395.09 105.634L395.838 106.934C398.164 105.596 400.018 103.926 401.377 101.916L400.135 101.076ZM395.071 105.645C392.969 106.939 390.473 107.919 387.57 108.577L387.902 110.039C390.935 109.353 393.591 108.317 395.857 106.923L395.071 105.645ZM387.554 108.58C384.708 109.292 381.634 109.65 378.328 109.65V111.15C381.742 111.15 384.94 110.78 387.918 110.036L387.554 108.58ZM378.328 109.65C374.737 109.65 371.494 109.291 368.595 108.58L368.237 110.036C371.274 110.781 374.639 111.15 378.328 111.15V109.65ZM368.582 108.577C365.68 107.92 363.215 106.94 361.172 105.65L360.372 106.918C362.585 108.316 365.216 109.352 368.25 110.039L368.582 108.577ZM361.16 105.642C359.123 104.409 357.561 102.894 356.454 101.102L355.178 101.89C356.423 103.906 358.165 105.583 360.384 106.926L361.16 105.642ZM356.454 101.102C355.357 99.3253 354.802 97.3078 354.802 95.028H353.302C353.302 97.5642 353.923 99.8587 355.178 101.89L356.454 101.102ZM359.266 95.28C359.266 97.0514 359.758 98.658 360.744 100.076L361.976 99.2197C361.17 98.062 360.766 96.7566 360.766 95.28H359.266ZM360.753 100.089C361.726 101.427 363.051 102.533 364.702 103.417L365.41 102.095C363.925 101.299 362.786 100.333 361.967 99.2069L360.753 100.089ZM364.711 103.422C366.411 104.301 368.412 104.965 370.705 105.423L370.999 103.953C368.812 103.515 366.949 102.891 365.401 102.09L364.711 103.422ZM370.705 105.423C373.001 105.883 375.515 106.11 378.244 106.11V104.61C375.597 104.61 373.183 104.389 370.999 103.953L370.705 105.423ZM378.244 106.11C380.699 106.11 383.072 105.882 385.363 105.423L385.069 103.953C382.88 104.39 380.605 104.61 378.244 104.61V106.11ZM385.363 105.423C387.655 104.965 389.681 104.302 391.431 103.427L390.761 102.085C389.151 102.89 387.257 103.515 385.069 103.953L385.363 105.423ZM391.423 103.431C393.236 102.553 394.702 101.455 395.792 100.123L394.632 99.1731C393.706 100.305 392.428 101.279 390.769 102.081L391.423 103.431ZM395.803 100.11C396.913 98.6913 397.474 97.0728 397.474 95.28H395.974C395.974 96.7352 395.527 98.0287 394.621 99.1858L395.803 100.11ZM397.474 95.28C397.474 93.4374 396.917 91.7895 395.803 90.3658L394.621 91.2902C395.523 92.4425 395.974 93.7626 395.974 95.28H397.474ZM395.803 90.3658C394.712 88.9728 393.243 87.8419 391.423 86.9609L390.769 88.3111C392.421 89.1101 393.696 90.1072 394.621 91.2902L395.803 90.3658ZM391.449 86.9742C389.693 86.0377 387.661 85.3442 385.363 84.8846L385.069 86.3554C387.251 86.7918 389.139 87.4423 390.743 88.2978L391.449 86.9742ZM385.381 84.8883C383.084 84.3716 380.705 84.114 378.244 84.114V85.614C380.599 85.614 382.868 85.8604 385.051 86.3517L385.381 84.8883ZM378.244 84.114C375.51 84.114 372.99 84.3703 370.687 84.8883L371.017 86.3517C373.194 85.8617 375.602 85.614 378.244 85.614V84.114ZM370.705 84.8846C368.406 85.3443 366.398 86.0388 364.694 86.9793L365.418 88.2927C366.962 87.4412 368.818 86.7917 370.999 86.3554L370.705 84.8846ZM364.702 86.9749C363.044 87.8632 361.716 89.0023 360.744 90.3997L361.976 91.2563C362.796 90.0778 363.932 89.0888 365.41 88.2971L364.702 86.9749ZM360.744 90.3997C359.755 91.8225 359.266 93.4583 359.266 95.28H360.766C360.766 93.7417 361.173 92.4095 361.976 91.2563L360.744 90.3997ZM366.994 35.64C366.994 39.6768 366.579 43.4259 365.754 46.8903L367.214 47.2377C368.069 43.6461 368.494 39.7792 368.494 35.64H366.994ZM365.763 47.27C366.45 49.6762 367.396 51.9688 368.6 54.1468L369.912 53.4212C368.764 51.3432 367.862 49.1558 367.205 46.858L365.763 47.27ZM368.607 54.1598C369.864 56.3303 371.32 58.3582 372.977 60.2431L374.103 59.2529C372.512 57.4418 371.112 55.4937 369.905 53.4082L368.607 54.1598ZM372.977 60.2431C374.63 62.1243 376.426 63.8352 378.366 65.3753L379.298 64.2007C377.43 62.7168 375.698 61.0677 374.103 59.2529L372.977 60.2431ZM378.385 65.3901C380.383 66.8743 382.469 68.132 384.643 69.1618L385.285 67.8062C383.203 66.82 381.201 65.6137 379.279 64.1859L378.385 65.3901ZM384.629 69.1548C384.665 69.1729 384.68 69.1856 384.683 69.1881C384.685 69.1898 384.676 69.182 384.665 69.1632C384.66 69.1543 384.656 69.1446 384.653 69.1346C384.65 69.1247 384.648 69.1162 384.647 69.1098C384.645 69.0969 384.647 69.0976 384.644 69.1167L386.124 69.3633C386.174 69.0596 386.143 68.7349 385.977 68.4348C385.814 68.1419 385.562 67.9445 385.299 67.8132L384.629 69.1548ZM384.634 69.24C384.634 69.4175 384.599 69.5525 384.545 69.6606L385.887 70.3314C386.057 69.9915 386.134 69.6225 386.134 69.24H384.634ZM384.583 69.5933L382.819 72.3653L384.085 73.1707L385.849 70.3987L384.583 69.5933ZM382.809 72.3821C382.692 72.5763 382.592 72.6537 382.529 72.6852L383.199 74.0268C383.584 73.8343 383.876 73.5196 384.095 73.1539L382.809 72.3821ZM382.529 72.6852C382.633 72.6329 382.684 72.6676 382.592 72.6462C382.505 72.6261 382.356 72.5706 382.136 72.4484L381.408 73.7596C381.692 73.9174 381.977 74.0439 382.254 74.1078C382.526 74.1704 382.871 74.1911 383.199 74.0268L382.529 72.6852ZM382.119 72.4391C380.862 71.7832 379.402 70.9024 377.736 69.792L376.904 71.04C378.598 72.1696 380.106 73.0808 381.425 73.7689L382.119 72.4391ZM377.76 69.8085C376.164 68.6532 374.536 67.3015 372.876 65.7517L371.852 66.8483C373.552 68.4345 375.228 69.8268 376.88 71.0235L377.76 69.8085ZM372.876 65.7517C371.221 64.2075 369.648 62.5241 368.156 60.7011L366.996 61.6509C368.528 63.5239 370.147 65.2565 371.852 66.8483L372.876 65.7517ZM368.163 60.7096C366.681 58.8431 365.45 56.9267 364.467 54.9606L363.125 55.6314C364.158 57.6973 365.447 59.7009 366.989 61.6424L368.163 60.7096ZM363.108 54.9973C361.293 59.178 358.845 62.9732 355.763 66.3853L356.877 67.3907C360.067 63.8588 362.603 59.926 364.484 55.5947L363.108 54.9973ZM355.763 66.3853C352.674 69.8061 349.056 72.8728 344.906 75.5841L345.726 76.8399C349.976 74.0632 353.694 70.9139 356.877 67.3907L355.763 66.3853ZM344.93 75.5689C344.734 75.6864 344.516 75.767 344.269 75.8082L344.515 77.2878C344.94 77.217 345.338 77.0736 345.702 76.8551L344.93 75.5689ZM344.269 75.8082C344.242 75.8127 344.226 75.8122 344.218 75.8116C344.212 75.811 344.209 75.81 344.209 75.8096C344.207 75.8092 344.202 75.8069 344.191 75.7985C344.18 75.7897 344.161 75.7731 344.138 75.7435L342.966 76.6805C343.349 77.1589 343.894 77.3913 344.515 77.2878L344.269 75.8082ZM344.15 75.7591L342.05 72.9871L340.854 73.8929L342.954 76.6649L344.15 75.7591ZM342.052 72.99C342.049 72.9867 342.05 72.9868 342.051 72.9897C342.052 72.9925 342.052 72.9926 342.051 72.9874C342.05 72.9761 342.049 72.93 342.08 72.8372L340.656 72.3628C340.49 72.863 340.497 73.4171 340.852 73.89L342.052 72.99ZM342.08 72.8372C342.14 72.6555 342.229 72.5549 342.342 72.4871L341.57 71.2009C341.123 71.4691 340.82 71.8725 340.656 72.3628L342.08 72.8372ZM342.348 72.4833C349.112 68.3338 354.222 63.0888 357.652 56.7446L356.332 56.0314C353.042 62.1192 348.128 67.1782 341.564 71.2047L342.348 72.4833ZM357.652 56.7446C361.078 50.4063 362.728 43.3339 362.614 35.5451L361.114 35.5669C361.224 43.122 359.626 49.9377 356.332 56.0314L357.652 56.7446ZM362.614 35.556C362.614 35.1801 362.688 35.035 362.716 34.998C362.724 34.9867 362.728 34.9846 362.736 34.9814C362.747 34.9762 362.787 34.962 362.872 34.962V33.462C362.353 33.462 361.855 33.6464 361.516 34.098C361.208 34.509 361.114 35.0359 361.114 35.556H362.614ZM362.824 34.9605L366.772 35.2125L366.868 33.7155L362.92 33.4635L362.824 34.9605ZM366.82 35.214C366.896 35.214 366.927 35.2261 366.931 35.2279C366.933 35.2288 366.931 35.2282 366.928 35.2254C366.924 35.2227 366.923 35.2206 366.923 35.2214C366.929 35.2285 366.994 35.3258 366.994 35.64H368.494C368.494 35.1702 368.405 34.6795 368.103 34.2946C367.773 33.8753 367.298 33.714 366.82 33.714V35.214ZM400.93 78.228C400.93 78.5044 400.861 78.5739 400.856 78.5797C400.85 78.5854 400.78 78.654 400.504 78.654V80.154C401.012 80.154 401.53 80.0266 401.916 79.6403C402.303 79.2541 402.43 78.7356 402.43 78.228H400.93ZM400.504 78.654H397.06V80.154H400.504V78.654ZM397.06 78.654C396.784 78.654 396.714 78.5854 396.708 78.5797C396.703 78.5739 396.634 78.5044 396.634 78.228H395.134C395.134 78.7356 395.261 79.2541 395.648 79.6403C396.034 80.0266 396.552 80.154 397.06 80.154V78.654ZM396.634 78.228V33.792H395.134V78.228H396.634ZM396.634 33.792C396.634 33.5156 396.703 33.4461 396.708 33.4403C396.714 33.4346 396.784 33.366 397.06 33.366V31.866C396.552 31.866 396.034 31.9934 395.648 32.3797C395.261 32.7659 395.134 33.2844 395.134 33.792H396.634ZM397.06 33.366H400.504V31.866H397.06V33.366ZM400.504 33.366C400.78 33.366 400.85 33.4346 400.856 33.4403C400.861 33.4461 400.93 33.5156 400.93 33.792H402.43C402.43 33.2844 402.303 32.7659 401.916 32.3797C401.53 31.9934 401.012 31.866 400.504 31.866V33.366ZM400.93 33.792V54.036H402.43V33.792H400.93ZM401.68 54.786H413.272V53.286H401.68V54.786ZM413.272 54.786C413.422 54.786 413.508 54.8282 413.582 54.9023L414.642 53.8417C414.268 53.4678 413.794 53.286 413.272 53.286V54.786ZM413.726 55.0151C413.749 55.0287 413.76 55.039 413.765 55.0441C413.77 55.0488 413.771 55.051 413.771 55.0512C413.772 55.0516 413.774 55.0553 413.776 55.0655C413.779 55.0761 413.782 55.0961 413.782 55.128H415.282C415.282 54.5379 415.012 54.0372 414.498 53.7289L413.726 55.0151ZM413.782 55.128V57.984H415.282V55.128H413.782ZM413.782 57.984C413.782 57.9927 413.781 58.0007 413.771 58.0188C413.759 58.0415 413.725 58.0889 413.643 58.1543L414.581 59.3256C414.984 59.0028 415.282 58.5533 415.282 57.984H413.782ZM413.582 58.2097C413.508 58.2838 413.422 58.326 413.272 58.326V59.826C413.794 59.826 414.268 59.6442 414.642 59.2703L413.582 58.2097ZM413.272 58.326H401.68V59.826H413.272V58.326ZM400.93 59.076V78.228H402.43V59.076H400.93ZM431.2 82.848L431.694 83.4124L431.704 83.404L431.713 83.3952L431.2 82.848ZM474.628 81.84L474.471 82.5734L474.481 82.5754L474.628 81.84ZM476.56 82.764L476.03 83.2943L476.045 83.3099L476.062 83.3246L476.56 82.764ZM477.568 84.612L476.835 84.7691L476.835 84.7691L477.568 84.612ZM476.476 108.132L475.982 107.568L475.973 107.576L475.963 107.585L476.476 108.132ZM432.964 109.14L432.807 109.873L432.817 109.875L432.964 109.14ZM431.032 108.132L431.562 107.602L431.032 108.132ZM430.108 106.284L430.842 106.127L430.839 106.115L430.108 106.284ZM436.072 87.132L436.602 87.6623L436.626 87.6383L436.648 87.6121L436.072 87.132ZM436.072 103.848L436.648 103.368L436.626 103.342L436.602 103.318L436.072 103.848ZM471.604 103.848L471.074 103.318L471.05 103.342L471.028 103.368L471.604 103.848ZM471.604 87.132L471.028 87.6121L471.05 87.6383L471.074 87.6623L471.604 87.132ZM466.48 67.728L465.744 67.8705L465.746 67.8836L465.749 67.8966L466.48 67.728ZM465.472 69.156L465.649 69.8849L465.657 69.8829L465.665 69.8807L465.472 69.156ZM458.08 70.5L457.972 69.7578L457.97 69.7581L458.08 70.5ZM448.336 71.676L448.264 70.9295L448.336 71.676ZM437.836 72.516L437.872 73.2652L437.884 73.2645L437.836 72.516ZM428.512 72.684L428.495 73.4338L428.497 73.4338L428.512 72.684ZM423.304 70.92L422.718 71.3885L422.725 71.3972L422.733 71.4057L423.304 70.92ZM428.008 41.604L428.538 42.1343L428.576 42.0966L428.608 42.054L428.008 41.604ZM428.176 67.056L427.6 67.5361L427.622 67.5623L427.646 67.5863L428.176 67.056ZM438.592 67.308L438.62 68.0576L438.634 68.0568L438.592 67.308ZM447.58 66.636L447.51 65.8893L447.58 66.636ZM456.316 65.628L456.418 66.371L456.316 65.628ZM464.38 64.284L464.233 63.5486L464.38 64.284ZM465.472 64.368L464.942 64.8983L464.979 64.936L465.022 64.968L465.472 64.368ZM465.976 65.124L466.712 64.9815L466.703 64.9333L466.688 64.8868L465.976 65.124ZM477.736 53.784H476.986V54.534H477.736V53.784ZM490.168 54.12L489.638 54.6503L489.703 54.7156L489.782 54.7631L490.168 54.12ZM490.168 58.488L489.7 57.9023L489.667 57.9283L489.638 57.9577L490.168 58.488ZM477.736 58.824V58.074H476.986V58.824H477.736ZM430.606 87.552C430.606 85.2283 431.063 83.965 431.694 83.4124L430.706 82.2836C429.546 83.299 429.106 85.1717 429.106 87.552H430.606ZM431.713 83.3952C432.384 82.7659 433.802 82.338 436.24 82.338V80.838C433.75 80.838 431.808 81.2501 430.687 82.3008L431.713 83.3952ZM436.24 82.338H471.436V80.838H436.24V82.338ZM471.436 82.338C472.758 82.338 473.762 82.4213 474.471 82.5734L474.785 81.1066C473.927 80.9227 472.803 80.838 471.436 80.838V82.338ZM474.481 82.5754C475.226 82.7244 475.717 82.982 476.03 83.2943L477.09 82.2337C476.507 81.65 475.711 81.2916 474.775 81.1046L474.481 82.5754ZM476.062 83.3246C476.425 83.6476 476.694 84.1109 476.835 84.7691L478.301 84.4549C478.107 83.5451 477.703 82.7764 477.058 82.2034L476.062 83.3246ZM476.835 84.7691C476.988 85.4837 477.07 86.4068 477.07 87.552H478.57C478.57 86.3452 478.484 85.3083 478.301 84.4548L476.835 84.7691ZM477.07 87.552V103.428H478.57V87.552H477.07ZM477.07 103.428C477.07 105.752 476.614 107.015 475.982 107.568L476.97 108.696C478.131 107.681 478.57 105.808 478.57 103.428H477.07ZM475.963 107.585C475.292 108.214 473.874 108.642 471.436 108.642V110.142C473.926 110.142 475.868 109.73 476.989 108.679L475.963 107.585ZM471.436 108.642H436.24V110.142H471.436V108.642ZM436.24 108.642C434.921 108.642 433.884 108.559 433.111 108.405L432.817 109.875C433.725 110.057 434.871 110.142 436.24 110.142V108.642ZM433.121 108.407C432.46 108.265 431.952 107.991 431.562 107.602L430.502 108.662C431.12 109.281 431.9 109.679 432.807 109.873L433.121 108.407ZM431.562 107.602C431.241 107.28 430.987 106.807 430.841 106.127L429.375 106.441C429.565 107.329 429.928 108.088 430.502 108.662L431.562 107.602ZM430.839 106.115C430.689 105.465 430.606 104.576 430.606 103.428H429.106C429.106 104.632 429.191 105.647 429.377 106.453L430.839 106.115ZM430.606 103.428V87.552H429.106V103.428H430.606ZM437.668 85.878C436.828 85.878 435.998 86.0489 435.496 86.6519L436.648 87.6121C436.706 87.5431 436.941 87.378 437.668 87.378V85.878ZM435.542 86.6017C435.271 86.8721 435.118 87.2249 435.029 87.5801C434.94 87.9398 434.902 88.3558 434.902 88.812H436.402C436.402 88.4282 436.435 88.1442 436.485 87.9439C436.536 87.7391 436.593 87.6719 436.602 87.6623L435.542 86.6017ZM434.902 88.812V102.168H436.402V88.812H434.902ZM434.902 102.168C434.902 102.624 434.94 103.04 435.029 103.4C435.118 103.755 435.271 104.108 435.542 104.378L436.602 103.318C436.593 103.308 436.536 103.241 436.485 103.036C436.435 102.836 436.402 102.552 436.402 102.168H434.902ZM435.496 104.328C435.998 104.931 436.828 105.102 437.668 105.102V103.602C436.941 103.602 436.706 103.437 436.648 103.368L435.496 104.328ZM437.668 105.102H470.008V103.602H437.668V105.102ZM470.008 105.102C470.849 105.102 471.678 104.931 472.18 104.328L471.028 103.368C470.97 103.437 470.736 103.602 470.008 103.602V105.102ZM472.134 104.378C472.405 104.108 472.558 103.755 472.647 103.4C472.737 103.04 472.774 102.624 472.774 102.168H471.274C471.274 102.552 471.242 102.836 471.191 103.036C471.14 103.241 471.083 103.308 471.074 103.318L472.134 104.378ZM472.774 102.168V88.812H471.274V102.168H472.774ZM472.774 88.812C472.774 88.3558 472.737 87.9398 472.647 87.5801C472.558 87.2249 472.405 86.8721 472.134 86.6017L471.074 87.6623C471.083 87.6719 471.14 87.7391 471.191 87.9439C471.242 88.1442 471.274 88.4282 471.274 88.812H472.774ZM472.18 86.6519C471.678 86.0489 470.849 85.878 470.008 85.878V87.378C470.736 87.378 470.97 87.5431 471.028 87.6121L472.18 86.6519ZM470.008 85.878H437.668V87.378H470.008V85.878ZM465.749 67.8966C465.8 68.1152 465.753 68.1813 465.741 68.1985C465.714 68.2371 465.61 68.3431 465.279 68.4313L465.665 69.8807C466.174 69.7449 466.658 69.5009 466.967 69.0635C467.291 68.6047 467.328 68.0688 467.211 67.5594L465.749 67.8966ZM465.295 68.4271C463.48 68.8673 461.042 69.3113 457.972 69.7578L458.188 71.2422C461.279 70.7926 463.768 70.3407 465.649 69.8849L465.295 68.4271ZM457.97 69.7581C454.96 70.204 451.725 70.5945 448.264 70.9295L448.408 72.4225C451.891 72.0855 455.152 71.692 458.19 71.2419L457.97 69.7581ZM448.264 70.9295C444.8 71.2647 441.308 71.544 437.789 71.7675L437.884 73.2645C441.42 73.04 444.928 72.7593 448.408 72.4225L448.264 70.9295ZM437.8 71.7669C434.341 71.9342 431.25 71.9897 428.527 71.9342L428.497 73.4338C431.262 73.4903 434.387 73.4337 437.872 73.2651L437.8 71.7669ZM428.529 71.9342C426.077 71.8797 424.616 71.3059 423.876 70.4343L422.733 71.4057C423.896 72.7741 425.907 73.3763 428.495 73.4338L428.529 71.9342ZM423.89 70.4515C423.149 69.5261 422.71 67.9943 422.71 65.712H421.21C421.21 68.1337 421.667 70.0739 422.718 71.3885L423.89 70.4515ZM422.71 65.712V42.108H421.21V65.712H422.71ZM422.71 42.108C422.71 39.7843 423.167 38.521 423.798 37.9684L422.81 36.8396C421.65 37.855 421.21 39.7277 421.21 42.108H422.71ZM423.798 37.9684C424.471 37.3795 425.899 36.978 428.344 36.978V35.478C425.861 35.478 423.929 35.8605 422.81 36.8396L423.798 37.9684ZM428.344 36.978H456.988V35.478H428.344V36.978ZM456.988 36.978C457.251 36.978 457.308 37.0399 457.298 37.0311C457.278 37.0119 457.33 37.0317 457.33 37.236H458.83C458.83 36.7683 458.701 36.2841 458.316 35.9289C457.942 35.5841 457.453 35.478 456.988 35.478V36.978ZM457.33 37.236V40.26H458.83V37.236H457.33ZM457.33 40.26C457.33 40.4643 457.278 40.4841 457.298 40.4649C457.308 40.4561 457.251 40.518 456.988 40.518V42.018C457.453 42.018 457.942 41.9119 458.316 41.5671C458.701 41.2119 458.83 40.7277 458.83 40.26H457.33ZM456.988 40.518H429.436V42.018H456.988V40.518ZM429.436 40.518C429.016 40.518 428.637 40.5472 428.319 40.6219C428.026 40.691 427.652 40.8291 427.408 41.154L428.608 42.054C428.532 42.1549 428.481 42.1249 428.663 42.0821C428.821 42.0448 429.072 42.018 429.436 42.018V40.518ZM427.478 41.0737C427.213 41.3388 427.123 41.7208 427.079 41.9847C427.028 42.295 427.006 42.6774 427.006 43.116H428.506C428.506 42.7146 428.527 42.425 428.559 42.2313C428.575 42.1348 428.591 42.0804 428.6 42.0563C428.611 42.0262 428.601 42.072 428.538 42.1343L427.478 41.0737ZM427.006 43.116V65.292H428.506V43.116H427.006ZM427.006 65.292C427.006 66.1679 427.143 66.9873 427.6 67.5361L428.752 66.5759C428.65 66.4527 428.506 66.0961 428.506 65.292H427.006ZM427.646 67.5863C428.153 68.0934 428.959 68.226 429.772 68.226V66.726C429.017 66.726 428.759 66.5786 428.706 66.5257L427.646 67.5863ZM429.772 68.226C432.638 68.226 435.587 68.1698 438.62 68.0575L438.564 66.5585C435.549 66.6702 432.618 66.726 429.772 66.726V68.226ZM438.634 68.0568C441.667 67.8883 444.673 67.6636 447.651 67.3827L447.51 65.8893C444.551 66.1684 441.565 66.3917 438.55 66.5592L438.634 68.0568ZM447.651 67.3827C450.629 67.1017 453.551 66.7645 456.418 66.371L456.214 64.885C453.369 65.2755 450.467 65.6103 447.51 65.8893L447.651 67.3827ZM456.418 66.371C459.287 65.9772 461.991 65.5268 464.527 65.0194L464.233 63.5486C461.73 64.0492 459.057 64.4948 456.214 64.885L456.418 66.371ZM464.527 65.0194C464.773 64.9702 464.929 64.9621 465.016 64.9688C465.111 64.9761 465.037 64.9935 464.942 64.8983L466.002 63.8377C465.739 63.5745 465.399 63.4939 465.131 63.4732C464.853 63.4519 464.547 63.4858 464.233 63.5486L464.527 65.0194ZM465.022 64.968C465.095 65.0229 465.188 65.1315 465.265 65.3612L466.688 64.8868C466.54 64.4445 466.297 64.0491 465.922 63.768L465.022 64.968ZM465.24 65.2665L465.744 67.8705L467.216 67.5855L466.712 64.9815L465.24 65.2665ZM476.986 76.128C476.986 76.4044 476.918 76.4739 476.912 76.4797C476.906 76.4854 476.836 76.554 476.56 76.554V78.054C477.068 78.054 477.586 77.9266 477.972 77.5403C478.359 77.1541 478.486 76.6356 478.486 76.128H476.986ZM476.56 76.554H473.116V78.054H476.56V76.554ZM473.116 76.554C472.84 76.554 472.77 76.4854 472.764 76.4797C472.759 76.4739 472.69 76.4044 472.69 76.128H471.19C471.19 76.6356 471.318 77.1541 471.704 77.5403C472.09 77.9266 472.608 78.054 473.116 78.054V76.554ZM472.69 76.128V33.792H471.19V76.128H472.69ZM472.69 33.792C472.69 33.5156 472.759 33.4461 472.764 33.4403C472.77 33.4346 472.84 33.366 473.116 33.366V31.866C472.608 31.866 472.09 31.9934 471.704 32.3797C471.318 32.7659 471.19 33.2844 471.19 33.792H472.69ZM473.116 33.366H476.56V31.866H473.116V33.366ZM476.56 33.366C476.836 33.366 476.906 33.4346 476.912 33.4403C476.918 33.4461 476.986 33.5156 476.986 33.792H478.486C478.486 33.2844 478.359 32.7659 477.972 32.3797C477.586 31.9934 477.068 31.866 476.56 31.866V33.366ZM476.986 33.792V53.784H478.486V33.792H476.986ZM477.736 54.534H489.328V53.034H477.736V54.534ZM489.328 54.534C489.479 54.534 489.564 54.5762 489.638 54.6503L490.698 53.5897C490.325 53.2158 489.85 53.034 489.328 53.034V54.534ZM489.782 54.7631C489.805 54.7767 489.816 54.787 489.822 54.7921C489.826 54.7968 489.827 54.799 489.827 54.7992C489.828 54.7996 489.83 54.8033 489.832 54.8135C489.835 54.8241 489.838 54.8441 489.838 54.876H491.338C491.338 54.2859 491.068 53.7852 490.554 53.4769L489.782 54.7631ZM489.838 54.876V57.732H491.338V54.876H489.838ZM489.838 57.732C489.838 57.7407 489.837 57.7488 489.827 57.7668C489.815 57.7895 489.781 57.8369 489.7 57.9023L490.637 59.0737C491.04 58.7508 491.338 58.3013 491.338 57.732H489.838ZM489.638 57.9577C489.564 58.0318 489.479 58.074 489.328 58.074V59.574C489.85 59.574 490.325 59.3922 490.698 59.0183L489.638 57.9577ZM489.328 58.074H477.736V59.574H489.328V58.074ZM476.986 58.824V76.128H478.486V58.824H476.986ZM530.86 71.004L530.275 71.4725L530.3 71.505L530.33 71.5343L530.86 71.004ZM531.196 91.752H530.446V92.502H531.196V91.752ZM565.132 92.088L564.664 92.6737L564.703 92.7052L564.746 92.7311L565.132 92.088ZM565.132 96.456L565.601 97.0416L565.132 96.456ZM491.968 96.456L491.438 96.9863L491.467 97.0157L491.5 97.0416L491.968 96.456ZM491.968 92.088L492.418 92.688L492.428 92.681L492.437 92.6737L491.968 92.088ZM525.4 91.752V92.502H526.15V91.752H525.4ZM525.652 71.004L525.067 70.5355L525.059 70.5446L525.052 70.554L525.652 71.004ZM531.532 37.824L532.273 37.938L532.277 37.9123L532.28 37.8863L531.532 37.824ZM531.196 40.008L531.937 40.122V40.122L531.196 40.008ZM530.692 42.192L529.975 41.9714L529.922 42.1462L529.954 42.3262L530.692 42.192ZM531.112 43.956L530.394 44.1715V44.1715L531.112 43.956ZM531.7 45.384L532.371 45.0486L532.362 45.03L532.351 45.0119L531.7 45.384ZM536.572 52.944L535.989 53.4159L535.995 53.4235L536.002 53.4309L536.572 52.944ZM543.04 59.244L542.568 59.8269L543.04 59.244ZM550.6 64.284L550.243 64.9435L550.251 64.9479L550.259 64.9521L550.6 64.284ZM559 67.644L559.237 66.9325L559.225 66.9283L559.212 66.9245L559 67.644ZM559.672 68.316L558.961 68.5532V68.5532L559.672 68.316ZM559.672 69.24L560.351 69.5593L560.36 69.5392L560.369 69.5185L559.672 69.24ZM558.328 72.096L558.971 72.4819L558.991 72.4495L559.007 72.4153L558.328 72.096ZM557.74 72.768L557.29 72.168L557.248 72.2L557.21 72.2377L557.74 72.768ZM556.648 72.684L556.927 71.9876L556.914 71.9824L556.9 71.9777L556.648 72.684ZM539.764 63.36L539.293 63.9437L539.296 63.9463L539.764 63.36ZM527.92 49.5L528.573 49.1316L527.88 47.9024L527.249 49.1646L527.92 49.5ZM516.832 63.864L517.332 64.4231L517.336 64.4198L516.832 63.864ZM500.536 73.692L500.8 74.3942L500.8 74.394L500.536 73.692ZM498.856 73.356L499.553 73.0775L499.539 73.0445L499.523 73.013L498.856 73.356ZM497.344 70.416L496.648 70.6945L496.661 70.7275L496.677 70.759L497.344 70.416ZM497.26 69.576L496.549 69.3388L496.534 69.3831L496.525 69.4289L497.26 69.576ZM497.932 68.82L497.661 68.1209L497.628 68.1336L497.597 68.1492L497.932 68.82ZM516.832 56.136L516.271 55.6381L516.271 55.6384L516.832 56.136ZM525.736 37.236L526.478 37.347L526.482 37.3227L526.484 37.2983L525.736 37.236ZM526.828 36.228L526.911 35.4826L526.87 35.478H526.828V36.228ZM530.608 36.648L530.731 35.9082L530.711 35.9048L530.691 35.9026L530.608 36.648ZM530.104 71.334C530.113 71.334 530.121 71.3346 530.139 71.3446C530.162 71.3572 530.209 71.3907 530.275 71.4725L531.446 70.5355C531.123 70.1319 530.673 69.834 530.104 69.834V71.334ZM530.33 71.5343C530.404 71.6085 530.446 71.6935 530.446 71.844H531.946C531.946 71.3225 531.764 70.8475 531.391 70.4737L530.33 71.5343ZM530.446 71.844V91.752H531.946V71.844H530.446ZM531.196 92.502H564.292V91.002H531.196V92.502ZM564.292 92.502C564.359 92.502 564.479 92.5257 564.664 92.6737L565.601 91.5023C565.226 91.2023 564.785 91.002 564.292 91.002V92.502ZM564.746 92.7311C564.769 92.7447 564.781 92.755 564.786 92.7601C564.79 92.7648 564.791 92.767 564.792 92.7672C564.792 92.7676 564.794 92.7713 564.796 92.7815C564.799 92.7921 564.802 92.8121 564.802 92.844H566.302C566.302 92.2539 566.032 91.7532 565.518 91.4449L564.746 92.7311ZM564.802 92.844V95.7H566.302V92.844H564.802ZM564.802 95.7C564.802 95.7087 564.802 95.7168 564.792 95.7348C564.779 95.7575 564.745 95.8049 564.664 95.8703L565.601 97.0416C566.004 96.7188 566.302 96.2693 566.302 95.7H564.802ZM564.664 95.8703C564.479 96.0183 564.359 96.042 564.292 96.042V97.542C564.785 97.542 565.226 97.3417 565.601 97.0416L564.664 95.8703ZM564.292 96.042H492.892V97.542H564.292V96.042ZM492.892 96.042C492.738 96.042 492.593 95.9956 492.437 95.8703L491.5 97.0416C491.903 97.3644 492.374 97.542 492.892 97.542V96.042ZM492.499 95.9257C492.395 95.8222 492.382 95.7543 492.382 95.7H490.882C490.882 96.2057 491.093 96.6418 491.438 96.9863L492.499 95.9257ZM492.382 95.7V92.844H490.882V95.7H492.382ZM492.382 92.844C492.382 92.7585 492.396 92.7192 492.402 92.7076C492.405 92.7004 492.407 92.6965 492.418 92.688L491.518 91.488C491.067 91.8267 490.882 92.325 490.882 92.844H492.382ZM492.437 92.6737C492.593 92.5484 492.738 92.502 492.892 92.502V91.002C492.374 91.002 491.903 91.1796 491.5 91.5023L492.437 92.6737ZM492.892 92.502H525.4V91.002H492.892V92.502ZM526.15 91.752V71.844H524.65V91.752H526.15ZM526.15 71.844C526.15 71.6369 526.2 71.5238 526.252 71.454L525.052 70.554C524.769 70.9322 524.65 71.3791 524.65 71.844H526.15ZM526.238 71.4725C526.331 71.3567 526.401 71.334 526.492 71.334V69.834C525.911 69.834 525.422 70.0913 525.067 70.5355L526.238 71.4725ZM526.492 71.334H530.104V69.834H526.492V71.334ZM530.791 37.71C530.791 37.7114 530.79 37.7128 530.79 37.7142C530.79 37.7156 530.79 37.7171 530.79 37.7185C530.789 37.7199 530.789 37.7213 530.789 37.7228C530.789 37.7242 530.788 37.7256 530.788 37.727C530.788 37.7284 530.788 37.7299 530.788 37.7313C530.787 37.7327 530.787 37.7341 530.787 37.7355C530.787 37.737 530.787 37.7384 530.786 37.7398C530.786 37.7412 530.786 37.7427 530.786 37.7441C530.785 37.7455 530.785 37.7469 530.785 37.7483C530.785 37.7498 530.785 37.7512 530.784 37.7526C530.784 37.754 530.784 37.7555 530.784 37.7569C530.783 37.7583 530.783 37.7597 530.783 37.7611C530.783 37.7626 530.783 37.764 530.782 37.7654C530.782 37.7668 530.782 37.7683 530.782 37.7697C530.781 37.7711 530.781 37.7725 530.781 37.7739C530.781 37.7754 530.781 37.7768 530.78 37.7782C530.78 37.7796 530.78 37.781 530.78 37.7825C530.78 37.7839 530.779 37.7853 530.779 37.7867C530.779 37.7882 530.779 37.7896 530.778 37.791C530.778 37.7924 530.778 37.7938 530.778 37.7953C530.778 37.7967 530.777 37.7981 530.777 37.7995C530.777 37.801 530.777 37.8024 530.776 37.8038C530.776 37.8052 530.776 37.8066 530.776 37.8081C530.776 37.8095 530.775 37.8109 530.775 37.8123C530.775 37.8138 530.775 37.8152 530.774 37.8166C530.774 37.818 530.774 37.8194 530.774 37.8209C530.774 37.8223 530.773 37.8237 530.773 37.8251C530.773 37.8265 530.773 37.828 530.773 37.8294C530.772 37.8308 530.772 37.8322 530.772 37.8337C530.772 37.8351 530.771 37.8365 530.771 37.8379C530.771 37.8393 530.771 37.8408 530.771 37.8422C530.77 37.8436 530.77 37.845 530.77 37.8465C530.77 37.8479 530.769 37.8493 530.769 37.8507C530.769 37.8521 530.769 37.8536 530.769 37.855C530.768 37.8564 530.768 37.8578 530.768 37.8593C530.768 37.8607 530.768 37.8621 530.767 37.8635C530.767 37.8649 530.767 37.8664 530.767 37.8678C530.766 37.8692 530.766 37.8706 530.766 37.872C530.766 37.8735 530.766 37.8749 530.765 37.8763C530.765 37.8777 530.765 37.8792 530.765 37.8806C530.764 37.882 530.764 37.8834 530.764 37.8848C530.764 37.8863 530.764 37.8877 530.763 37.8891C530.763 37.8905 530.763 37.892 530.763 37.8934C530.762 37.8948 530.762 37.8962 530.762 37.8976C530.762 37.8991 530.762 37.9005 530.761 37.9019C530.761 37.9033 530.761 37.9048 530.761 37.9062C530.76 37.9076 530.76 37.909 530.76 37.9104C530.76 37.9119 530.76 37.9133 530.759 37.9147C530.759 37.9161 530.759 37.9175 530.759 37.919C530.759 37.9204 530.758 37.9218 530.758 37.9232C530.758 37.9247 530.758 37.9261 530.757 37.9275C530.757 37.9289 530.757 37.9303 530.757 37.9318C530.757 37.9332 530.756 37.9346 530.756 37.936C530.756 37.9375 530.756 37.9389 530.755 37.9403C530.755 37.9417 530.755 37.9431 530.755 37.9446C530.755 37.946 530.754 37.9474 530.754 37.9488C530.754 37.9503 530.754 37.9517 530.753 37.9531C530.753 37.9545 530.753 37.9559 530.753 37.9574C530.753 37.9588 530.752 37.9602 530.752 37.9616C530.752 37.963 530.752 37.9645 530.752 37.9659C530.751 37.9673 530.751 37.9687 530.751 37.9702C530.751 37.9716 530.75 37.973 530.75 37.9744C530.75 37.9758 530.75 37.9773 530.75 37.9787C530.749 37.9801 530.749 37.9815 530.749 37.983C530.749 37.9844 530.748 37.9858 530.748 37.9872C530.748 37.9886 530.748 37.9901 530.748 37.9915C530.747 37.9929 530.747 37.9943 530.747 37.9958C530.747 37.9972 530.746 37.9986 530.746 38C530.746 38.0014 530.746 38.0029 530.746 38.0043C530.745 38.0057 530.745 38.0071 530.745 38.0085C530.745 38.01 530.745 38.0114 530.744 38.0128C530.744 38.0142 530.744 38.0157 530.744 38.0171C530.743 38.0185 530.743 38.0199 530.743 38.0213C530.743 38.0228 530.743 38.0242 530.742 38.0256C530.742 38.027 530.742 38.0285 530.742 38.0299C530.741 38.0313 530.741 38.0327 530.741 38.0341C530.741 38.0356 530.741 38.037 530.74 38.0384C530.74 38.0398 530.74 38.0413 530.74 38.0427C530.74 38.0441 530.739 38.0455 530.739 38.0469C530.739 38.0484 530.739 38.0498 530.738 38.0512C530.738 38.0526 530.738 38.054 530.738 38.0555C530.738 38.0569 530.737 38.0583 530.737 38.0597C530.737 38.0612 530.737 38.0626 530.736 38.064C530.736 38.0654 530.736 38.0668 530.736 38.0683C530.736 38.0697 530.735 38.0711 530.735 38.0725C530.735 38.074 530.735 38.0754 530.734 38.0768C530.734 38.0782 530.734 38.0796 530.734 38.0811C530.734 38.0825 530.733 38.0839 530.733 38.0853C530.733 38.0868 530.733 38.0882 530.732 38.0896C530.732 38.091 530.732 38.0924 530.732 38.0939C530.732 38.0953 530.731 38.0967 530.731 38.0981C530.731 38.0995 530.731 38.101 530.731 38.1024C530.73 38.1038 530.73 38.1052 530.73 38.1067C530.73 38.1081 530.729 38.1095 530.729 38.1109C530.729 38.1123 530.729 38.1138 530.729 38.1152C530.728 38.1166 530.728 38.118 530.728 38.1195C530.728 38.1209 530.727 38.1223 530.727 38.1237C530.727 38.1251 530.727 38.1266 530.727 38.128C530.726 38.1294 530.726 38.1308 530.726 38.1323C530.726 38.1337 530.725 38.1351 530.725 38.1365C530.725 38.1379 530.725 38.1394 530.725 38.1408C530.724 38.1422 530.724 38.1436 530.724 38.145C530.724 38.1465 530.724 38.1479 530.723 38.1493C530.723 38.1507 530.723 38.1522 530.723 38.1536C530.722 38.155 530.722 38.1564 530.722 38.1578C530.722 38.1593 530.722 38.1607 530.721 38.1621C530.721 38.1635 530.721 38.165 530.721 38.1664C530.72 38.1678 530.72 38.1692 530.72 38.1706C530.72 38.1721 530.72 38.1735 530.719 38.1749C530.719 38.1763 530.719 38.1778 530.719 38.1792C530.718 38.1806 530.718 38.182 530.718 38.1834C530.718 38.1849 530.718 38.1863 530.717 38.1877C530.717 38.1891 530.717 38.1905 530.717 38.192C530.717 38.1934 530.716 38.1948 530.716 38.1962C530.716 38.1977 530.716 38.1991 530.715 38.2005C530.715 38.2019 530.715 38.2033 530.715 38.2048C530.715 38.2062 530.714 38.2076 530.714 38.209C530.714 38.2105 530.714 38.2119 530.713 38.2133C530.713 38.2147 530.713 38.2161 530.713 38.2176C530.713 38.219 530.712 38.2204 530.712 38.2218C530.712 38.2233 530.712 38.2247 530.712 38.2261C530.711 38.2275 530.711 38.2289 530.711 38.2304C530.711 38.2318 530.71 38.2332 530.71 38.2346C530.71 38.236 530.71 38.2375 530.71 38.2389C530.709 38.2403 530.709 38.2417 530.709 38.2432C530.709 38.2446 530.708 38.246 530.708 38.2474C530.708 38.2488 530.708 38.2503 530.708 38.2517C530.707 38.2531 530.707 38.2545 530.707 38.256C530.707 38.2574 530.706 38.2588 530.706 38.2602C530.706 38.2616 530.706 38.2631 530.706 38.2645C530.705 38.2659 530.705 38.2673 530.705 38.2688C530.705 38.2702 530.704 38.2716 530.704 38.273C530.704 38.2744 530.704 38.2759 530.704 38.2773C530.703 38.2787 530.703 38.2801 530.703 38.2815C530.703 38.283 530.703 38.2844 530.702 38.2858C530.702 38.2872 530.702 38.2887 530.702 38.2901C530.701 38.2915 530.701 38.2929 530.701 38.2943C530.701 38.2958 530.701 38.2972 530.7 38.2986C530.7 38.3 530.7 38.3015 530.7 38.3029C530.699 38.3043 530.699 38.3057 530.699 38.3071C530.699 38.3086 530.699 38.31 530.698 38.3114C530.698 38.3128 530.698 38.3143 530.698 38.3157C530.697 38.3171 530.697 38.3185 530.697 38.3199C530.697 38.3214 530.697 38.3228 530.696 38.3242C530.696 38.3256 530.696 38.327 530.696 38.3285C530.696 38.3299 530.695 38.3313 530.695 38.3327C530.695 38.3342 530.695 38.3356 530.694 38.337C530.694 38.3384 530.694 38.3398 530.694 38.3413C530.694 38.3427 530.693 38.3441 530.693 38.3455C530.693 38.347 530.693 38.3484 530.692 38.3498C530.692 38.3512 530.692 38.3526 530.692 38.3541C530.692 38.3555 530.691 38.3569 530.691 38.3583C530.691 38.3598 530.691 38.3612 530.69 38.3626C530.69 38.364 530.69 38.3654 530.69 38.3669C530.69 38.3683 530.689 38.3697 530.689 38.3711C530.689 38.3725 530.689 38.374 530.689 38.3754C530.688 38.3768 530.688 38.3782 530.688 38.3797C530.688 38.3811 530.687 38.3825 530.687 38.3839C530.687 38.3853 530.687 38.3868 530.687 38.3882C530.686 38.3896 530.686 38.391 530.686 38.3925C530.686 38.3939 530.685 38.3953 530.685 38.3967C530.685 38.3981 530.685 38.3996 530.685 38.401C530.684 38.4024 530.684 38.4038 530.684 38.4053C530.684 38.4067 530.684 38.4081 530.683 38.4095C530.683 38.4109 530.683 38.4124 530.683 38.4138C530.682 38.4152 530.682 38.4166 530.682 38.418C530.682 38.4195 530.682 38.4209 530.681 38.4223C530.681 38.4237 530.681 38.4252 530.681 38.4266C530.68 38.428 530.68 38.4294 530.68 38.4308C530.68 38.4323 530.68 38.4337 530.679 38.4351C530.679 38.4365 530.679 38.438 530.679 38.4394C530.678 38.4408 530.678 38.4422 530.678 38.4436C530.678 38.4451 530.678 38.4465 530.677 38.4479C530.677 38.4493 530.677 38.4508 530.677 38.4522C530.676 38.4536 530.676 38.455 530.676 38.4564C530.676 38.4579 530.676 38.4593 530.675 38.4607C530.675 38.4621 530.675 38.4635 530.675 38.465C530.675 38.4664 530.674 38.4678 530.674 38.4692C530.674 38.4707 530.674 38.4721 530.673 38.4735C530.673 38.4749 530.673 38.4763 530.673 38.4778C530.673 38.4792 530.672 38.4806 530.672 38.482C530.672 38.4835 530.672 38.4849 530.671 38.4863C530.671 38.4877 530.671 38.4891 530.671 38.4906C530.671 38.492 530.67 38.4934 530.67 38.4948C530.67 38.4963 530.67 38.4977 530.669 38.4991C530.669 38.5005 530.669 38.5019 530.669 38.5034C530.669 38.5048 530.668 38.5062 530.668 38.5076C530.668 38.509 530.668 38.5105 530.668 38.5119C530.667 38.5133 530.667 38.5147 530.667 38.5162C530.667 38.5176 530.666 38.519 530.666 38.5204C530.666 38.5218 530.666 38.5233 530.666 38.5247C530.665 38.5261 530.665 38.5275 530.665 38.529C530.665 38.5304 530.664 38.5318 530.664 38.5332C530.664 38.5346 530.664 38.5361 530.664 38.5375C530.663 38.5389 530.663 38.5403 530.663 38.5418C530.663 38.5432 530.663 38.5446 530.662 38.546C530.662 38.5474 530.662 38.5489 530.662 38.5503C530.661 38.5517 530.661 38.5531 530.661 38.5545C530.661 38.556 530.661 38.5574 530.66 38.5588C530.66 38.5602 530.66 38.5617 530.66 38.5631C530.659 38.5645 530.659 38.5659 530.659 38.5673C530.659 38.5688 530.659 38.5702 530.658 38.5716C530.658 38.573 530.658 38.5745 530.658 38.5759C530.657 38.5773 530.657 38.5787 530.657 38.5801C530.657 38.5816 530.657 38.583 530.656 38.5844C530.656 38.5858 530.656 38.5873 530.656 38.5887C530.656 38.5901 530.655 38.5915 530.655 38.5929C530.655 38.5944 530.655 38.5958 530.654 38.5972C530.654 38.5986 530.654 38.6 530.654 38.6015C530.654 38.6029 530.653 38.6043 530.653 38.6057C530.653 38.6072 530.653 38.6086 530.652 38.61C530.652 38.6114 530.652 38.6128 530.652 38.6143C530.652 38.6157 530.651 38.6171 530.651 38.6185C530.651 38.62 530.651 38.6214 530.65 38.6228C530.65 38.6242 530.65 38.6256 530.65 38.6271C530.65 38.6285 530.649 38.6299 530.649 38.6313C530.649 38.6328 530.649 38.6342 530.648 38.6356C530.648 38.637 530.648 38.6384 530.648 38.6399C530.648 38.6413 530.647 38.6427 530.647 38.6441C530.647 38.6455 530.647 38.647 530.647 38.6484C530.646 38.6498 530.646 38.6512 530.646 38.6527C530.646 38.6541 530.645 38.6555 530.645 38.6569C530.645 38.6583 530.645 38.6598 530.645 38.6612C530.644 38.6626 530.644 38.664 530.644 38.6655C530.644 38.6669 530.643 38.6683 530.643 38.6697C530.643 38.6711 530.643 38.6726 530.643 38.674C530.642 38.6754 530.642 38.6768 530.642 38.6783C530.642 38.6797 530.641 38.6811 530.641 38.6825C530.641 38.6839 530.641 38.6854 530.641 38.6868C530.64 38.6882 530.64 38.6896 530.64 38.691C530.64 38.6925 530.64 38.6939 530.639 38.6953C530.639 38.6967 530.639 38.6982 530.639 38.6996C530.638 38.701 530.638 38.7024 530.638 38.7038C530.638 38.7053 530.638 38.7067 530.637 38.7081C530.637 38.7095 530.637 38.711 530.637 38.7124C530.636 38.7138 530.636 38.7152 530.636 38.7166C530.636 38.7181 530.636 38.7195 530.635 38.7209C530.635 38.7223 530.635 38.7238 530.635 38.7252C530.635 38.7266 530.634 38.728 530.634 38.7294C530.634 38.7309 530.634 38.7323 530.633 38.7337C530.633 38.7351 530.633 38.7365 530.633 38.738C530.633 38.7394 530.632 38.7408 530.632 38.7422C530.632 38.7437 530.632 38.7451 530.631 38.7465C530.631 38.7479 530.631 38.7493 530.631 38.7508C530.631 38.7522 530.63 38.7536 530.63 38.755C530.63 38.7565 530.63 38.7579 530.629 38.7593C530.629 38.7607 530.629 38.7621 530.629 38.7636C530.629 38.765 530.628 38.7664 530.628 38.7678C530.628 38.7693 530.628 38.7707 530.628 38.7721C530.627 38.7735 530.627 38.7749 530.627 38.7764C530.627 38.7778 530.626 38.7792 530.626 38.7806C530.626 38.782 530.626 38.7835 530.626 38.7849C530.625 38.7863 530.625 38.7877 530.625 38.7892C530.625 38.7906 530.624 38.792 530.624 38.7934C530.624 38.7948 530.624 38.7963 530.624 38.7977C530.623 38.7991 530.623 38.8005 530.623 38.802C530.623 38.8034 530.622 38.8048 530.622 38.8062C530.622 38.8076 530.622 38.8091 530.622 38.8105C530.621 38.8119 530.621 38.8133 530.621 38.8148C530.621 38.8162 530.62 38.8176 530.62 38.819C530.62 38.8204 530.62 38.8219 530.62 38.8233C530.619 38.8247 530.619 38.8261 530.619 38.8275C530.619 38.829 530.619 38.8304 530.618 38.8318C530.618 38.8332 530.618 38.8347 530.618 38.8361C530.617 38.8375 530.617 38.8389 530.617 38.8403C530.617 38.8418 530.617 38.8432 530.616 38.8446C530.616 38.846 530.616 38.8475 530.616 38.8489C530.615 38.8503 530.615 38.8517 530.615 38.8531C530.615 38.8546 530.615 38.856 530.614 38.8574C530.614 38.8588 530.614 38.8603 530.614 38.8617C530.613 38.8631 530.613 38.8645 530.613 38.8659C530.613 38.8674 530.613 38.8688 530.612 38.8702C530.612 38.8716 530.612 38.873 530.612 38.8745C530.612 38.8759 530.611 38.8773 530.611 38.8787C530.611 38.8802 530.611 38.8816 530.61 38.883C530.61 38.8844 530.61 38.8858 530.61 38.8873C530.61 38.8887 530.609 38.8901 530.609 38.8915C530.609 38.893 530.609 38.8944 530.608 38.8958C530.608 38.8972 530.608 38.8986 530.608 38.9001C530.608 38.9015 530.607 38.9029 530.607 38.9043C530.607 38.9058 530.607 38.9072 530.607 38.9086C530.606 38.91 530.606 38.9114 530.606 38.9129C530.606 38.9143 530.605 38.9157 530.605 38.9171C530.605 38.9185 530.605 38.92 530.605 38.9214C530.604 38.9228 530.604 38.9242 530.604 38.9257C530.604 38.9271 530.603 38.9285 530.603 38.9299C530.603 38.9313 530.603 38.9328 530.603 38.9342C530.602 38.9356 530.602 38.937 530.602 38.9385C530.602 38.9399 530.601 38.9413 530.601 38.9427C530.601 38.9441 530.601 38.9456 530.601 38.947C530.6 38.9484 530.6 38.9498 530.6 38.9513C530.6 38.9527 530.6 38.9541 530.599 38.9555C530.599 38.9569 530.599 38.9584 530.599 38.9598C530.598 38.9612 530.598 38.9626 530.598 38.964C530.598 38.9655 530.598 38.9669 530.597 38.9683C530.597 38.9697 530.597 38.9712 530.597 38.9726C530.596 38.974 530.596 38.9754 530.596 38.9768C530.596 38.9783 530.596 38.9797 530.595 38.9811C530.595 38.9825 530.595 38.984 530.595 38.9854C530.594 38.9868 530.594 38.9882 530.594 38.9896C530.594 38.9911 530.594 38.9925 530.593 38.9939C530.593 38.9953 530.593 38.9968 530.593 38.9982C530.592 38.9996 530.592 39.001 530.592 39.0024C530.592 39.0039 530.592 39.0053 530.591 39.0067C530.591 39.0081 530.591 39.0095 530.591 39.011C530.591 39.0124 530.59 39.0138 530.59 39.0152C530.59 39.0167 530.59 39.0181 530.589 39.0195C530.589 39.0209 530.589 39.0223 530.589 39.0238C530.589 39.0252 530.588 39.0266 530.588 39.028C530.588 39.0295 530.588 39.0309 530.587 39.0323C530.587 39.0337 530.587 39.0351 530.587 39.0366C530.587 39.038 530.586 39.0394 530.586 39.0408C530.586 39.0423 530.586 39.0437 530.585 39.0451C530.585 39.0465 530.585 39.0479 530.585 39.0494C530.585 39.0508 530.584 39.0522 530.584 39.0536C530.584 39.055 530.584 39.0565 530.584 39.0579C530.583 39.0593 530.583 39.0607 530.583 39.0622C530.583 39.0636 530.582 39.065 530.582 39.0664C530.582 39.0678 530.582 39.0693 530.582 39.0707C530.581 39.0721 530.581 39.0735 530.581 39.075C530.581 39.0764 530.58 39.0778 530.58 39.0792C530.58 39.0806 530.58 39.0821 530.58 39.0835C530.579 39.0849 530.579 39.0863 530.579 39.0878C530.579 39.0892 530.579 39.0906 530.578 39.092C530.578 39.0934 530.578 39.0949 530.578 39.0963C530.577 39.0977 530.577 39.0991 530.577 39.1005C530.577 39.102 530.577 39.1034 530.576 39.1048C530.576 39.1062 530.576 39.1077 530.576 39.1091C530.575 39.1105 530.575 39.1119 530.575 39.1133C530.575 39.1148 530.575 39.1162 530.574 39.1176C530.574 39.119 530.574 39.1205 530.574 39.1219C530.573 39.1233 530.573 39.1247 530.573 39.1261C530.573 39.1276 530.573 39.129 530.572 39.1304C530.572 39.1318 530.572 39.1333 530.572 39.1347C530.572 39.1361 530.571 39.1375 530.571 39.1389C530.571 39.1404 530.571 39.1418 530.57 39.1432C530.57 39.1446 530.57 39.146 530.57 39.1475C530.57 39.1489 530.569 39.1503 530.569 39.1517C530.569 39.1532 530.569 39.1546 530.568 39.156C530.568 39.1574 530.568 39.1588 530.568 39.1603C530.568 39.1617 530.567 39.1631 530.567 39.1645C530.567 39.166 530.567 39.1674 530.566 39.1688C530.566 39.1702 530.566 39.1716 530.566 39.1731C530.566 39.1745 530.565 39.1759 530.565 39.1773C530.565 39.1788 530.565 39.1802 530.564 39.1816C530.564 39.183 530.564 39.1844 530.564 39.1859C530.564 39.1873 530.563 39.1887 530.563 39.1901C530.563 39.1915 530.563 39.193 530.563 39.1944C530.562 39.1958 530.562 39.1972 530.562 39.1987C530.562 39.2001 530.561 39.2015 530.561 39.2029C530.561 39.2043 530.561 39.2058 530.561 39.2072C530.56 39.2086 530.56 39.21 530.56 39.2115C530.56 39.2129 530.559 39.2143 530.559 39.2157C530.559 39.2171 530.559 39.2186 530.559 39.22C530.558 39.2214 530.558 39.2228 530.558 39.2243C530.558 39.2257 530.557 39.2271 530.557 39.2285C530.557 39.2299 530.557 39.2314 530.557 39.2328C530.556 39.2342 530.556 39.2356 530.556 39.237C530.556 39.2385 530.556 39.2399 530.555 39.2413C530.555 39.2427 530.555 39.2442 530.555 39.2456C530.554 39.247 530.554 39.2484 530.554 39.2498C530.554 39.2513 530.554 39.2527 530.553 39.2541C530.553 39.2555 530.553 39.257 530.553 39.2584C530.552 39.2598 530.552 39.2612 530.552 39.2626C530.552 39.2641 530.552 39.2655 530.551 39.2669C530.551 39.2683 530.551 39.2698 530.551 39.2712C530.551 39.2726 530.55 39.274 530.55 39.2754C530.55 39.2769 530.55 39.2783 530.549 39.2797C530.549 39.2811 530.549 39.2825 530.549 39.284C530.549 39.2854 530.548 39.2868 530.548 39.2882C530.548 39.2897 530.548 39.2911 530.547 39.2925C530.547 39.2939 530.547 39.2953 530.547 39.2968C530.547 39.2982 530.546 39.2996 530.546 39.301C530.546 39.3025 530.546 39.3039 530.545 39.3053C530.545 39.3067 530.545 39.3081 530.545 39.3096C530.545 39.311 530.544 39.3124 530.544 39.3138C530.544 39.3153 530.544 39.3167 530.544 39.3181C530.543 39.3195 530.543 39.3209 530.543 39.3224C530.543 39.3238 530.542 39.3252 530.542 39.3266C530.542 39.328 530.542 39.3295 530.542 39.3309C530.541 39.3323 530.541 39.3337 530.541 39.3352C530.541 39.3366 530.54 39.338 530.54 39.3394C530.54 39.3408 530.54 39.3423 530.54 39.3437C530.539 39.3451 530.539 39.3465 530.539 39.348C530.539 39.3494 530.538 39.3508 530.538 39.3522C530.538 39.3536 530.538 39.3551 530.538 39.3565C530.537 39.3579 530.537 39.3593 530.537 39.3608C530.537 39.3622 530.536 39.3636 530.536 39.365C530.536 39.3664 530.536 39.3679 530.536 39.3693C530.535 39.3707 530.535 39.3721 530.535 39.3735C530.535 39.375 530.535 39.3764 530.534 39.3778C530.534 39.3792 530.534 39.3807 530.534 39.3821C530.533 39.3835 530.533 39.3849 530.533 39.3863C530.533 39.3878 530.533 39.3892 530.532 39.3906C530.532 39.392 530.532 39.3935 530.532 39.3949C530.531 39.3963 530.531 39.3977 530.531 39.3991C530.531 39.4006 530.531 39.402 530.53 39.4034C530.53 39.4048 530.53 39.4063 530.53 39.4077C530.529 39.4091 530.529 39.4105 530.529 39.4119C530.529 39.4134 530.529 39.4148 530.528 39.4162C530.528 39.4176 530.528 39.419 530.528 39.4205C530.528 39.4219 530.527 39.4233 530.527 39.4247C530.527 39.4262 530.527 39.4276 530.526 39.429C530.526 39.4304 530.526 39.4318 530.526 39.4333C530.526 39.4347 530.525 39.4361 530.525 39.4375C530.525 39.439 530.525 39.4404 530.524 39.4418C530.524 39.4432 530.524 39.4446 530.524 39.4461C530.524 39.4475 530.523 39.4489 530.523 39.4503C530.523 39.4518 530.523 39.4532 530.523 39.4546C530.522 39.456 530.522 39.4574 530.522 39.4589C530.522 39.4603 530.521 39.4617 530.521 39.4631C530.521 39.4645 530.521 39.466 530.521 39.4674C530.52 39.4688 530.52 39.4702 530.52 39.4717C530.52 39.4731 530.519 39.4745 530.519 39.4759C530.519 39.4773 530.519 39.4788 530.519 39.4802C530.518 39.4816 530.518 39.483 530.518 39.4845C530.518 39.4859 530.517 39.4873 530.517 39.4887C530.517 39.4901 530.517 39.4916 530.517 39.493C530.516 39.4944 530.516 39.4958 530.516 39.4973C530.516 39.4987 530.516 39.5001 530.515 39.5015C530.515 39.5029 530.515 39.5044 530.515 39.5058C530.514 39.5072 530.514 39.5086 530.514 39.51C530.514 39.5115 530.514 39.5129 530.513 39.5143C530.513 39.5157 530.513 39.5172 530.513 39.5186C530.512 39.52 530.512 39.5214 530.512 39.5228C530.512 39.5243 530.512 39.5257 530.511 39.5271C530.511 39.5285 530.511 39.53 530.511 39.5314C530.51 39.5328 530.51 39.5342 530.51 39.5356C530.51 39.5371 530.51 39.5385 530.509 39.5399C530.509 39.5413 530.509 39.5428 530.509 39.5442C530.508 39.5456 530.508 39.547 530.508 39.5484C530.508 39.5499 530.508 39.5513 530.507 39.5527C530.507 39.5541 530.507 39.5555 530.507 39.557C530.507 39.5584 530.506 39.5598 530.506 39.5612C530.506 39.5627 530.506 39.5641 530.505 39.5655C530.505 39.5669 530.505 39.5683 530.505 39.5698C530.505 39.5712 530.504 39.5726 530.504 39.574C530.504 39.5755 530.504 39.5769 530.503 39.5783C530.503 39.5797 530.503 39.5811 530.503 39.5826C530.503 39.584 530.502 39.5854 530.502 39.5868C530.502 39.5883 530.502 39.5897 530.501 39.5911C530.501 39.5925 530.501 39.5939 530.501 39.5954C530.501 39.5968 530.5 39.5982 530.5 39.5996C530.5 39.601 530.5 39.6025 530.5 39.6039C530.499 39.6053 530.499 39.6067 530.499 39.6082C530.499 39.6096 530.498 39.611 530.498 39.6124C530.498 39.6138 530.498 39.6153 530.498 39.6167C530.497 39.6181 530.497 39.6195 530.497 39.621C530.497 39.6224 530.496 39.6238 530.496 39.6252C530.496 39.6266 530.496 39.6281 530.496 39.6295C530.495 39.6309 530.495 39.6323 530.495 39.6338C530.495 39.6352 530.495 39.6366 530.494 39.638C530.494 39.6394 530.494 39.6409 530.494 39.6423C530.493 39.6437 530.493 39.6451 530.493 39.6465C530.493 39.648 530.493 39.6494 530.492 39.6508C530.492 39.6522 530.492 39.6537 530.492 39.6551C530.491 39.6565 530.491 39.6579 530.491 39.6593C530.491 39.6608 530.491 39.6622 530.49 39.6636C530.49 39.665 530.49 39.6665 530.49 39.6679C530.489 39.6693 530.489 39.6707 530.489 39.6721C530.489 39.6736 530.489 39.675 530.488 39.6764C530.488 39.6778 530.488 39.6793 530.488 39.6807C530.488 39.6821 530.487 39.6835 530.487 39.6849C530.487 39.6864 530.487 39.6878 530.486 39.6892C530.486 39.6906 530.486 39.692 530.486 39.6935C530.486 39.6949 530.485 39.6963 530.485 39.6977C530.485 39.6992 530.485 39.7006 530.484 39.702C530.484 39.7034 530.484 39.7048 530.484 39.7063C530.484 39.7077 530.483 39.7091 530.483 39.7105C530.483 39.712 530.483 39.7134 530.482 39.7148C530.482 39.7162 530.482 39.7176 530.482 39.7191C530.482 39.7205 530.481 39.7219 530.481 39.7233C530.481 39.7248 530.481 39.7262 530.48 39.7276C530.48 39.729 530.48 39.7304 530.48 39.7319C530.48 39.7333 530.479 39.7347 530.479 39.7361C530.479 39.7375 530.479 39.739 530.479 39.7404C530.478 39.7418 530.478 39.7432 530.478 39.7447C530.478 39.7461 530.477 39.7475 530.477 39.7489C530.477 39.7503 530.477 39.7518 530.477 39.7532C530.476 39.7546 530.476 39.756 530.476 39.7575C530.476 39.7589 530.475 39.7603 530.475 39.7617C530.475 39.7631 530.475 39.7646 530.475 39.766C530.474 39.7674 530.474 39.7688 530.474 39.7703C530.474 39.7717 530.473 39.7731 530.473 39.7745C530.473 39.7759 530.473 39.7774 530.473 39.7788C530.472 39.7802 530.472 39.7816 530.472 39.783C530.472 39.7845 530.472 39.7859 530.471 39.7873C530.471 39.7887 530.471 39.7902 530.471 39.7916C530.47 39.793 530.47 39.7944 530.47 39.7958C530.47 39.7973 530.47 39.7987 530.469 39.8001C530.469 39.8015 530.469 39.803 530.469 39.8044C530.468 39.8058 530.468 39.8072 530.468 39.8086C530.468 39.8101 530.468 39.8115 530.467 39.8129C530.467 39.8143 530.467 39.8158 530.467 39.8172C530.467 39.8186 530.466 39.82 530.466 39.8214C530.466 39.8229 530.466 39.8243 530.465 39.8257C530.465 39.8271 530.465 39.8285 530.465 39.83C530.465 39.8314 530.464 39.8328 530.464 39.8342C530.464 39.8357 530.464 39.8371 530.463 39.8385C530.463 39.8399 530.463 39.8413 530.463 39.8428C530.463 39.8442 530.462 39.8456 530.462 39.847C530.462 39.8485 530.462 39.8499 530.461 39.8513C530.461 39.8527 530.461 39.8541 530.461 39.8556C530.461 39.857 530.46 39.8584 530.46 39.8598C530.46 39.8613 530.46 39.8627 530.46 39.8641C530.459 39.8655 530.459 39.8669 530.459 39.8684C530.459 39.8698 530.458 39.8712 530.458 39.8726C530.458 39.874 530.458 39.8755 530.458 39.8769C530.457 39.8783 530.457 39.8797 530.457 39.8812C530.457 39.8826 530.456 39.884 530.456 39.8854C530.456 39.8868 530.456 39.8883 530.456 39.8897C530.455 39.8911 530.455 39.8925 530.455 39.894L531.937 40.122C531.938 40.1206 531.938 40.1192 531.938 40.1178C531.938 40.1164 531.939 40.1149 531.939 40.1135C531.939 40.1121 531.939 40.1107 531.939 40.1092C531.94 40.1078 531.94 40.1064 531.94 40.105C531.94 40.1036 531.941 40.1021 531.941 40.1007C531.941 40.0993 531.941 40.0979 531.941 40.0964C531.942 40.095 531.942 40.0936 531.942 40.0922C531.942 40.0908 531.942 40.0893 531.943 40.0879C531.943 40.0865 531.943 40.0851 531.943 40.0836C531.944 40.0822 531.944 40.0808 531.944 40.0794C531.944 40.078 531.944 40.0765 531.945 40.0751C531.945 40.0737 531.945 40.0723 531.945 40.0709C531.946 40.0694 531.946 40.068 531.946 40.0666C531.946 40.0652 531.946 40.0637 531.947 40.0623C531.947 40.0609 531.947 40.0595 531.947 40.0581C531.948 40.0566 531.948 40.0552 531.948 40.0538C531.948 40.0524 531.948 40.0509 531.949 40.0495C531.949 40.0481 531.949 40.0467 531.949 40.0453C531.949 40.0438 531.95 40.0424 531.95 40.041C531.95 40.0396 531.95 40.0381 531.951 40.0367C531.951 40.0353 531.951 40.0339 531.951 40.0325C531.951 40.031 531.952 40.0296 531.952 40.0282C531.952 40.0268 531.952 40.0254 531.953 40.0239C531.953 40.0225 531.953 40.0211 531.953 40.0197C531.953 40.0182 531.954 40.0168 531.954 40.0154C531.954 40.014 531.954 40.0126 531.955 40.0111C531.955 40.0097 531.955 40.0083 531.955 40.0069C531.955 40.0054 531.956 40.004 531.956 40.0026C531.956 40.0012 531.956 39.9998 531.956 39.9983C531.957 39.9969 531.957 39.9955 531.957 39.9941C531.957 39.9926 531.958 39.9912 531.958 39.9898C531.958 39.9884 531.958 39.987 531.958 39.9855C531.959 39.9841 531.959 39.9827 531.959 39.9813C531.959 39.9799 531.96 39.9784 531.96 39.977C531.96 39.9756 531.96 39.9742 531.96 39.9727C531.961 39.9713 531.961 39.9699 531.961 39.9685C531.961 39.9671 531.962 39.9656 531.962 39.9642C531.962 39.9628 531.962 39.9614 531.962 39.9599C531.963 39.9585 531.963 39.9571 531.963 39.9557C531.963 39.9543 531.964 39.9528 531.964 39.9514C531.964 39.95 531.964 39.9486 531.964 39.9471C531.965 39.9457 531.965 39.9443 531.965 39.9429C531.965 39.9415 531.965 39.94 531.966 39.9386C531.966 39.9372 531.966 39.9358 531.966 39.9344C531.967 39.9329 531.967 39.9315 531.967 39.9301C531.967 39.9287 531.967 39.9272 531.968 39.9258C531.968 39.9244 531.968 39.923 531.968 39.9216C531.969 39.9201 531.969 39.9187 531.969 39.9173C531.969 39.9159 531.969 39.9144 531.97 39.913C531.97 39.9116 531.97 39.9102 531.97 39.9088C531.97 39.9073 531.971 39.9059 531.971 39.9045C531.971 39.9031 531.971 39.9016 531.972 39.9002C531.972 39.8988 531.972 39.8974 531.972 39.896C531.972 39.8945 531.973 39.8931 531.973 39.8917C531.973 39.8903 531.973 39.8889 531.974 39.8874C531.974 39.886 531.974 39.8846 531.974 39.8832C531.974 39.8817 531.975 39.8803 531.975 39.8789C531.975 39.8775 531.975 39.8761 531.976 39.8746C531.976 39.8732 531.976 39.8718 531.976 39.8704C531.976 39.8689 531.977 39.8675 531.977 39.8661C531.977 39.8647 531.977 39.8633 531.977 39.8618C531.978 39.8604 531.978 39.859 531.978 39.8576C531.978 39.8561 531.979 39.8547 531.979 39.8533C531.979 39.8519 531.979 39.8505 531.979 39.849C531.98 39.8476 531.98 39.8462 531.98 39.8448C531.98 39.8434 531.981 39.8419 531.981 39.8405C531.981 39.8391 531.981 39.8377 531.981 39.8362C531.982 39.8348 531.982 39.8334 531.982 39.832C531.982 39.8306 531.983 39.8291 531.983 39.8277C531.983 39.8263 531.983 39.8249 531.983 39.8234C531.984 39.822 531.984 39.8206 531.984 39.8192C531.984 39.8178 531.984 39.8163 531.985 39.8149C531.985 39.8135 531.985 39.8121 531.985 39.8106C531.986 39.8092 531.986 39.8078 531.986 39.8064C531.986 39.805 531.986 39.8035 531.987 39.8021C531.987 39.8007 531.987 39.7993 531.987 39.7979C531.988 39.7964 531.988 39.795 531.988 39.7936C531.988 39.7922 531.988 39.7907 531.989 39.7893C531.989 39.7879 531.989 39.7865 531.989 39.7851C531.99 39.7836 531.99 39.7822 531.99 39.7808C531.99 39.7794 531.99 39.7779 531.991 39.7765C531.991 39.7751 531.991 39.7737 531.991 39.7723C531.992 39.7708 531.992 39.7694 531.992 39.768C531.992 39.7666 531.992 39.7651 531.993 39.7637C531.993 39.7623 531.993 39.7609 531.993 39.7595C531.993 39.758 531.994 39.7566 531.994 39.7552C531.994 39.7538 531.994 39.7524 531.995 39.7509C531.995 39.7495 531.995 39.7481 531.995 39.7467C531.995 39.7452 531.996 39.7438 531.996 39.7424C531.996 39.741 531.996 39.7396 531.997 39.7381C531.997 39.7367 531.997 39.7353 531.997 39.7339C531.997 39.7324 531.998 39.731 531.998 39.7296C531.998 39.7282 531.998 39.7268 531.998 39.7253C531.999 39.7239 531.999 39.7225 531.999 39.7211C531.999 39.7196 532 39.7182 532 39.7168C532 39.7154 532 39.714 532 39.7125C532.001 39.7111 532.001 39.7097 532.001 39.7083C532.001 39.7069 532.002 39.7054 532.002 39.704C532.002 39.7026 532.002 39.7012 532.002 39.6997C532.003 39.6983 532.003 39.6969 532.003 39.6955C532.003 39.6941 532.004 39.6926 532.004 39.6912C532.004 39.6898 532.004 39.6884 532.004 39.6869C532.005 39.6855 532.005 39.6841 532.005 39.6827C532.005 39.6813 532.005 39.6798 532.006 39.6784C532.006 39.677 532.006 39.6756 532.006 39.6741C532.007 39.6727 532.007 39.6713 532.007 39.6699C532.007 39.6685 532.007 39.667 532.008 39.6656C532.008 39.6642 532.008 39.6628 532.008 39.6614C532.009 39.6599 532.009 39.6585 532.009 39.6571C532.009 39.6557 532.009 39.6542 532.01 39.6528C532.01 39.6514 532.01 39.65 532.01 39.6486C532.011 39.6471 532.011 39.6457 532.011 39.6443C532.011 39.6429 532.011 39.6414 532.012 39.64C532.012 39.6386 532.012 39.6372 532.012 39.6358C532.012 39.6343 532.013 39.6329 532.013 39.6315C532.013 39.6301 532.013 39.6286 532.014 39.6272C532.014 39.6258 532.014 39.6244 532.014 39.623C532.014 39.6215 532.015 39.6201 532.015 39.6187C532.015 39.6173 532.015 39.6159 532.016 39.6144C532.016 39.613 532.016 39.6116 532.016 39.6102C532.016 39.6087 532.017 39.6073 532.017 39.6059C532.017 39.6045 532.017 39.6031 532.018 39.6016C532.018 39.6002 532.018 39.5988 532.018 39.5974C532.018 39.5959 532.019 39.5945 532.019 39.5931C532.019 39.5917 532.019 39.5903 532.02 39.5888C532.02 39.5874 532.02 39.586 532.02 39.5846C532.02 39.5831 532.021 39.5817 532.021 39.5803C532.021 39.5789 532.021 39.5775 532.021 39.576C532.022 39.5746 532.022 39.5732 532.022 39.5718C532.022 39.5704 532.023 39.5689 532.023 39.5675C532.023 39.5661 532.023 39.5647 532.023 39.5632C532.024 39.5618 532.024 39.5604 532.024 39.559C532.024 39.5576 532.025 39.5561 532.025 39.5547C532.025 39.5533 532.025 39.5519 532.025 39.5504C532.026 39.549 532.026 39.5476 532.026 39.5462C532.026 39.5448 532.026 39.5433 532.027 39.5419C532.027 39.5405 532.027 39.5391 532.027 39.5376C532.028 39.5362 532.028 39.5348 532.028 39.5334C532.028 39.532 532.028 39.5305 532.029 39.5291C532.029 39.5277 532.029 39.5263 532.029 39.5248C532.03 39.5234 532.03 39.522 532.03 39.5206C532.03 39.5192 532.03 39.5177 532.031 39.5163C532.031 39.5149 532.031 39.5135 532.031 39.5121C532.032 39.5106 532.032 39.5092 532.032 39.5078C532.032 39.5064 532.032 39.5049 532.033 39.5035C532.033 39.5021 532.033 39.5007 532.033 39.4993C532.033 39.4978 532.034 39.4964 532.034 39.495C532.034 39.4936 532.034 39.4921 532.035 39.4907C532.035 39.4893 532.035 39.4879 532.035 39.4865C532.035 39.485 532.036 39.4836 532.036 39.4822C532.036 39.4808 532.036 39.4794 532.037 39.4779C532.037 39.4765 532.037 39.4751 532.037 39.4737C532.037 39.4722 532.038 39.4708 532.038 39.4694C532.038 39.468 532.038 39.4666 532.039 39.4651C532.039 39.4637 532.039 39.4623 532.039 39.4609C532.039 39.4594 532.04 39.458 532.04 39.4566C532.04 39.4552 532.04 39.4538 532.04 39.4523C532.041 39.4509 532.041 39.4495 532.041 39.4481C532.041 39.4466 532.042 39.4452 532.042 39.4438C532.042 39.4424 532.042 39.441 532.042 39.4395C532.043 39.4381 532.043 39.4367 532.043 39.4353C532.043 39.4339 532.044 39.4324 532.044 39.431C532.044 39.4296 532.044 39.4282 532.044 39.4267C532.045 39.4253 532.045 39.4239 532.045 39.4225C532.045 39.4211 532.046 39.4196 532.046 39.4182C532.046 39.4168 532.046 39.4154 532.046 39.4139C532.047 39.4125 532.047 39.4111 532.047 39.4097C532.047 39.4083 532.048 39.4068 532.048 39.4054C532.048 39.404 532.048 39.4026 532.048 39.4011C532.049 39.3997 532.049 39.3983 532.049 39.3969C532.049 39.3955 532.049 39.394 532.05 39.3926C532.05 39.3912 532.05 39.3898 532.05 39.3884C532.051 39.3869 532.051 39.3855 532.051 39.3841C532.051 39.3827 532.051 39.3812 532.052 39.3798C532.052 39.3784 532.052 39.377 532.052 39.3756C532.053 39.3741 532.053 39.3727 532.053 39.3713C532.053 39.3699 532.053 39.3684 532.054 39.367C532.054 39.3656 532.054 39.3642 532.054 39.3628C532.054 39.3613 532.055 39.3599 532.055 39.3585C532.055 39.3571 532.055 39.3556 532.056 39.3542C532.056 39.3528 532.056 39.3514 532.056 39.35C532.056 39.3485 532.057 39.3471 532.057 39.3457C532.057 39.3443 532.057 39.3428 532.058 39.3414C532.058 39.34 532.058 39.3386 532.058 39.3372C532.058 39.3357 532.059 39.3343 532.059 39.3329C532.059 39.3315 532.059 39.3301 532.06 39.3286C532.06 39.3272 532.06 39.3258 532.06 39.3244C532.06 39.3229 532.061 39.3215 532.061 39.3201C532.061 39.3187 532.061 39.3173 532.061 39.3158C532.062 39.3144 532.062 39.313 532.062 39.3116C532.062 39.3101 532.063 39.3087 532.063 39.3073C532.063 39.3059 532.063 39.3045 532.063 39.303C532.064 39.3016 532.064 39.3002 532.064 39.2988C532.064 39.2973 532.065 39.2959 532.065 39.2945C532.065 39.2931 532.065 39.2917 532.065 39.2902C532.066 39.2888 532.066 39.2874 532.066 39.286C532.066 39.2846 532.067 39.2831 532.067 39.2817C532.067 39.2803 532.067 39.2789 532.067 39.2774C532.068 39.276 532.068 39.2746 532.068 39.2732C532.068 39.2718 532.068 39.2703 532.069 39.2689C532.069 39.2675 532.069 39.2661 532.069 39.2646C532.07 39.2632 532.07 39.2618 532.07 39.2604C532.07 39.259 532.07 39.2575 532.071 39.2561C532.071 39.2547 532.071 39.2533 532.071 39.2519C532.072 39.2504 532.072 39.249 532.072 39.2476C532.072 39.2462 532.072 39.2447 532.073 39.2433C532.073 39.2419 532.073 39.2405 532.073 39.2391C532.074 39.2376 532.074 39.2362 532.074 39.2348C532.074 39.2334 532.074 39.2319 532.075 39.2305C532.075 39.2291 532.075 39.2277 532.075 39.2263C532.076 39.2248 532.076 39.2234 532.076 39.222C532.076 39.2206 532.076 39.2191 532.077 39.2177C532.077 39.2163 532.077 39.2149 532.077 39.2135C532.077 39.212 532.078 39.2106 532.078 39.2092C532.078 39.2078 532.078 39.2064 532.079 39.2049C532.079 39.2035 532.079 39.2021 532.079 39.2007C532.079 39.1992 532.08 39.1978 532.08 39.1964C532.08 39.195 532.08 39.1936 532.081 39.1921C532.081 39.1907 532.081 39.1893 532.081 39.1879C532.081 39.1864 532.082 39.185 532.082 39.1836C532.082 39.1822 532.082 39.1808 532.082 39.1793C532.083 39.1779 532.083 39.1765 532.083 39.1751C532.083 39.1736 532.084 39.1722 532.084 39.1708C532.084 39.1694 532.084 39.168 532.084 39.1665C532.085 39.1651 532.085 39.1637 532.085 39.1623C532.085 39.1608 532.086 39.1594 532.086 39.158C532.086 39.1566 532.086 39.1552 532.086 39.1537C532.087 39.1523 532.087 39.1509 532.087 39.1495C532.087 39.1481 532.088 39.1466 532.088 39.1452C532.088 39.1438 532.088 39.1424 532.088 39.1409C532.089 39.1395 532.089 39.1381 532.089 39.1367C532.089 39.1353 532.089 39.1338 532.09 39.1324C532.09 39.131 532.09 39.1296 532.09 39.1281C532.091 39.1267 532.091 39.1253 532.091 39.1239C532.091 39.1225 532.091 39.121 532.092 39.1196C532.092 39.1182 532.092 39.1168 532.092 39.1153C532.093 39.1139 532.093 39.1125 532.093 39.1111C532.093 39.1097 532.093 39.1082 532.094 39.1068C532.094 39.1054 532.094 39.104 532.094 39.1026C532.095 39.1011 532.095 39.0997 532.095 39.0983C532.095 39.0969 532.095 39.0954 532.096 39.094C532.096 39.0926 532.096 39.0912 532.096 39.0898C532.096 39.0883 532.097 39.0869 532.097 39.0855C532.097 39.0841 532.097 39.0826 532.098 39.0812C532.098 39.0798 532.098 39.0784 532.098 39.077C532.098 39.0755 532.099 39.0741 532.099 39.0727C532.099 39.0713 532.099 39.0698 532.1 39.0684C532.1 39.067 532.1 39.0656 532.1 39.0642C532.1 39.0627 532.101 39.0613 532.101 39.0599C532.101 39.0585 532.101 39.0571 532.102 39.0556C532.102 39.0542 532.102 39.0528 532.102 39.0514C532.102 39.0499 532.103 39.0485 532.103 39.0471C532.103 39.0457 532.103 39.0443 532.104 39.0428C532.104 39.0414 532.104 39.04 532.104 39.0386C532.104 39.0371 532.105 39.0357 532.105 39.0343C532.105 39.0329 532.105 39.0315 532.105 39.03C532.106 39.0286 532.106 39.0272 532.106 39.0258C532.106 39.0244 532.107 39.0229 532.107 39.0215C532.107 39.0201 532.107 39.0187 532.107 39.0172C532.108 39.0158 532.108 39.0144 532.108 39.013C532.108 39.0116 532.109 39.0101 532.109 39.0087C532.109 39.0073 532.109 39.0059 532.109 39.0044C532.11 39.003 532.11 39.0016 532.11 39.0002C532.11 38.9988 532.11 38.9973 532.111 38.9959C532.111 38.9945 532.111 38.9931 532.111 38.9916C532.112 38.9902 532.112 38.9888 532.112 38.9874C532.112 38.986 532.112 38.9845 532.113 38.9831C532.113 38.9817 532.113 38.9803 532.113 38.9788C532.114 38.9774 532.114 38.976 532.114 38.9746C532.114 38.9732 532.114 38.9717 532.115 38.9703C532.115 38.9689 532.115 38.9675 532.115 38.9661C532.116 38.9646 532.116 38.9632 532.116 38.9618C532.116 38.9604 532.116 38.9589 532.117 38.9575C532.117 38.9561 532.117 38.9547 532.117 38.9533C532.117 38.9518 532.118 38.9504 532.118 38.949C532.118 38.9476 532.118 38.9461 532.119 38.9447C532.119 38.9433 532.119 38.9419 532.119 38.9405C532.119 38.939 532.12 38.9376 532.12 38.9362C532.12 38.9348 532.12 38.9333 532.121 38.9319C532.121 38.9305 532.121 38.9291 532.121 38.9277C532.121 38.9262 532.122 38.9248 532.122 38.9234C532.122 38.922 532.122 38.9206 532.123 38.9191C532.123 38.9177 532.123 38.9163 532.123 38.9149C532.123 38.9134 532.124 38.912 532.124 38.9106C532.124 38.9092 532.124 38.9078 532.124 38.9063C532.125 38.9049 532.125 38.9035 532.125 38.9021C532.125 38.9006 532.126 38.8992 532.126 38.8978C532.126 38.8964 532.126 38.895 532.126 38.8935C532.127 38.8921 532.127 38.8907 532.127 38.8893C532.127 38.8878 532.128 38.8864 532.128 38.885C532.128 38.8836 532.128 38.8822 532.128 38.8807C532.129 38.8793 532.129 38.8779 532.129 38.8765C532.129 38.8751 532.13 38.8736 532.13 38.8722C532.13 38.8708 532.13 38.8694 532.13 38.8679C532.131 38.8665 532.131 38.8651 532.131 38.8637C532.131 38.8623 532.132 38.8608 532.132 38.8594C532.132 38.858 532.132 38.8566 532.132 38.8551C532.133 38.8537 532.133 38.8523 532.133 38.8509C532.133 38.8495 532.133 38.848 532.134 38.8466C532.134 38.8452 532.134 38.8438 532.134 38.8424C532.135 38.8409 532.135 38.8395 532.135 38.8381C532.135 38.8367 532.135 38.8352 532.136 38.8338C532.136 38.8324 532.136 38.831 532.136 38.8296C532.137 38.8281 532.137 38.8267 532.137 38.8253C532.137 38.8239 532.137 38.8224 532.138 38.821C532.138 38.8196 532.138 38.8182 532.138 38.8168C532.138 38.8153 532.139 38.8139 532.139 38.8125C532.139 38.8111 532.139 38.8096 532.14 38.8082C532.14 38.8068 532.14 38.8054 532.14 38.804C532.14 38.8025 532.141 38.8011 532.141 38.7997C532.141 38.7983 532.141 38.7968 532.142 38.7954C532.142 38.794 532.142 38.7926 532.142 38.7912C532.142 38.7897 532.143 38.7883 532.143 38.7869C532.143 38.7855 532.143 38.7841 532.144 38.7826C532.144 38.7812 532.144 38.7798 532.144 38.7784C532.144 38.7769 532.145 38.7755 532.145 38.7741C532.145 38.7727 532.145 38.7713 532.145 38.7698C532.146 38.7684 532.146 38.767 532.146 38.7656C532.146 38.7641 532.147 38.7627 532.147 38.7613C532.147 38.7599 532.147 38.7585 532.147 38.757C532.148 38.7556 532.148 38.7542 532.148 38.7528C532.148 38.7513 532.149 38.7499 532.149 38.7485C532.149 38.7471 532.149 38.7457 532.149 38.7442C532.15 38.7428 532.15 38.7414 532.15 38.74C532.15 38.7386 532.151 38.7371 532.151 38.7357C532.151 38.7343 532.151 38.7329 532.151 38.7314C532.152 38.73 532.152 38.7286 532.152 38.7272C532.152 38.7258 532.152 38.7243 532.153 38.7229C532.153 38.7215 532.153 38.7201 532.153 38.7186C532.154 38.7172 532.154 38.7158 532.154 38.7144C532.154 38.713 532.154 38.7115 532.155 38.7101C532.155 38.7087 532.155 38.7073 532.155 38.7058C532.156 38.7044 532.156 38.703 532.156 38.7016C532.156 38.7002 532.156 38.6987 532.157 38.6973C532.157 38.6959 532.157 38.6945 532.157 38.6931C532.158 38.6916 532.158 38.6902 532.158 38.6888C532.158 38.6874 532.158 38.6859 532.159 38.6845C532.159 38.6831 532.159 38.6817 532.159 38.6803C532.16 38.6788 532.16 38.6774 532.16 38.676C532.16 38.6746 532.16 38.6731 532.161 38.6717C532.161 38.6703 532.161 38.6689 532.161 38.6675C532.161 38.666 532.162 38.6646 532.162 38.6632C532.162 38.6618 532.162 38.6603 532.163 38.6589C532.163 38.6575 532.163 38.6561 532.163 38.6547C532.163 38.6532 532.164 38.6518 532.164 38.6504C532.164 38.649 532.164 38.6476 532.165 38.6461C532.165 38.6447 532.165 38.6433 532.165 38.6419C532.165 38.6404 532.166 38.639 532.166 38.6376C532.166 38.6362 532.166 38.6348 532.166 38.6333C532.167 38.6319 532.167 38.6305 532.167 38.6291C532.167 38.6276 532.168 38.6262 532.168 38.6248C532.168 38.6234 532.168 38.622 532.168 38.6205C532.169 38.6191 532.169 38.6177 532.169 38.6163C532.169 38.6148 532.17 38.6134 532.17 38.612C532.17 38.6106 532.17 38.6092 532.17 38.6077C532.171 38.6063 532.171 38.6049 532.171 38.6035C532.171 38.6021 532.172 38.6006 532.172 38.5992C532.172 38.5978 532.172 38.5964 532.172 38.5949C532.173 38.5935 532.173 38.5921 532.173 38.5907C532.173 38.5893 532.173 38.5878 532.174 38.5864C532.174 38.585 532.174 38.5836 532.174 38.5821C532.175 38.5807 532.175 38.5793 532.175 38.5779C532.175 38.5765 532.175 38.575 532.176 38.5736C532.176 38.5722 532.176 38.5708 532.176 38.5693C532.177 38.5679 532.177 38.5665 532.177 38.5651C532.177 38.5637 532.177 38.5622 532.178 38.5608C532.178 38.5594 532.178 38.558 532.178 38.5566C532.179 38.5551 532.179 38.5537 532.179 38.5523C532.179 38.5509 532.179 38.5494 532.18 38.548C532.18 38.5466 532.18 38.5452 532.18 38.5438C532.18 38.5423 532.181 38.5409 532.181 38.5395C532.181 38.5381 532.181 38.5366 532.182 38.5352C532.182 38.5338 532.182 38.5324 532.182 38.531C532.182 38.5295 532.183 38.5281 532.183 38.5267C532.183 38.5253 532.183 38.5238 532.184 38.5224C532.184 38.521 532.184 38.5196 532.184 38.5182C532.184 38.5167 532.185 38.5153 532.185 38.5139C532.185 38.5125 532.185 38.5111 532.186 38.5096C532.186 38.5082 532.186 38.5068 532.186 38.5054C532.186 38.5039 532.187 38.5025 532.187 38.5011C532.187 38.4997 532.187 38.4983 532.188 38.4968C532.188 38.4954 532.188 38.494 532.188 38.4926C532.188 38.4911 532.189 38.4897 532.189 38.4883C532.189 38.4869 532.189 38.4855 532.189 38.484C532.19 38.4826 532.19 38.4812 532.19 38.4798C532.19 38.4783 532.191 38.4769 532.191 38.4755C532.191 38.4741 532.191 38.4727 532.191 38.4712C532.192 38.4698 532.192 38.4684 532.192 38.467C532.192 38.4656 532.193 38.4641 532.193 38.4627C532.193 38.4613 532.193 38.4599 532.193 38.4584C532.194 38.457 532.194 38.4556 532.194 38.4542C532.194 38.4528 532.194 38.4513 532.195 38.4499C532.195 38.4485 532.195 38.4471 532.195 38.4456C532.196 38.4442 532.196 38.4428 532.196 38.4414C532.196 38.44 532.196 38.4385 532.197 38.4371C532.197 38.4357 532.197 38.4343 532.197 38.4328C532.198 38.4314 532.198 38.43 532.198 38.4286C532.198 38.4272 532.198 38.4257 532.199 38.4243C532.199 38.4229 532.199 38.4215 532.199 38.4201C532.2 38.4186 532.2 38.4172 532.2 38.4158C532.2 38.4144 532.2 38.4129 532.201 38.4115C532.201 38.4101 532.201 38.4087 532.201 38.4073C532.201 38.4058 532.202 38.4044 532.202 38.403C532.202 38.4016 532.202 38.4001 532.203 38.3987C532.203 38.3973 532.203 38.3959 532.203 38.3945C532.203 38.393 532.204 38.3916 532.204 38.3902C532.204 38.3888 532.204 38.3873 532.205 38.3859C532.205 38.3845 532.205 38.3831 532.205 38.3817C532.205 38.3802 532.206 38.3788 532.206 38.3774C532.206 38.376 532.206 38.3746 532.207 38.3731C532.207 38.3717 532.207 38.3703 532.207 38.3689C532.207 38.3674 532.208 38.366 532.208 38.3646C532.208 38.3632 532.208 38.3618 532.208 38.3603C532.209 38.3589 532.209 38.3575 532.209 38.3561C532.209 38.3546 532.21 38.3532 532.21 38.3518C532.21 38.3504 532.21 38.349 532.21 38.3475C532.211 38.3461 532.211 38.3447 532.211 38.3433C532.211 38.3418 532.212 38.3404 532.212 38.339C532.212 38.3376 532.212 38.3362 532.212 38.3347C532.213 38.3333 532.213 38.3319 532.213 38.3305C532.213 38.3291 532.214 38.3276 532.214 38.3262C532.214 38.3248 532.214 38.3234 532.214 38.3219C532.215 38.3205 532.215 38.3191 532.215 38.3177C532.215 38.3163 532.215 38.3148 532.216 38.3134C532.216 38.312 532.216 38.3106 532.216 38.3091C532.217 38.3077 532.217 38.3063 532.217 38.3049C532.217 38.3035 532.217 38.302 532.218 38.3006C532.218 38.2992 532.218 38.2978 532.218 38.2963C532.219 38.2949 532.219 38.2935 532.219 38.2921C532.219 38.2907 532.219 38.2892 532.22 38.2878C532.22 38.2864 532.22 38.285 532.22 38.2836C532.221 38.2821 532.221 38.2807 532.221 38.2793C532.221 38.2779 532.221 38.2764 532.222 38.275C532.222 38.2736 532.222 38.2722 532.222 38.2708C532.222 38.2693 532.223 38.2679 532.223 38.2665C532.223 38.2651 532.223 38.2636 532.224 38.2622C532.224 38.2608 532.224 38.2594 532.224 38.258C532.224 38.2565 532.225 38.2551 532.225 38.2537C532.225 38.2523 532.225 38.2508 532.226 38.2494C532.226 38.248 532.226 38.2466 532.226 38.2452C532.226 38.2437 532.227 38.2423 532.227 38.2409C532.227 38.2395 532.227 38.2381 532.228 38.2366C532.228 38.2352 532.228 38.2338 532.228 38.2324C532.228 38.2309 532.229 38.2295 532.229 38.2281C532.229 38.2267 532.229 38.2253 532.229 38.2238C532.23 38.2224 532.23 38.221 532.23 38.2196C532.23 38.2181 532.231 38.2167 532.231 38.2153C532.231 38.2139 532.231 38.2125 532.231 38.211C532.232 38.2096 532.232 38.2082 532.232 38.2068C532.232 38.2053 532.233 38.2039 532.233 38.2025C532.233 38.2011 532.233 38.1997 532.233 38.1982C532.234 38.1968 532.234 38.1954 532.234 38.194C532.234 38.1926 532.235 38.1911 532.235 38.1897C532.235 38.1883 532.235 38.1869 532.235 38.1854C532.236 38.184 532.236 38.1826 532.236 38.1812C532.236 38.1798 532.236 38.1783 532.237 38.1769C532.237 38.1755 532.237 38.1741 532.237 38.1726C532.238 38.1712 532.238 38.1698 532.238 38.1684C532.238 38.167 532.238 38.1655 532.239 38.1641C532.239 38.1627 532.239 38.1613 532.239 38.1598C532.24 38.1584 532.24 38.157 532.24 38.1556C532.24 38.1542 532.24 38.1527 532.241 38.1513C532.241 38.1499 532.241 38.1485 532.241 38.1471C532.242 38.1456 532.242 38.1442 532.242 38.1428C532.242 38.1414 532.242 38.1399 532.243 38.1385C532.243 38.1371 532.243 38.1357 532.243 38.1343C532.243 38.1328 532.244 38.1314 532.244 38.13C532.244 38.1286 532.244 38.1271 532.245 38.1257C532.245 38.1243 532.245 38.1229 532.245 38.1215C532.245 38.12 532.246 38.1186 532.246 38.1172C532.246 38.1158 532.246 38.1143 532.247 38.1129C532.247 38.1115 532.247 38.1101 532.247 38.1087C532.247 38.1072 532.248 38.1058 532.248 38.1044C532.248 38.103 532.248 38.1016 532.249 38.1001C532.249 38.0987 532.249 38.0973 532.249 38.0959C532.249 38.0944 532.25 38.093 532.25 38.0916C532.25 38.0902 532.25 38.0888 532.25 38.0873C532.251 38.0859 532.251 38.0845 532.251 38.0831C532.251 38.0816 532.252 38.0802 532.252 38.0788C532.252 38.0774 532.252 38.076 532.252 38.0745C532.253 38.0731 532.253 38.0717 532.253 38.0703C532.253 38.0688 532.254 38.0674 532.254 38.066C532.254 38.0646 532.254 38.0632 532.254 38.0617C532.255 38.0603 532.255 38.0589 532.255 38.0575C532.255 38.0561 532.256 38.0546 532.256 38.0532C532.256 38.0518 532.256 38.0504 532.256 38.0489C532.257 38.0475 532.257 38.0461 532.257 38.0447C532.257 38.0433 532.257 38.0418 532.258 38.0404C532.258 38.039 532.258 38.0376 532.258 38.0361C532.259 38.0347 532.259 38.0333 532.259 38.0319C532.259 38.0305 532.259 38.029 532.26 38.0276C532.26 38.0262 532.26 38.0248 532.26 38.0233C532.261 38.0219 532.261 38.0205 532.261 38.0191C532.261 38.0177 532.261 38.0162 532.262 38.0148C532.262 38.0134 532.262 38.012 532.262 38.0106C532.263 38.0091 532.263 38.0077 532.263 38.0063C532.263 38.0049 532.263 38.0034 532.264 38.002C532.264 38.0006 532.264 37.9992 532.264 37.9978C532.264 37.9963 532.265 37.9949 532.265 37.9935C532.265 37.9921 532.265 37.9906 532.266 37.9892C532.266 37.9878 532.266 37.9864 532.266 37.985C532.266 37.9835 532.267 37.9821 532.267 37.9807C532.267 37.9793 532.267 37.9778 532.268 37.9764C532.268 37.975 532.268 37.9736 532.268 37.9722C532.268 37.9707 532.269 37.9693 532.269 37.9679C532.269 37.9665 532.269 37.9651 532.27 37.9636C532.27 37.9622 532.27 37.9608 532.27 37.9594C532.27 37.9579 532.271 37.9565 532.271 37.9551C532.271 37.9537 532.271 37.9523 532.271 37.9508C532.272 37.9494 532.272 37.948 532.272 37.9466C532.272 37.9451 532.273 37.9437 532.273 37.9423C532.273 37.9409 532.273 37.9395 532.273 37.938L530.791 37.71ZM530.455 39.894C530.349 40.5847 530.189 41.2771 529.975 41.9714L531.409 42.4126C531.643 41.6509 531.82 40.8873 531.937 40.122L530.455 39.894ZM529.954 42.3262C530.071 42.9677 530.217 43.583 530.394 44.1715L531.831 43.7405C531.671 43.209 531.537 42.6483 531.43 42.0578L529.954 42.3262ZM530.394 44.1715C530.574 44.771 530.79 45.3026 531.049 45.7561L532.351 45.0119C532.163 44.6814 531.987 44.261 531.831 43.7405L530.394 44.1715ZM531.029 45.7194C532.398 48.4563 534.051 51.022 535.989 53.4159L537.155 52.4721C535.285 50.162 533.691 47.6877 532.371 45.0486L531.029 45.7194ZM536.002 53.4309C537.992 55.762 540.181 57.8941 542.568 59.8269L543.512 58.6611C541.196 56.7859 539.073 54.718 537.143 52.457L536.002 53.4309ZM542.568 59.8269C544.956 61.7602 547.515 63.4658 550.243 64.9435L550.957 63.6245C548.309 62.1902 545.828 60.5358 543.512 58.6611L542.568 59.8269ZM550.259 64.9521C553.043 66.3725 555.886 67.51 558.789 68.3635L559.212 66.9245C556.402 66.098 553.645 64.9955 550.941 63.6159L550.259 64.9521ZM558.763 68.3555C558.875 68.3929 558.923 68.4411 558.961 68.5532L560.384 68.0788C560.197 67.5189 559.797 67.1191 559.237 66.9325L558.763 68.3555ZM558.961 68.5532C559.027 68.7518 559.011 68.874 558.976 68.9615L560.369 69.5185C560.558 69.046 560.542 68.5522 560.384 68.0788L558.961 68.5532ZM558.994 68.9207L557.65 71.7767L559.007 72.4153L560.351 69.5593L558.994 68.9207ZM557.685 71.7101C557.559 71.9206 557.425 72.067 557.29 72.168L558.19 73.368C558.504 73.133 558.762 72.8314 558.971 72.4819L557.685 71.7101ZM557.21 72.2377C557.348 72.0994 557.48 72.1315 557.399 72.1252C557.326 72.1196 557.176 72.0872 556.927 71.9876L556.37 73.3804C556.681 73.5047 556.993 73.5984 557.284 73.6208C557.566 73.6425 557.964 73.6046 558.271 73.2983L557.21 72.2377ZM556.9 71.9777C550.703 69.7643 545.148 66.6958 540.232 62.7737L539.296 63.9463C544.348 67.9762 550.049 71.1237 556.396 73.3903L556.9 71.9777ZM540.235 62.7763C535.377 58.857 531.493 54.309 528.573 49.1316L527.267 49.8684C530.284 55.219 534.295 59.911 539.293 63.9437L540.235 62.7763ZM527.249 49.1646C524.663 54.3381 521.026 59.0529 516.329 63.3082L517.336 64.4198C522.158 60.0511 525.914 55.1899 528.591 49.8354L527.249 49.1646ZM516.332 63.3049C511.643 67.4978 506.291 70.7259 500.272 72.99L500.8 74.394C506.989 72.0661 512.501 68.7422 517.332 64.4231L516.332 63.3049ZM500.273 72.9897C499.877 73.1382 499.67 73.1403 499.591 73.1246C499.564 73.119 499.566 73.1143 499.575 73.1226C499.583 73.1296 499.571 73.124 499.553 73.0775L498.16 73.6345C498.36 74.134 498.752 74.4865 499.297 74.5954C499.778 74.6917 500.299 74.5818 500.8 74.3942L500.273 72.9897ZM499.523 73.013L498.011 70.073L496.677 70.759L498.189 73.699L499.523 73.013ZM498.041 70.1375C497.979 69.9846 497.97 69.8522 497.996 69.7231L496.525 69.4289C496.439 69.8598 496.485 70.2874 496.648 70.6945L498.041 70.1375ZM497.972 69.8132C498.017 69.6782 498.098 69.5759 498.268 69.4908L497.597 68.1492C497.095 68.4001 496.728 68.8018 496.549 69.3388L497.972 69.8132ZM498.204 69.5191C506.082 66.4584 512.487 62.1674 517.393 56.6336L516.271 55.6384C511.545 60.9686 505.35 65.1336 497.661 68.1209L498.204 69.5191ZM517.393 56.6339C522.359 51.0396 525.392 44.6058 526.478 37.347L524.994 37.125C523.952 44.0901 521.049 50.2564 516.271 55.6381L517.393 56.6339ZM526.484 37.2983C526.502 37.0809 526.559 37.0318 526.56 37.0311C526.56 37.0307 526.613 36.978 526.828 36.978V35.478C526.372 35.478 525.906 35.5933 525.542 35.9289C525.179 36.2642 525.027 36.7191 524.989 37.1737L526.484 37.2983ZM526.745 36.9734L530.525 37.3934L530.691 35.9026L526.911 35.4826L526.745 36.9734ZM530.485 37.3878C530.705 37.4244 530.752 37.4871 530.753 37.4894C530.754 37.4904 530.803 37.5469 530.785 37.7617L532.28 37.8863C532.318 37.4291 532.24 36.9536 531.933 36.5626C531.627 36.1729 531.184 35.9836 530.731 35.9082L530.485 37.3878Z" fill="#F99BA7"/>
</svg>
